<svg width="1007" height="762" viewBox="0 0 1007 762" fill="none" xmlns="http://www.w3.org/2000/svg">
<g clip-path="url(#clip0)">
<path d="M713.406 295H627.406V350H713.406V295Z" fill="#19597B"/>
<path d="M579.406 381H493.406V436H579.406V381Z" fill="#19597B"/>
<path d="M964.812 313V196H899.812V120H855.812V196H790.812V313H754.812V50H681.812V25H584.812V0H488.812V25H397.812V50H318.812V312H276.812V195H211.812V119H167.812V195H102.812V312H60.8115V727H156.812V580H222.812V727H480.812V556H592.812V727H748.812V728H844.812V581H910.812V728H1006.81V313H964.812ZM95.3115 363H133.312V393H95.3115V363ZM95.8115 447H133.812V477H95.8115V447ZM134.312 561H96.3115V531H134.312V561ZM233.812 290H145.812V272H233.812V290ZM233.812 264H145.812V246H233.812V264ZM233.812 238H145.812V220H233.812V238ZM246.312 363H284.312V393H246.312V363ZM246.812 447H284.812V477H246.812V447ZM285.312 561H247.312V531H285.312V561ZM440.812 511H370.812V480H440.812V511ZM440.812 422H370.812V391H440.812V422ZM440.812 333H370.812V302H440.812V333ZM440.812 244H370.812V213H440.812V244ZM440.812 155H370.812V124H440.812V155ZM571.812 511H501.812V480H571.812V511ZM571.812 422H501.812V391H571.812V422ZM571.812 333H501.812V302H571.812V333ZM571.812 244H501.812V213H571.812V244ZM571.812 155H501.812V124H571.812V155ZM702.812 511H632.812V480H702.812V511ZM702.812 422H632.812V391H702.812V422ZM702.812 333H632.812V302H702.812V333ZM702.812 244H632.812V213H702.812V244ZM702.812 155H632.812V124H702.812V155ZM783.312 364H821.312V394H783.312V364ZM783.812 448H821.812V478H783.812V448ZM822.312 562H784.312V532H822.312V562ZM921.812 291H833.812V273H921.812V291ZM921.812 265H833.812V247H921.812V265ZM921.812 239H833.812V221H921.812V239ZM934.312 364H972.312V394H934.312V364ZM934.812 448H972.812V478H934.812V448ZM973.312 562H935.312V532H973.312V562Z" fill="#F2F2F2"/>
<path d="M120 625.709C119.72 629.665 119.283 634.09 118.606 638.739L130.831 625.181L130.899 625.408C130.151 622.145 128.947 619.003 127.323 616.076L127.401 616.291L120 625.709Z" fill="#19597B"/>
<path d="M120.048 625.016L127.217 615.892C125.692 613.109 123.486 610.758 120.805 609.059C120.673 608.981 120.541 608.907 120.409 608.834C120.448 609.912 120.636 616.237 120.048 625.016Z" fill="#19597B"/>
<path d="M113.58 660.783C113.265 661.742 112.94 662.684 112.604 663.609L130.609 653.052L130.634 653.317C131.01 651.675 131.324 650.034 131.574 648.392L113.596 660.903L113.58 660.783Z" fill="#19597B"/>
<path d="M116.084 651.922L132.3 638.549L132.346 638.799C132.403 634.377 131.936 629.964 130.955 625.652L118.497 639.469C117.842 643.824 117.038 647.975 116.084 651.922Z" fill="#19597B"/>
<path d="M118.219 639.206L98.8154 617.557L98.9193 617.312C97.0953 619.88 95.5355 622.626 94.2637 625.508L116.406 649.082C117.164 645.641 117.756 642.31 118.219 639.206Z" fill="#19597B"/>
<path d="M94.0542 625.995L94.055 625.996C94.09 625.916 94.1204 625.828 94.1556 625.748L94.0542 625.995Z" fill="#19597B"/>
<path d="M92.9749 628.651L92.875 628.898C92.9067 628.813 92.9434 628.736 92.9754 628.651L92.9749 628.651Z" fill="#19597B"/>
<path d="M116.278 649.656L94.0552 625.996C93.6796 626.856 93.3196 627.741 92.9753 628.651L115.688 652.159C115.895 651.32 116.091 650.486 116.278 649.656Z" fill="#19597B"/>
<path d="M131.622 648.076C132.064 645.1 132.305 642.098 132.343 639.09L115.908 652.644C115.257 655.272 114.541 657.799 113.759 660.224L131.587 647.818L131.622 648.076Z" fill="#19597B"/>
<path d="M90.0283 649.763L108.017 673.232C109.495 670.375 110.8 667.432 111.926 664.42L89.9762 641.365C89.7587 644.248 89.7345 647.141 89.904 650.026L90.0283 649.763Z" fill="#19597B"/>
<path d="M120.081 608.815L120.242 608.742C116.302 606.638 112.037 606.864 107.95 608.998L119.731 625C120.365 615.502 120.085 608.909 120.081 608.815Z" fill="#19597B"/>
<path d="M112.021 665.179C110.988 667.89 109.809 670.542 108.488 673.125L126.582 663.763L126.6 664.023C127.963 661.72 129.029 659.254 129.773 656.683C130.06 655.672 130.323 654.657 130.56 653.64L112.34 664.323C112.234 664.609 112.129 664.896 112.021 665.179Z" fill="#19597B"/>
<path d="M119.682 625.707L107.631 609.338L107.744 609.105C104.294 611.1 101.33 613.836 99.0642 617.114L118.309 638.587C118.975 633.99 119.407 629.617 119.682 625.707Z" fill="#19597B"/>
<path d="M112.123 663.891C113.465 660.231 114.608 656.502 115.549 652.719L92.7793 629.153C92.2372 630.625 91.7394 632.156 91.2858 633.746C90.6563 636.026 90.2362 638.359 90.0305 640.715L112.106 663.901L112.123 663.891Z" fill="#19597B"/>
<path d="M135.51 689.315C132.772 692.184 129.612 695.312 126.125 698.462L144.19 695.817L144.097 696.034C145.602 693.044 146.678 689.857 147.294 686.567L147.217 686.782L135.51 689.315Z" fill="#19597B"/>
<path d="M146.75 677.005C146.699 676.861 146.644 676.72 146.589 676.579C145.932 677.434 142.042 682.426 135.99 688.811L147.33 686.357C147.931 683.241 147.731 680.023 146.75 677.005Z" fill="#19597B"/>
<path d="M108.195 712.234C107.341 712.772 106.49 713.29 105.641 713.788L126.242 717.141L126.092 717.361C127.429 716.336 128.717 715.272 129.957 714.168L108.131 712.337L108.195 712.234Z" fill="#19597B"/>
<path d="M115.775 707.007L136.794 707.049L136.67 707.271C139.534 703.902 141.99 700.206 143.985 696.259L125.576 698.954C122.295 701.891 119.028 704.575 115.775 707.007Z" fill="#19597B"/>
<path d="M108.689 711.918L130.333 713.733L130.195 713.955C132.434 711.945 134.535 709.786 136.483 707.493L115.18 707.45C113.002 709.059 110.838 710.549 108.689 711.918Z" fill="#19597B"/>
<path d="M82.179 722.629C82.3323 722.474 82.4946 722.305 82.6545 722.141C87.068 721.438 91.3807 720.206 95.4993 718.471L96.0876 702.872C96.2621 702.475 96.4317 702.075 96.5963 701.673L95.9703 718.273C98.9307 717.016 101.813 715.582 104.602 713.979L102.592 684.981C102.747 684.901 102.903 684.819 103.063 684.734L105.071 713.695L105.09 713.698C108.458 711.735 111.718 709.592 114.855 707.279L112.666 678.742C112.821 678.629 112.976 678.518 113.131 678.402L115.32 706.936C116.014 706.422 116.697 705.905 117.37 705.385L115.564 676.497C115.719 676.371 115.873 676.244 116.028 676.115L117.835 705.024C120.613 702.858 123.194 700.67 125.53 698.574L124.394 669.524L124.63 669.402C123.823 669.613 123.004 669.862 122.177 670.134C123.732 668.358 125.13 666.452 126.357 664.436L108.089 673.887C106.825 676.29 105.402 678.605 103.832 680.82C103.505 681.128 103.179 681.436 102.857 681.758L102.881 682.104C102.732 682.301 102.584 682.499 102.433 682.691L102.4 682.224C102.17 682.46 101.945 682.711 101.717 682.953C104.03 680.065 106.061 676.961 107.78 673.684L89.9229 650.387C90.0446 652.47 90.2481 654.566 90.51 656.645C88.8521 653.949 86.8387 651.489 84.524 649.331L84.6647 649.511L80.5377 660.756C81.4944 664.605 82.4457 668.948 83.2391 673.579L90.573 657.134C90.6065 657.391 90.642 657.646 90.6772 657.902L83.361 674.307C84.0848 678.65 84.6031 682.847 84.9158 686.896L93.6969 673.103C93.7471 673.301 93.7972 673.499 93.8474 673.695L84.9716 687.636C85.1647 690.337 85.2644 692.962 85.2706 695.51L96.0045 681.348C96.0618 681.535 96.1177 681.715 96.1733 681.894L85.3258 696.206L85.273 696.096C85.27 697.106 85.2518 698.102 85.2184 699.085L97.3262 685.453C97.3905 685.643 97.4502 685.818 97.5054 685.978L85.188 699.846C85.1754 700.151 85.1642 700.457 85.1486 700.759C85.0045 703.656 84.7028 706.544 84.2448 709.408L85.4132 708.225C85.1919 708.684 84.9763 709.137 84.7665 709.583L84.1016 710.256C84.0253 710.694 83.9384 711.121 83.8547 711.552C83.6094 712.091 83.373 712.617 83.1454 713.129C83.3651 712.146 83.5699 711.157 83.7448 710.159L59.5613 693.522C65.8706 709.664 77.7516 725.018 78.5122 725.993C79.1297 724.84 79.6907 723.653 80.2057 722.441C80.3554 722.427 80.5051 722.413 80.6546 722.397C80.5928 722.546 80.5286 722.693 80.4656 722.84C80.3902 722.848 80.3138 722.86 80.2386 722.868C80.2972 722.884 80.3675 722.903 80.4312 722.921C80.0683 723.767 79.6924 724.599 79.2891 725.403C79.8169 724.928 80.6209 724.178 81.5821 723.226C87.2688 724.678 102.589 727.782 115.706 723.196L95.6082 718.824C91.3073 720.646 86.7961 721.924 82.179 722.629ZM96.3015 697.198L96.7835 696.71L96.7559 697.441L96.274 697.929L96.3015 697.198Z" fill="#19597B"/>
<path d="M146.348 676.354L146.518 676.402C144.827 672.268 141.398 669.722 136.888 668.758L135.756 688.597C142.302 681.687 146.291 676.43 146.348 676.354Z" fill="#19597B"/>
<path d="M104.19 714.625C101.666 716.054 99.0658 717.345 96.4011 718.491L116.308 722.822L116.156 723.034C118.675 722.13 121.069 720.91 123.282 719.404C124.148 718.808 124.997 718.194 125.829 717.562L104.983 714.169C104.719 714.322 104.454 714.476 104.19 714.625Z" fill="#19597B"/>
<path d="M125.995 698.155C129.44 695.039 132.561 691.946 135.267 689.111L136.426 668.817L136.662 668.709C132.732 668.046 128.704 668.262 124.868 669.342L125.995 698.155Z" fill="#19597B"/>
<path d="M84.3667 649.189C82.0558 647.013 79.231 645.459 76.1563 644.672C76.0072 644.638 75.8589 644.609 75.7107 644.581C76.081 645.593 78.2148 651.551 80.3687 660.081L84.3667 649.189Z" fill="#19597B"/>
<path d="M83.0153 674.142L57.8706 659.551L57.8937 659.286C56.9528 662.292 56.3182 665.385 55.9993 668.519L84.3435 684.095C84.0016 680.588 83.5352 677.237 83.0153 674.142Z" fill="#19597B"/>
<path d="M55.9507 669.047L55.9517 669.048C55.9602 668.961 55.962 668.868 55.9709 668.781L55.9507 669.047Z" fill="#19597B"/>
<path d="M55.7448 671.906L55.7263 672.173C55.7302 672.082 55.7412 671.997 55.7455 671.907L55.7448 671.906Z" fill="#19597B"/>
<path d="M84.3996 684.68L55.9517 669.048C55.8605 669.982 55.7918 670.935 55.7456 671.907L84.6125 687.243C84.5496 686.381 84.4787 685.527 84.3996 684.68Z" fill="#19597B"/>
<path d="M84.8239 700.066L56.8232 684.926C57.5073 687.734 58.3787 690.493 59.4316 693.185L59.4684 692.896L83.8302 709.655C84.3528 706.482 84.6846 703.28 84.8239 700.066Z" fill="#19597B"/>
<path d="M75.392 644.663L75.5229 644.545C71.1258 643.761 67.1396 645.294 63.9116 648.587L80.0623 660.164C77.7297 650.936 75.4253 644.752 75.392 644.663Z" fill="#19597B"/>
<path d="M80.2348 660.852L63.7137 649.009L63.7491 648.753C61.0855 651.717 59.1119 655.234 57.9702 659.052L82.9101 673.525C82.1225 668.948 81.181 664.656 80.2348 660.852Z" fill="#19597B"/>
<path d="M84.8477 699.503C84.9925 695.607 84.9274 691.707 84.6527 687.819L55.714 672.445C55.6535 674.012 55.6533 675.622 55.7134 677.275C55.8195 679.638 56.141 681.986 56.6738 684.291L84.8344 699.518L84.8477 699.503Z" fill="#19597B"/>
<path d="M976 622.709C975.72 626.665 975.282 631.09 974.605 635.739L986.831 622.181L986.898 622.408C986.151 619.145 984.947 616.003 983.323 613.076L983.401 613.291L976 622.709Z" fill="#19597B"/>
<path d="M976.048 622.016L983.217 612.892C981.692 610.109 979.486 607.758 976.805 606.059C976.673 605.981 976.541 605.907 976.409 605.834C976.448 606.912 976.636 613.237 976.048 622.016Z" fill="#19597B"/>
<path d="M969.58 657.783C969.265 658.742 968.94 659.684 968.604 660.609L986.609 650.052L986.634 650.317C987.01 648.675 987.323 647.034 987.574 645.392L969.596 657.903L969.58 657.783Z" fill="#19597B"/>
<path d="M972.084 648.922L988.3 635.549L988.346 635.799C988.403 631.377 987.936 626.964 986.955 622.652L974.497 636.469C973.842 640.824 973.038 644.975 972.084 648.922Z" fill="#19597B"/>
<path d="M974.219 636.206L954.815 614.557L954.919 614.312C953.095 616.88 951.536 619.626 950.264 622.508L972.406 646.082C973.164 642.641 973.756 639.31 974.219 636.206Z" fill="#19597B"/>
<path d="M950.054 622.995L950.055 622.996C950.09 622.916 950.12 622.828 950.156 622.748L950.054 622.995Z" fill="#19597B"/>
<path d="M972.278 646.656L950.055 622.996C949.679 623.856 949.319 624.741 948.975 625.651L971.688 649.159C971.895 648.32 972.091 647.486 972.278 646.656Z" fill="#19597B"/>
<path d="M948.975 625.651L948.875 625.898C948.907 625.813 948.943 625.736 948.975 625.651L948.975 625.651Z" fill="#19597B"/>
<path d="M987.622 645.076C988.064 642.1 988.305 639.098 988.343 636.09L971.908 649.644C971.257 652.272 970.541 654.799 969.759 657.224L987.587 644.818L987.622 645.076Z" fill="#19597B"/>
<path d="M946.028 646.763L964.017 670.232C965.495 667.375 966.8 664.432 967.926 661.42L945.976 638.365C945.759 641.248 945.735 644.141 945.904 647.026L946.028 646.763Z" fill="#19597B"/>
<path d="M976.081 605.815L976.242 605.742C972.302 603.638 968.037 603.864 963.95 605.998L975.731 622C976.365 612.502 976.085 605.909 976.081 605.815Z" fill="#19597B"/>
<path d="M968.02 662.179C966.988 664.89 965.808 667.542 964.487 670.125L982.582 660.763L982.6 661.023C983.963 658.72 985.029 656.254 985.772 653.683C986.06 652.672 986.322 651.657 986.559 650.64L968.34 661.323C968.234 661.609 968.129 661.896 968.02 662.179Z" fill="#19597B"/>
<path d="M975.683 622.707L963.631 606.338L963.744 606.105C960.295 608.1 957.33 610.836 955.064 614.114L974.309 635.587C974.976 630.99 975.407 626.617 975.683 622.707Z" fill="#19597B"/>
<path d="M968.123 660.891C969.464 657.231 970.608 653.502 971.548 649.719L948.779 626.153C948.237 627.625 947.739 629.156 947.286 630.746C946.656 633.026 946.236 635.359 946.03 637.715L968.105 660.901L968.123 660.891Z" fill="#19597B"/>
<path d="M991.51 686.315C988.772 689.184 985.612 692.312 982.125 695.462L1000.19 692.817L1000.1 693.034C1001.6 690.044 1002.68 686.857 1003.29 683.567L1003.22 683.782L991.51 686.315Z" fill="#19597B"/>
<path d="M1002.75 674.005C1002.7 673.861 1002.64 673.72 1002.59 673.579C1001.93 674.434 998.042 679.426 991.99 685.811L1003.33 683.357C1003.93 680.241 1003.73 677.023 1002.75 674.005Z" fill="#19597B"/>
<path d="M964.196 709.234C963.341 709.772 962.49 710.29 961.642 710.788L982.242 714.141L982.092 714.361C983.429 713.336 984.717 712.272 985.957 711.168L964.131 709.337L964.196 709.234Z" fill="#19597B"/>
<path d="M971.775 704.007L992.794 704.049L992.67 704.271C995.534 700.902 997.99 697.206 999.985 693.259L981.576 695.954C978.295 698.891 975.028 701.575 971.775 704.007Z" fill="#19597B"/>
<path d="M964.689 708.918L986.333 710.733L986.195 710.955C988.434 708.945 990.535 706.786 992.483 704.493L971.18 704.45C969.002 706.059 966.838 707.549 964.689 708.918Z" fill="#19597B"/>
<path d="M938.179 719.629C938.332 719.474 938.495 719.305 938.655 719.141C943.068 718.438 947.381 717.206 951.5 715.471L952.088 699.872C952.262 699.475 952.432 699.075 952.596 698.673L951.97 715.273C954.931 714.016 957.813 712.582 960.602 710.979L958.592 681.981C958.747 681.901 958.903 681.819 959.063 681.734L961.071 710.695L961.091 710.698C964.458 708.735 967.718 706.592 970.855 704.279L968.666 675.742C968.821 675.629 968.976 675.518 969.131 675.402L971.32 703.936C972.014 703.422 972.697 702.905 973.37 702.385L971.565 673.497C971.719 673.371 971.874 673.244 972.028 673.115L973.835 702.024C976.614 699.858 979.194 697.67 981.53 695.574L980.394 666.524L980.63 666.402C979.824 666.613 979.004 666.862 978.177 667.134C979.732 665.358 981.13 663.452 982.357 661.436L964.089 670.887C962.825 673.29 961.403 675.605 959.832 677.82C959.505 678.128 959.179 678.436 958.857 678.758L958.881 679.104C958.732 679.301 958.584 679.499 958.433 679.691L958.401 679.224C958.17 679.46 957.945 679.711 957.717 679.953C960.031 677.065 962.061 673.961 963.78 670.684L945.923 647.387C946.045 649.47 946.248 651.566 946.51 653.645C944.852 650.949 942.839 648.489 940.524 646.331L940.665 646.511L936.538 657.756C937.495 661.605 938.446 665.948 939.239 670.579L946.573 654.134C946.607 654.391 946.642 654.646 946.677 654.902L939.361 671.307C940.085 675.65 940.603 679.847 940.916 683.896L949.697 670.103C949.747 670.301 949.797 670.499 949.848 670.695L940.972 684.636C941.165 687.337 941.265 689.962 941.271 692.51L952.005 678.348C952.062 678.535 952.118 678.715 952.174 678.894L941.326 693.206L941.273 693.096C941.27 694.106 941.252 695.102 941.219 696.085L953.326 682.453C953.391 682.643 953.45 682.818 953.506 682.978L941.188 696.846C941.176 697.151 941.164 697.457 941.149 697.759C941.005 700.656 940.703 703.543 940.245 706.408L941.413 705.225C941.192 705.684 940.977 706.137 940.767 706.583L940.102 707.256C940.026 707.694 939.939 708.121 939.855 708.552C939.61 709.091 939.373 709.617 939.146 710.129C939.365 709.146 939.57 708.157 939.745 707.159L915.562 690.522C921.871 706.664 933.752 722.018 934.512 722.993C935.13 721.84 935.691 720.653 936.206 719.441C936.356 719.427 936.505 719.413 936.655 719.397C936.593 719.546 936.529 719.693 936.466 719.84C936.39 719.848 936.314 719.86 936.239 719.868C936.297 719.884 936.368 719.903 936.432 719.921C936.069 720.767 935.693 721.599 935.289 722.403C935.817 721.928 936.621 721.178 937.582 720.226C943.269 721.678 958.589 724.782 971.706 720.196L951.609 715.824C947.308 717.646 942.796 718.924 938.179 719.629ZM952.302 694.198L952.784 693.71L952.756 694.441L952.274 694.929L952.302 694.198Z" fill="#19597B"/>
<path d="M1002.35 673.354L1002.52 673.402C1000.83 669.268 997.398 666.722 992.888 665.758L991.756 685.597C998.302 678.687 1002.29 673.43 1002.35 673.354Z" fill="#19597B"/>
<path d="M960.191 711.625C957.666 713.054 955.066 714.345 952.401 715.491L972.309 719.822L972.157 720.034C974.676 719.13 977.07 717.91 979.282 716.404C980.148 715.808 980.997 715.194 981.829 714.562L960.983 711.169C960.719 711.322 960.454 711.476 960.191 711.625Z" fill="#19597B"/>
<path d="M981.995 695.155C985.44 692.039 988.561 688.946 991.267 686.111L992.426 665.817L992.661 665.709C988.732 665.046 984.704 665.262 980.868 666.342L981.995 695.155Z" fill="#19597B"/>
<path d="M940.367 646.189C938.056 644.013 935.231 642.459 932.156 641.672C932.007 641.638 931.859 641.609 931.711 641.581C932.081 642.593 934.215 648.551 936.369 657.081L940.367 646.189Z" fill="#19597B"/>
<path d="M939.015 671.142L913.87 656.551L913.893 656.286C912.953 659.292 912.318 662.385 911.999 665.519L940.343 681.095C940.001 677.588 939.535 674.237 939.015 671.142Z" fill="#19597B"/>
<path d="M911.745 668.906L911.727 669.173C911.73 669.082 911.741 668.997 911.746 668.907L911.745 668.906Z" fill="#19597B"/>
<path d="M911.951 666.047L911.952 666.048C911.96 665.961 911.962 665.868 911.971 665.781L911.951 666.047Z" fill="#19597B"/>
<path d="M940.4 681.68L911.952 666.048C911.86 666.982 911.792 667.935 911.746 668.907L940.612 684.243C940.55 683.381 940.479 682.527 940.4 681.68Z" fill="#19597B"/>
<path d="M940.824 697.066L912.823 681.926C913.507 684.734 914.379 687.493 915.432 690.185L915.468 689.896L939.83 706.655C940.353 703.482 940.685 700.28 940.824 697.066Z" fill="#19597B"/>
<path d="M931.392 641.663L931.523 641.545C927.126 640.761 923.14 642.294 919.912 645.587L936.062 657.164C933.73 647.936 931.425 641.752 931.392 641.663Z" fill="#19597B"/>
<path d="M936.235 657.852L919.714 646.009L919.749 645.753C917.086 648.717 915.112 652.234 913.97 656.052L938.91 670.525C938.123 665.948 937.181 661.656 936.235 657.852Z" fill="#19597B"/>
<path d="M940.848 696.503C940.992 692.607 940.927 688.707 940.653 684.819L911.714 669.445C911.653 671.012 911.653 672.622 911.713 674.275C911.82 676.638 912.141 678.986 912.674 681.291L940.834 696.518L940.848 696.503Z" fill="#19597B"/>
<path d="M60.8115 727H1006.81V740.535C1006.81 746.228 1004.55 751.688 1000.52 755.713C996.499 759.739 991.04 762 985.347 762H82.2761C76.5833 762 71.1237 759.739 67.0984 755.713C63.073 751.688 60.8115 746.228 60.8115 740.535V727Z" fill="#2F2E41"/>
<path d="M1006.81 716H60.8115V735H1006.81V716Z" fill="#3F3D56"/>
<path d="M304.72 596.864L303.513 598.071C303.513 598.071 303.915 611.349 304.318 614.166C304.72 616.982 306.33 621.811 305.122 625.432C303.915 629.054 303.513 631.87 303.915 632.272C304.318 632.675 303.513 634.284 303.513 634.284L306.732 632.272L311.963 620.201L309.549 607.325L304.72 596.864Z" fill="#19597B"/>
<path opacity="0.1" d="M304.72 596.864L303.513 598.071C303.513 598.071 303.915 611.349 304.318 614.166C304.72 616.982 306.33 621.811 305.122 625.432C303.915 629.054 303.513 631.87 303.915 632.272C304.318 632.675 303.513 634.284 303.513 634.284L306.732 632.272L311.963 620.201L309.549 607.325L304.72 596.864Z" fill="black"/>
<path d="M326.046 722.001C326.046 722.001 326.046 717.575 325.241 716.77C324.436 715.966 323.229 713.149 321.62 713.149C320.01 713.149 314.377 714.758 314.377 715.161C314.423 716.417 314.146 717.664 313.572 718.782C312.767 719.989 308.341 724.818 312.767 725.622C314.239 725.864 315.744 725.811 317.195 725.466C318.645 725.12 320.013 724.49 321.217 723.611C321.62 723.208 323.229 722.806 323.631 723.208C324.034 723.611 326.046 722.001 326.046 722.001Z" fill="#19597B"/>
<path d="M337.312 714.758L339.726 719.184C339.726 719.184 340.531 723.208 341.738 723.61H342.945C342.945 723.61 344.152 728.037 346.969 727.634C349.785 727.232 353.004 725.622 353.004 724.818C353.004 724.013 353.004 721.599 351.797 720.794C350.105 719.412 348.493 717.934 346.969 716.368L344.957 714.356L337.312 714.758Z" fill="#19597B"/>
<path d="M306.432 567.367C305.658 567.762 304.989 568.338 304.484 569.045C303.978 569.752 303.649 570.57 303.525 571.431C303.301 574.304 306.141 577.011 305.228 579.743C304.709 581.295 303.094 582.3 302.629 583.868C302.384 585.119 302.567 586.416 303.15 587.55C303.785 589.105 304.558 590.6 305.461 592.017C307.157 594.68 309.364 597.207 309.818 600.332C309.943 600.878 309.938 601.446 309.801 601.99C309.665 602.534 309.401 603.038 309.033 603.46C309.849 602.842 310.783 602.398 311.778 602.154C315.89 600.78 319.711 598.652 323.045 595.879C324.256 595.028 325.167 593.816 325.65 592.416C326.264 589.944 324.388 587.471 324.568 584.93C324.683 583.304 325.621 581.869 326.152 580.329C326.614 578.795 326.761 577.184 326.584 575.593C326.408 574.001 325.912 572.461 325.125 571.066C324.474 569.716 323.555 568.513 322.425 567.53C321.294 566.546 319.975 565.803 318.548 565.345C316.353 564.834 314.063 564.9 311.901 565.537C310.012 565.929 308.176 566.543 306.432 567.367Z" fill="#2F2E41"/>
<path d="M308.697 589.679C309.583 588.033 310.895 586.655 312.496 585.689C314.097 584.724 315.928 584.205 317.797 584.189C324.235 584.189 323.028 583.787 323.028 583.787L321.016 591.834L316.992 595.858L308.697 589.679Z" fill="#19597B"/>
<path d="M310.353 581.171C310.353 581.171 313.975 587.207 311.56 589.621C309.146 592.035 310.353 594.449 310.756 594.852C311.158 595.254 322.424 596.059 322.424 596.059L322.827 590.426L324.034 585.597C324.034 585.597 317.596 584.39 318.401 581.574C319.206 578.757 310.353 581.171 310.353 581.171Z" fill="#FBBEBE"/>
<path opacity="0.1" d="M310.353 581.171C310.353 581.171 313.975 587.207 311.56 589.621C309.146 592.035 310.353 594.449 310.756 594.852C311.158 595.254 322.424 596.059 322.424 596.059L322.827 590.426L324.034 585.597C324.034 585.597 317.596 584.39 318.401 581.574C319.206 578.757 310.353 581.171 310.353 581.171Z" fill="black"/>
<path d="M338.519 638.308C338.089 639.689 337.55 641.034 336.91 642.332C336.507 642.734 335.3 639.515 335.3 639.515L336.507 636.698L338.519 638.308Z" fill="#FBBEBE"/>
<path d="M333.892 620L335.501 629.255H311.359L312.566 620H333.892Z" fill="#FBBEBE"/>
<path d="M314.779 584.39C319.002 584.39 322.424 580.968 322.424 576.745C322.424 572.523 319.002 569.1 314.779 569.1C310.557 569.1 307.134 572.523 307.134 576.745C307.134 580.968 310.557 584.39 314.779 584.39Z" fill="#FBBEBE"/>
<path d="M316.389 592.438C316.389 592.438 311.963 592.84 311.963 592.035C311.963 591.231 311.56 588.816 310.756 589.219C309.951 589.621 304.72 590.023 305.122 591.231C305.525 592.438 306.33 594.852 305.525 594.852C305.177 594.923 304.847 595.064 304.555 595.267C304.264 595.469 304.016 595.729 303.828 596.03C303.64 596.331 303.515 596.667 303.461 597.018C303.407 597.369 303.424 597.727 303.513 598.071C303.915 600.083 308.341 612.154 308.341 612.154C308.341 612.154 308.744 616.178 309.951 617.385C310.442 618.018 310.708 618.796 310.708 619.598C310.708 620.399 310.442 621.178 309.951 621.811C309.146 622.616 311.963 623.42 313.17 625.03C314.377 626.639 323.632 625.432 324.034 625.03C324.436 624.627 334.093 624.627 334.898 623.823C335.703 623.018 334.495 620.604 334.495 620.604C334.495 620.604 334.093 616.982 334.495 615.775C334.898 614.568 332.886 594.852 331.679 593.645C330.472 592.438 335.3 588.816 335.3 588.816C335.3 588.816 334.495 585.597 329.265 585.195C329.265 585.195 327.655 582.781 326.046 582.781C324.436 582.781 320.942 584.653 320.942 584.653C320.942 584.653 320.01 590.024 318.803 590.426C317.849 590.894 317.021 591.583 316.389 592.438Z" fill="#19597B"/>
<path d="M332.484 587.609L335.3 588.816C335.3 588.816 343.348 613.763 342.543 618.592C341.738 623.42 339.726 639.917 338.519 639.917C337.312 639.917 334.898 637.503 334.898 637.503V633.479C334.898 632.675 333.691 630.26 334.496 630.26C335.3 630.26 336.507 629.456 335.703 628.651C334.898 627.846 334.093 626.639 334.898 625.432C335.703 624.225 336.105 623.823 335.703 622.615C335.3 621.408 334.495 620.201 335.3 619.396C336.105 618.592 333.288 614.568 333.288 614.568L328.862 596.864L329.667 589.621L332.484 587.609Z" fill="#19597B"/>
<path d="M334.093 625.834C334.093 625.834 318.803 624.627 316.791 624.627C314.779 624.627 310.266 622.733 310.266 622.733C310.266 622.733 298.684 634.284 302.708 653.196C306.732 672.107 307.537 695.445 309.951 702.285C311.591 707.162 312.935 712.133 313.975 717.173C313.975 717.173 317.998 709.93 325.643 717.977C325.643 717.977 326.448 711.942 325.241 709.528C324.034 707.113 322.424 694.237 322.424 694.237C322.424 694.237 319.608 673.717 319.608 671.302C319.608 668.888 317.998 648.367 318.401 647.965C318.803 647.562 320.815 663.657 321.217 666.474C321.62 669.29 322.827 691.018 324.034 693.433C325.241 695.847 330.874 715.161 334.093 716.368C337.312 717.575 348.176 715.965 347.774 715.161C347.371 714.356 344.555 709.93 343.75 708.723L340.531 703.894L332.886 677.74L336.507 645.953C336.507 645.953 338.519 625.432 334.093 625.834Z" fill="#2F2E41"/>
<path d="M319.436 575.739H309.632C309.216 575.739 308.814 575.591 308.498 575.321C308.182 575.05 307.972 574.676 307.907 574.265L306.933 568.094H322.223L320.856 574.587C320.788 574.913 320.609 575.205 320.351 575.415C320.092 575.625 319.769 575.739 319.436 575.739Z" fill="#2F2E41"/>
<path d="M824.715 573.834H840.184V595.932C838.152 595.932 836.141 595.532 834.264 594.755C832.387 593.978 830.682 592.838 829.245 591.402C827.809 589.965 826.67 588.26 825.892 586.383C825.115 584.507 824.715 582.495 824.715 580.464V573.834Z" fill="#2F2E41"/>
<path d="M815.692 703.292L814.587 708.817H822.321L822.689 703.292H815.692Z" fill="#A0616A"/>
<path d="M815.691 707.712C815.691 707.712 814.218 706.607 813.482 707.344C812.745 708.08 810.167 722.444 809.799 722.812C809.43 723.181 798.381 728.705 800.959 729.074C803.537 729.442 813.482 729.81 814.955 729.074C816.428 728.337 820.479 721.339 820.479 721.339V727.6H821.216C821.216 727.6 821.953 720.971 823.794 719.129C825.636 717.288 822.321 711.027 822.321 711.027C822.321 711.027 823.058 706.975 822.689 706.975C822.321 706.975 815.691 707.712 815.691 707.712Z" fill="#19597B"/>
<path d="M838.526 699.425L837.421 704.95H845.156L845.524 699.425H838.526Z" fill="#A0616A"/>
<path d="M829.687 663.516C829.687 663.516 833.37 674.565 834.107 675.67C834.843 676.775 837.421 697.4 837.421 697.4C837.421 697.4 834.843 701.451 838.158 701.819C841.473 702.188 839.999 701.083 842.209 701.819C842.81 702.046 843.455 702.131 844.094 702.067C844.733 702.003 845.349 701.792 845.892 701.451C845.892 701.451 846.997 699.241 846.261 698.505C845.524 697.768 846.997 678.616 846.997 678.616L844.787 671.987L842.946 650.994C842.946 650.994 845.156 645.469 844.051 643.996C842.946 642.523 839.263 645.101 839.263 645.101L829.687 663.516Z" fill="#2F2E41"/>
<path d="M824.899 634.788C824.899 634.788 823.794 646.574 823.057 647.311C822.321 648.047 814.218 668.672 814.218 668.672C814.218 668.672 812.008 671.25 812.745 680.826C813.482 690.402 815.323 699.978 815.323 699.978C815.323 699.978 813.85 705.502 816.428 705.502C819.006 705.502 820.111 704.029 821.216 705.134C822.321 706.239 823.058 705.134 823.426 704.397C823.794 703.661 825.267 701.083 825.267 700.346C825.267 699.61 826.741 680.826 826.741 680.826C826.741 680.826 838.895 653.94 839.999 652.467C841.104 650.994 847.365 642.891 846.997 637.367L824.899 634.788Z" fill="#2F2E41"/>
<path d="M834.107 585.067C838.378 585.067 841.841 581.605 841.841 577.333C841.841 573.062 838.378 569.599 834.107 569.599C829.835 569.599 826.373 573.062 826.373 577.333C826.373 581.605 829.835 585.067 834.107 585.067Z" fill="#A0616A"/>
<path d="M832.633 583.963C832.633 583.963 835.58 590.592 835.948 592.434C836.316 594.275 843.314 588.751 843.314 588.751C843.314 588.751 839.631 582.489 840.736 579.543L832.633 583.963Z" fill="#A0616A"/>
<path d="M844.419 587.646C844.419 587.646 838.895 583.594 834.843 592.065C830.792 600.536 829.687 600.168 829.687 600.168C829.687 600.168 824.899 601.641 826.372 611.953C827.846 622.266 821.584 635.893 824.162 636.63C826.741 637.366 850.68 641.418 850.68 638.471C850.68 635.525 848.47 624.107 850.312 617.11C852.153 610.112 847.734 585.804 844.419 587.646Z" fill="#3F3D56"/>
<path d="M838.895 589.487C838.895 589.487 834.475 596.117 834.843 601.273C835.212 606.429 835.212 609.744 835.212 609.744C835.212 609.744 827.846 645.101 829.319 645.101C830.792 645.101 835.212 646.942 835.58 645.837C835.948 644.732 845.156 622.266 845.156 622.266C845.156 622.266 847.366 599.8 844.788 594.643C842.209 589.487 838.895 589.487 838.895 589.487Z" fill="#3F3D56"/>
<path d="M830.056 643.996C830.056 643.996 826.373 656.518 831.529 656.886C836.685 657.255 833.739 644.732 833.739 644.732L830.056 643.996Z" fill="#A0616A"/>
<path d="M839.858 702.081C839.858 702.081 838.568 701.114 837.923 701.759C837.278 702.404 835.02 714.982 834.698 715.305C834.375 715.627 824.699 720.465 826.957 720.788C829.215 721.11 837.923 721.433 839.213 720.788C840.503 720.143 844.051 714.015 844.051 714.015V719.498H844.696C844.696 719.498 845.341 713.692 846.954 712.08C848.566 710.467 845.664 704.984 845.664 704.984C845.664 704.984 846.309 701.436 845.986 701.436C845.664 701.436 839.858 702.081 839.858 702.081Z" fill="#19597B"/>
<path d="M830.283 572.265C830.529 571.965 830.851 571.737 831.215 571.605C831.555 571.544 831.906 571.574 832.231 571.693C834.54 572.367 836.543 573.823 837.896 575.812C838.159 576.319 838.554 576.746 839.038 577.048C839.354 577.142 839.662 577.26 839.961 577.4C840.822 577.969 840.309 579.288 839.814 580.193C838.546 582.523 837.961 585.162 838.125 587.809C838.114 588.269 838.25 588.721 838.512 589.099C838.929 589.485 839.474 589.703 840.043 589.71C841.83 589.935 843.631 590.031 845.433 589.999C847.195 589.967 849.151 589.717 850.293 588.374C851.521 586.93 851.329 584.718 850.53 583C849.731 581.281 848.432 579.844 847.51 578.188C846.635 576.439 845.944 574.603 845.449 572.711C844.811 570.296 843.782 568.001 842.404 565.918C841.709 564.88 840.807 563.996 839.755 563.322C838.703 562.647 837.523 562.196 836.289 561.998C832.944 561.624 829.858 563.685 827.169 565.71C824.149 567.984 820.936 570.797 820.693 574.569C820.497 577.626 822.332 580.391 823.291 583.299C824.771 587.789 824.151 592.667 823.515 597.352C826.242 595.718 829.327 593.45 829.149 590.276C829.028 588.135 827.412 586.426 826.407 584.531C823.641 579.323 826.794 575.831 830.283 572.265Z" fill="#2F2E41"/>
<path d="M939.048 609.908C941.388 605.823 942.598 601.188 942.552 596.479C942.552 584.343 935.036 574.505 925.765 574.505C916.495 574.505 908.979 584.343 908.979 596.479C908.933 601.188 910.142 605.823 912.483 609.908C910.186 614.011 908.979 618.635 908.979 623.337C908.979 628.04 910.186 632.663 912.483 636.766C910.186 640.869 908.979 645.493 908.979 650.195C908.979 654.897 910.186 659.521 912.483 663.624C910.186 667.727 908.979 672.351 908.979 677.053C908.979 681.755 910.186 686.379 912.483 690.482C910.142 694.567 908.933 699.202 908.979 703.911C908.979 716.047 916.495 725.885 925.765 725.885C935.036 725.885 942.552 716.047 942.552 703.911C942.598 699.202 941.388 694.567 939.048 690.482C941.345 686.379 942.552 681.755 942.552 677.053C942.552 672.351 941.345 667.727 939.048 663.624C941.345 659.521 942.552 654.897 942.552 650.195C942.552 645.493 941.345 640.869 939.048 636.766C941.345 632.663 942.552 628.04 942.552 623.337C942.552 618.635 941.345 614.011 939.048 609.908Z" fill="#3F3D56"/>
<path d="M925.766 591.596C935.036 591.596 942.552 581.758 942.552 569.622C942.552 557.485 935.036 547.647 925.766 547.647C916.495 547.647 908.979 557.485 908.979 569.622C908.979 581.758 916.495 591.596 925.766 591.596Z" fill="#3F3D56"/>
<path d="M925.766 564.738C935.036 564.738 942.552 554.9 942.552 542.764C942.552 530.628 935.036 520.789 925.766 520.789C916.495 520.789 908.979 530.628 908.979 542.764C908.979 554.9 916.495 564.738 925.766 564.738Z" fill="#3F3D56"/>
<path d="M988.604 358.967C990.898 356.048 992.986 352.973 994.856 349.765L950.749 342.522L998.452 342.876C1003.03 332.92 1005.52 322.134 1005.79 311.18C1006.05 300.225 1004.08 289.332 999.987 279.166L935.988 312.366L995.01 268.98C989.48 259.425 982.043 251.11 973.16 244.555C964.277 238 954.139 233.344 943.378 230.877C932.617 228.41 921.464 228.186 910.612 230.218C899.761 232.25 889.444 236.494 880.305 242.687C871.165 248.88 863.399 256.888 857.49 266.214C851.58 275.539 847.654 285.981 845.957 296.89C844.259 307.798 844.825 318.94 847.621 329.62C850.417 340.3 855.382 350.29 862.207 358.967C858.633 363.512 855.558 368.428 853.037 373.631L910.291 403.376L849.243 382.887C844.956 395.558 843.897 409.099 846.16 422.283C848.424 435.467 853.939 447.878 862.207 458.394C852.879 470.254 847.075 484.5 845.461 499.503C843.847 514.506 846.487 529.66 853.08 543.233C859.673 556.806 869.952 568.25 882.742 576.256C895.532 584.263 910.316 588.509 925.406 588.509C940.495 588.509 955.28 584.263 968.07 576.256C980.86 568.25 991.139 556.806 997.731 543.233C1004.32 529.66 1006.96 514.506 1005.35 499.503C1003.74 484.5 997.933 470.254 988.604 458.394C999.751 444.221 1005.81 426.712 1005.81 408.681C1005.81 390.649 999.751 373.141 988.604 358.967V358.967Z" fill="#F2F2F2"/>
<path d="M845 408.681C844.972 426.717 851.036 444.234 862.207 458.394C852.879 470.254 847.075 484.5 845.461 499.503C843.847 514.506 846.488 529.66 853.08 543.233C859.673 556.806 869.952 568.25 882.742 576.257C895.532 584.263 910.316 588.509 925.406 588.509C940.495 588.509 955.28 584.263 968.07 576.257C980.86 568.25 991.139 556.806 997.732 543.233C1004.32 529.66 1006.96 514.506 1005.35 499.503C1003.74 484.5 997.933 470.254 988.604 458.394C999.381 444.713 845 399.656 845 408.681Z" fill="#F2F2F2"/>
<path d="M988.604 358.967C990.898 356.048 992.986 352.973 994.856 349.765L950.749 342.522L998.452 342.876C1003.03 332.92 1005.52 322.134 1005.79 311.18C1006.05 300.225 1004.08 289.332 999.987 279.166L935.988 312.366L995.01 268.98C989.48 259.425 982.043 251.11 973.16 244.555C964.277 238 954.139 233.344 943.378 230.877C932.617 228.41 921.464 228.186 910.612 230.218C899.761 232.25 889.444 236.494 880.305 242.687C871.165 248.88 863.399 256.888 857.49 266.214C851.58 275.539 847.654 285.981 845.957 296.89C844.259 307.798 844.825 318.94 847.621 329.62C850.417 340.3 855.382 350.29 862.207 358.967C858.633 363.512 855.558 368.428 853.037 373.631L910.291 403.376L849.243 382.887C844.956 395.558 843.897 409.099 846.16 422.283C848.424 435.467 853.939 447.878 862.207 458.394C852.879 470.254 847.075 484.5 845.461 499.503C843.847 514.506 846.487 529.66 853.08 543.233C859.673 556.806 869.952 568.25 882.742 576.256C895.532 584.263 910.316 588.509 925.406 588.509C940.495 588.509 955.28 584.263 968.07 576.256C980.86 568.25 991.139 556.806 997.731 543.233C1004.32 529.66 1006.96 514.506 1005.35 499.503C1003.74 484.5 997.933 470.254 988.604 458.394C999.751 444.221 1005.81 426.712 1005.81 408.681C1005.81 390.649 999.751 373.141 988.604 358.967V358.967Z" fill="#F71735"/>
<path opacity="0.1" d="M845 408.681C844.972 426.717 851.036 444.234 862.207 458.394C852.879 470.254 847.075 484.5 845.461 499.503C843.847 514.506 846.488 529.66 853.08 543.233C859.673 556.806 869.952 568.25 882.742 576.257C895.532 584.263 910.316 588.509 925.406 588.509C940.495 588.509 955.28 584.263 968.07 576.257C980.86 568.25 991.139 556.806 997.732 543.233C1004.32 529.66 1006.96 514.506 1005.35 499.503C1003.74 484.5 997.933 470.254 988.604 458.394C999.381 444.713 845 399.656 845 408.681Z" fill="black"/>
<path d="M94.048 609.908C96.3885 605.823 97.5979 601.188 97.5516 596.479C97.5516 584.343 90.0361 574.505 80.7654 574.505C71.4947 574.505 63.9793 584.343 63.9793 596.479C63.933 601.188 65.1424 605.823 67.4829 609.908C65.1856 614.011 63.9793 618.635 63.9793 623.337C63.9793 628.04 65.1856 632.663 67.4829 636.766C65.1856 640.869 63.9793 645.493 63.9793 650.195C63.9793 654.897 65.1856 659.521 67.4829 663.624C65.1856 667.727 63.9793 672.351 63.9793 677.053C63.9793 681.755 65.1856 686.379 67.4829 690.482C65.1424 694.567 63.933 699.202 63.9793 703.911C63.9793 716.047 71.4947 725.885 80.7654 725.885C90.0362 725.885 97.5516 716.047 97.5516 703.911C97.5979 699.202 96.3885 694.567 94.048 690.482C96.3452 686.379 97.5516 681.755 97.5516 677.053C97.5516 672.351 96.3452 667.727 94.048 663.624C96.3452 659.521 97.5516 654.897 97.5516 650.195C97.5516 645.493 96.3452 640.869 94.048 636.766C96.3452 632.663 97.5516 628.04 97.5516 623.337C97.5516 618.635 96.3452 614.011 94.048 609.908Z" fill="#3F3D56"/>
<path d="M80.7656 591.596C90.0363 591.596 97.5517 581.758 97.5517 569.622C97.5517 557.485 90.0363 547.647 80.7656 547.647C71.4949 547.647 63.9795 557.485 63.9795 569.622C63.9795 581.758 71.4949 591.596 80.7656 591.596Z" fill="#3F3D56"/>
<path d="M80.7656 564.738C90.0363 564.738 97.5517 554.9 97.5517 542.764C97.5517 530.628 90.0363 520.789 80.7656 520.789C71.4949 520.789 63.9795 530.628 63.9795 542.764C63.9795 554.9 71.4949 564.738 80.7656 564.738Z" fill="#3F3D56"/>
<path d="M143.604 358.967C145.898 356.048 147.986 352.973 149.856 349.765L105.749 342.522L153.452 342.876C158.028 332.92 160.524 322.134 160.788 311.18C161.052 300.225 159.078 289.332 154.987 279.166L90.9881 312.366L150.01 268.98C144.48 259.425 137.043 251.11 128.16 244.555C119.277 238 109.139 233.344 98.3781 230.877C87.6172 228.41 76.4637 228.186 65.6123 230.218C54.7609 232.25 44.4442 236.494 35.3047 242.687C26.1653 248.88 18.399 256.888 12.4896 266.214C6.58023 275.539 2.65437 285.981 0.956592 296.89C-0.741185 307.798 -0.17451 318.94 2.62133 329.62C5.41716 340.3 10.3823 350.29 17.2073 358.967C13.6326 363.512 10.5582 368.428 8.03731 373.631L65.2912 403.376L4.24258 382.887C-0.0439529 395.558 -1.10329 409.099 1.16042 422.283C3.42413 435.467 8.93945 447.878 17.2073 458.394C7.87854 470.254 2.0754 484.5 0.461353 499.503C-1.15269 514.506 1.48751 529.66 8.08009 543.233C14.6727 556.806 24.9516 568.25 37.7416 576.256C50.5315 584.263 65.3164 588.509 80.4058 588.509C95.4952 588.509 110.28 584.263 123.07 576.256C135.86 568.25 146.139 556.806 152.731 543.233C159.324 529.66 161.964 514.506 160.35 499.503C158.736 484.5 152.933 470.254 143.604 458.394C154.751 444.221 160.812 426.712 160.812 408.681C160.812 390.649 154.751 373.141 143.604 358.967L143.604 358.967Z" fill="#F2F2F2"/>
<path d="M9.49132e-05 408.681C-0.027667 426.717 6.03557 444.234 17.2073 458.394C7.87857 470.254 2.07543 484.5 0.461383 499.503C-1.15266 514.506 1.48754 529.66 8.08012 543.233C14.6727 556.806 24.9516 568.25 37.7416 576.257C50.5316 584.263 65.3164 588.509 80.4058 588.509C95.4952 588.509 110.28 584.263 123.07 576.257C135.86 568.25 146.139 556.806 152.732 543.233C159.324 529.66 161.964 514.506 160.35 499.503C158.736 484.5 152.933 470.254 143.604 458.394C154.381 444.713 9.49132e-05 399.656 9.49132e-05 408.681Z" fill="#F2F2F2"/>
<path d="M143.604 358.967C145.898 356.048 147.986 352.973 149.856 349.765L105.749 342.522L153.452 342.876C158.028 332.92 160.524 322.134 160.788 311.18C161.052 300.225 159.078 289.332 154.987 279.166L90.9881 312.366L150.01 268.98C144.48 259.425 137.043 251.11 128.16 244.555C119.277 238 109.139 233.344 98.3781 230.877C87.6172 228.41 76.4637 228.186 65.6123 230.218C54.7609 232.25 44.4442 236.494 35.3047 242.687C26.1653 248.88 18.399 256.888 12.4896 266.214C6.58023 275.539 2.65437 285.981 0.956592 296.89C-0.741185 307.798 -0.17451 318.94 2.62133 329.62C5.41716 340.3 10.3823 350.29 17.2073 358.967C13.6326 363.512 10.5582 368.428 8.03731 373.631L65.2912 403.376L4.24258 382.887C-0.0439529 395.558 -1.10329 409.099 1.16042 422.283C3.42413 435.467 8.93945 447.878 17.2073 458.394C7.87854 470.254 2.0754 484.5 0.461353 499.503C-1.15269 514.506 1.48751 529.66 8.08009 543.233C14.6727 556.806 24.9516 568.25 37.7416 576.256C50.5315 584.263 65.3164 588.509 80.4058 588.509C95.4952 588.509 110.28 584.263 123.07 576.256C135.86 568.25 146.139 556.806 152.731 543.233C159.324 529.66 161.964 514.506 160.35 499.503C158.736 484.5 152.933 470.254 143.604 458.394C154.751 444.221 160.812 426.712 160.812 408.681C160.812 390.649 154.751 373.141 143.604 358.967L143.604 358.967Z" fill="#F71735"/>
<path opacity="0.1" d="M9.49132e-05 408.681C-0.027667 426.717 6.03557 444.234 17.2073 458.394C7.87857 470.254 2.07543 484.5 0.461383 499.503C-1.15266 514.506 1.48754 529.66 8.08012 543.233C14.6727 556.806 24.9516 568.25 37.7416 576.257C50.5316 584.263 65.3164 588.509 80.4058 588.509C95.4952 588.509 110.28 584.263 123.07 576.257C135.86 568.25 146.139 556.806 152.732 543.233C159.324 529.66 161.964 514.506 160.35 499.503C158.736 484.5 152.933 470.254 143.604 458.394C154.381 444.713 9.49132e-05 399.656 9.49132e-05 408.681Z" fill="black"/>
<path d="M579.452 354.556L539.556 394.452L520.653 375.55L513.294 382.909L539.531 409.146L586.812 361.915L579.452 354.556Z" fill="#F71735"/>
<path d="M706.452 263.556L666.556 303.452L647.653 284.55L640.294 291.909L666.531 318.146L713.812 270.915L706.452 263.556Z" fill="#F71735"/>
<path d="M793.954 65.974L804.819 72.8638L798.223 60.8702C800.091 59.3794 802.403 58.5542 804.793 58.5252C804.851 58.5252 804.909 58.5257 804.968 58.5267C805.722 58.5389 806.477 58.4831 807.222 58.36L810.904 60.6949L809.325 57.8251C811.934 56.9153 814.188 55.2044 815.767 52.9366L822.357 57.1158L818.194 49.5463C822.047 44.9201 827.242 42.0835 832.959 42.0835C839.812 42.0835 845.916 46.1592 849.857 52.5094C851.022 54.4094 852.669 55.9674 854.631 57.0251C856.593 58.0829 858.799 58.6028 861.027 58.532C861.149 58.5275 861.272 58.5252 861.396 58.5252C868.961 58.5252 875.094 67.1031 875.094 77.6846C875.094 88.266 868.961 96.8439 861.396 96.8439C859.732 96.8377 858.094 96.4278 856.624 95.6493C854.049 94.3977 851.232 93.7205 848.37 93.6645C845.507 93.6086 842.666 94.1752 840.044 95.3252C837.828 96.3208 835.428 96.8383 832.999 96.8439C830.57 96.8495 828.167 96.3431 825.947 95.3578C823.345 94.2297 820.531 93.6743 817.696 93.7291C814.861 93.7839 812.07 94.4477 809.514 95.6755C808.056 96.4373 806.437 96.838 804.793 96.8439C797.227 96.8439 791.094 88.266 791.094 77.6846C791.05 73.6029 792.034 69.5758 793.954 65.974Z" fill="#F2F2F2"/>
<path d="M241.197 122.244L248.108 126.627L243.912 118.997C245.1 118.049 246.571 117.524 248.091 117.505C248.128 117.505 248.165 117.506 248.202 117.506C248.683 117.514 249.163 117.479 249.636 117.4L251.979 118.886L250.975 117.06C252.634 116.481 254.068 115.393 255.072 113.95L259.264 116.609L256.616 111.794C257.731 110.355 259.152 109.183 260.777 108.362C262.401 107.541 264.188 107.091 266.008 107.047C270.367 107.047 274.251 109.639 276.758 113.679C277.499 114.887 278.546 115.878 279.794 116.551C281.042 117.224 282.446 117.555 283.863 117.51C283.941 117.507 284.019 117.505 284.097 117.505C288.91 117.505 292.811 122.962 292.811 129.693C292.811 136.424 288.91 141.881 284.097 141.881C283.039 141.877 281.998 141.616 281.062 141.121C279.424 140.325 277.632 139.894 275.811 139.858C273.99 139.823 272.183 140.183 270.515 140.915C269.106 141.548 267.579 141.877 266.034 141.881C264.489 141.884 262.96 141.562 261.548 140.936C259.893 140.218 258.103 139.865 256.299 139.899C254.496 139.934 252.72 140.357 251.094 141.138C250.167 141.622 249.137 141.877 248.091 141.881C243.279 141.881 239.377 136.424 239.377 129.693C239.349 127.097 239.975 124.535 241.197 122.244Z" fill="#F2F2F2"/>
<path d="M55.1967 145.738L62.108 150.121L57.9118 142.492C59.1002 141.543 60.5709 141.018 62.0912 141C62.1283 141 62.1654 141 62.2024 141.001C62.6826 141.009 63.1625 140.973 63.6364 140.895L65.9785 142.38L64.9745 140.555C66.634 139.976 68.0681 138.888 69.072 137.445L73.2641 140.103L70.6157 135.288C71.731 133.85 73.1525 132.677 74.777 131.856C76.4015 131.035 78.1883 130.586 80.008 130.541C84.3674 130.541 88.2507 133.134 90.7576 137.173C91.4987 138.382 92.5464 139.373 93.7943 140.046C95.0422 140.719 96.446 141.049 97.863 141.004C97.9409 141.001 98.0191 141 98.0975 141C102.91 141 106.811 146.457 106.811 153.188C106.811 159.919 102.91 165.375 98.0975 165.375C97.0391 165.371 95.9976 165.111 95.0622 164.615C93.424 163.819 91.6324 163.388 89.8113 163.353C87.9902 163.317 86.1831 163.678 84.515 164.409C83.1058 165.043 81.5788 165.372 80.0338 165.375C78.4887 165.379 76.9603 165.057 75.5481 164.43C73.893 163.712 72.1029 163.359 70.2992 163.394C68.4955 163.429 66.7205 163.851 65.0943 164.632C64.1672 165.117 63.1372 165.372 62.0911 165.375C57.2785 165.375 53.3771 159.919 53.3771 153.188C53.3491 150.591 53.9749 148.029 55.1967 145.738Z" fill="#F2F2F2"/>
</g>
<defs>
<clipPath id="clip0">
<rect width="1006.81" height="762" fill="white"/>
</clipPath>
</defs>
</svg>
