<svg width="312" height="425" viewBox="0 0 312 425" fill="none" xmlns="http://www.w3.org/2000/svg">
<g clip-path="url(#clip0)">
<path d="M301.268 358.78C286.969 350.487 263.773 350.487 249.422 358.78C243.428 362.242 239.675 364.564 238.7 369.063V373.728C238.827 377.541 240.42 381.157 243.148 383.825L178.973 416.178V420.833L186.169 424.979H206.244L214.146 420.418V416.012L220.44 412.509L229.191 411.741L232.675 409.73L233.028 401.914L239.498 398.193L248.976 400.338L261.315 393.217C274.598 396.399 290.463 394.886 301.268 388.666C308.443 384.519 312.021 379.098 312 373.676V369.053C311.347 364.222 307.697 362.501 301.268 358.78ZM292.361 372.142C290.085 373.295 287.57 373.896 285.019 373.896C282.468 373.896 279.953 373.295 277.678 372.142C273.634 369.799 273.634 366.005 277.678 363.673C279.956 362.524 282.474 361.929 285.026 361.938C287.577 361.947 290.091 362.559 292.361 363.724C296.384 366.015 296.384 369.809 292.361 372.142Z" fill="#F71735"/>
<path opacity="0.2" d="M301.268 358.78C286.969 350.487 263.773 350.487 249.422 358.78C243.428 362.242 239.675 364.564 238.7 369.063V373.728C238.827 377.541 240.42 381.157 243.148 383.825L178.973 416.178V420.833L186.169 424.979H206.244L214.146 420.418V416.012L220.44 412.509L229.191 411.741L232.675 409.73L233.028 401.914L239.498 398.193L248.976 400.338L261.315 393.217C274.598 396.399 290.463 394.886 301.268 388.666C308.443 384.519 312.021 379.098 312 373.676V369.053C311.347 364.222 307.697 362.501 301.268 358.78ZM292.361 372.142C290.085 373.295 287.57 373.896 285.019 373.896C282.468 373.896 279.953 373.295 277.678 372.142C273.634 369.799 273.634 366.005 277.678 363.673C279.956 362.524 282.474 361.929 285.026 361.938C287.577 361.947 290.091 362.559 292.361 363.724C296.384 366.015 296.384 369.809 292.361 372.142Z" fill="black"/>
<path d="M301.268 354.125C286.969 345.832 263.773 345.832 249.422 354.125C237.673 360.894 235.589 371.136 243.148 379.16L178.973 416.178L186.159 420.325H206.234L214.135 415.774L213.606 411.627L220.429 407.823L229.181 407.056L232.665 405.045L233.018 397.229L239.488 393.497L248.965 395.643L261.305 388.531C274.588 391.714 290.453 390.2 301.258 383.97C315.567 375.77 315.567 362.387 301.268 354.125ZM292.361 367.487C290.087 368.64 287.574 369.241 285.024 369.241C282.475 369.241 279.962 368.64 277.688 367.487C273.634 365.145 273.634 361.351 277.688 359.018C279.962 357.865 282.475 357.264 285.024 357.264C287.574 357.264 290.087 357.865 292.361 359.018C296.384 361.351 296.384 365.145 292.361 367.487Z" fill="#F71735"/>
<path opacity="0.3" d="M301.268 354.125C286.969 345.832 263.773 345.832 249.422 354.125C237.673 360.894 235.589 371.136 243.148 379.16L178.973 416.178L186.159 420.325H206.234L214.135 415.774L213.606 411.627L220.429 407.823L229.181 407.056L232.665 405.045L233.018 397.229L239.488 393.497L248.965 395.643L261.305 388.531C274.588 391.714 290.453 390.2 301.258 383.97C315.567 375.77 315.567 362.387 301.268 354.125ZM292.361 367.487C290.087 368.64 287.574 369.241 285.024 369.241C282.475 369.241 279.962 368.64 277.688 367.487C273.634 365.145 273.634 361.351 277.688 359.018C279.962 357.865 282.475 357.264 285.024 357.264C287.574 357.264 290.087 357.865 292.361 359.018C296.384 361.351 296.384 365.145 292.361 367.487Z" fill="white"/>
<g opacity="0.2">
<path opacity="0.2" d="M238.845 370.4L275.003 364.844C274.038 362.833 274.92 360.583 277.657 359.008C279.931 357.855 282.444 357.254 284.993 357.254C287.543 357.254 290.056 357.855 292.33 359.008C293.5 359.614 294.448 360.576 295.036 361.755L308.236 359.733C306.253 357.475 303.896 355.574 301.268 354.115C300.853 353.876 300.407 353.659 299.982 353.441L240.514 362.584C239.152 364.95 238.568 367.684 238.845 370.4Z" fill="white"/>
<path opacity="0.2" d="M309.926 376.092C311.245 374.046 311.959 371.669 311.986 369.236C312.014 366.802 311.354 364.41 310.082 362.335L295.077 364.647C294.495 365.867 293.53 366.864 292.33 367.487C290.056 368.64 287.543 369.241 284.993 369.241C282.444 369.241 279.931 368.64 277.657 367.487L277.45 367.363L239.478 373.189C240.274 375.415 241.54 377.445 243.19 379.139L226.174 388.956L309.926 376.092Z" fill="white"/>
</g>
<path d="M275.355 385.991C266.303 385.991 257.852 383.991 251.506 380.352C246.031 377.19 242.889 373.096 242.889 369.042C242.889 364.989 246 360.905 251.516 357.743C257.81 354.115 266.261 352.125 275.314 352.125C284.366 352.125 292.817 354.136 299.111 357.764C304.586 360.936 307.728 365.02 307.728 369.074C307.728 373.127 304.617 377.211 299.101 380.373C292.859 384.001 284.408 385.991 275.355 385.991ZM275.355 353.441C266.531 353.441 258.308 355.369 252.221 358.883C247.151 361.807 244.248 365.507 244.248 369.042C244.248 372.577 247.151 376.299 252.211 379.212C258.298 382.736 266.521 384.675 275.345 384.675C284.169 384.675 292.361 382.747 298.489 379.274C303.56 376.361 306.463 372.65 306.463 369.115C306.463 365.58 303.56 361.859 298.499 358.946C292.413 355.431 284.19 353.451 275.366 353.441H275.355Z" fill="#F71735"/>
<path opacity="0.1" d="M288.535 388.79V393.445C279.554 395.387 270.255 395.316 261.305 393.238V388.604C270.257 390.671 279.555 390.735 288.535 388.79Z" fill="black"/>
<path opacity="0.1" d="M248.966 395.694V400.359L239.488 398.213V393.548L248.966 395.694Z" fill="black"/>
<path opacity="0.1" d="M233.018 397.28V401.945L232.665 409.751V405.097L233.018 397.28Z" fill="black"/>
<path opacity="0.1" d="M229.181 407.108V411.762L220.43 412.529V407.875L229.181 407.108Z" fill="black"/>
<path opacity="0.1" d="M206.234 420.335H186.159V425H206.234V420.335Z" fill="black"/>
<path opacity="0.15" d="M178.973 416.178L178.963 420.833L186.159 424.99V420.325L183.007 418.511V420.522L181.275 419.516V417.484L178.973 416.178Z" fill="black"/>
<path d="M181.275 417.484L183.007 418.511V420.522L181.275 419.516V417.484Z" fill="#F71735"/>
<path opacity="0.3" d="M181.275 417.484L183.007 418.511V420.522L181.275 419.516V417.484Z" fill="white"/>
<path d="M181.275 417.484V419.516L247.13 381.534L245.388 380.508L181.275 417.484Z" fill="#F71735"/>
<path opacity="0.15" d="M245.388 380.508V382.539L247.13 381.534L245.388 380.508Z" fill="black"/>
<path d="M0 54.1747C0 48.1207 4.27212 40.771 9.53969 37.7543C12.1735 36.2512 14.5377 36.1165 16.2589 37.1013L19.0586 38.7288C20.7799 39.7654 21.8376 41.8387 21.8272 44.8553C21.8272 50.8989 17.5344 58.2486 12.2875 61.2756C9.66411 62.7891 7.29993 62.9239 5.57864 61.9287L2.74784 60.2908C1.04729 59.2956 0 57.1809 0 54.1747Z" fill="#37474F"/>
<path d="M12.2873 61.2757C7.04044 64.3026 2.78906 61.8458 2.78906 55.7919C2.78906 49.7379 7.05081 42.3882 12.3288 39.3715C17.6067 36.3549 21.8477 38.8118 21.827 44.8554C21.8062 50.8989 17.5756 58.2487 12.2873 61.2757Z" fill="#455A64"/>
<path d="M12.2875 58.9536C8.13979 61.3378 4.79053 59.3993 4.79053 54.6204C4.93361 52.0185 5.6902 49.4873 6.99853 47.2335C8.30686 44.9797 10.1298 43.0672 12.3186 41.6521C16.4663 39.2782 19.8363 41.2167 19.8156 45.9852C19.6676 48.586 18.9089 51.1153 17.601 53.3684C16.2931 55.6214 14.4728 57.5348 12.2875 58.9536Z" fill="#FAFAFA"/>
<path d="M12.889 50.2977L12.3083 42.865L11.7173 50.2977H12.889Z" fill="#F71735"/>
<path d="M12.298 51.7697C11.6136 52.1636 11.0537 51.8422 11.0537 51.044C11.077 50.6109 11.2029 50.1896 11.421 49.8147C11.6392 49.4398 11.9433 49.1221 12.3084 48.8878C13.0031 48.4835 13.5631 48.8153 13.5527 49.6031C13.5286 50.0374 13.4024 50.4599 13.1844 50.8363C12.9664 51.2127 12.6627 51.5325 12.298 51.7697Z" fill="#455A64"/>
<path d="M12.3081 49.9452L18.5608 43.6113L12.3081 50.8263V49.9452Z" fill="#455A64"/>
<path d="M221.384 282.608C214.643 275.652 210.682 247.362 217.236 241.816H250.708C257.282 247.331 253.331 275.641 246.56 282.597L246.373 282.794L246.145 283.022L245.533 283.572L245.368 283.696L244.86 284.08C244.569 284.287 244.279 284.484 243.988 284.65C238.441 287.884 229.472 287.884 223.903 284.65C223.613 284.484 223.323 284.287 223.032 284.08C222.742 283.872 222.711 283.841 222.555 283.717L222.358 283.561L221.767 283.033L221.498 282.763L221.384 282.608Z" fill="#455A64"/>
<path d="M247.825 239.598C255.457 244.055 255.457 251.28 247.825 255.738C240.194 260.196 227.802 260.196 220.171 255.738C212.539 251.28 212.528 244.055 220.171 239.598C227.813 235.14 240.183 235.182 247.825 239.598Z" fill="#455A64"/>
<g opacity="0.1">
<path opacity="0.1" d="M247.825 239.598C255.457 244.055 255.457 251.28 247.825 255.738C240.194 260.196 227.802 260.196 220.171 255.738C212.539 251.28 212.528 244.055 220.171 239.598C227.813 235.14 240.183 235.182 247.825 239.598Z" fill="white"/>
</g>
<path d="M244.154 241.733C249.754 245.009 249.754 250.316 244.154 253.592C238.555 256.868 229.451 256.868 223.841 253.592C218.231 250.316 218.231 245.009 223.841 241.733C229.451 238.457 238.545 238.468 244.154 241.733Z" fill="#263238"/>
<path d="M223.841 247.362C229.451 244.086 238.545 244.086 244.154 247.362C245.514 248.106 246.668 249.174 247.514 250.472C246.666 251.768 245.512 252.836 244.154 253.582C238.545 256.858 229.451 256.858 223.841 253.582C222.484 252.836 221.33 251.768 220.481 250.472C221.328 249.174 222.482 248.106 223.841 247.362Z" fill="#F5F5F5"/>
<path d="M249.007 189.57L236.305 199.646L248.592 193.975C248.564 197.951 247.841 201.89 246.456 205.617C243.096 207.62 239.897 209.879 236.885 212.376L246.311 208.654C246.311 208.654 246.954 214.874 244.372 224.328C243.698 226.806 240.909 231.584 239.187 235.078C238.36 236.731 237.417 238.325 236.367 239.846C236.312 239.944 236.25 240.038 236.18 240.126C234.024 238.903 231.794 237.701 229.472 236.55C227.958 233.367 225.977 225.499 225.262 219.062C222.555 194.411 241.199 180.281 256.193 175.523C252.983 179.742 250.55 184.498 249.007 189.57Z" fill="#F71735"/>
<path opacity="0.1" d="M249.007 189.57L236.305 199.646L248.592 193.975C248.564 197.951 247.841 201.89 246.456 205.617C243.096 207.62 239.897 209.879 236.885 212.376L246.311 208.654C246.311 208.654 246.954 214.874 244.372 224.328C243.698 226.806 240.909 231.584 239.187 235.078C238.36 236.731 237.417 238.325 236.367 239.846C236.312 239.944 236.25 240.038 236.18 240.126C234.024 238.903 231.794 237.701 229.472 236.55C227.958 233.367 225.977 225.499 225.262 219.062C222.555 194.411 241.199 180.281 256.193 175.523C252.983 179.742 250.55 184.498 249.007 189.57Z" fill="black"/>
<path d="M238.441 190.606C235.978 193.314 234.172 196.553 233.163 200.071C232.024 203.534 231.266 207.11 230.902 210.738C230.099 217.986 231.023 225.321 233.598 232.144C233.616 232.188 233.625 232.234 233.625 232.281C233.624 232.328 233.613 232.375 233.594 232.417C233.575 232.46 233.546 232.499 233.512 232.53C233.477 232.562 233.436 232.585 233.391 232.6C233.304 232.634 233.208 232.633 233.122 232.596C233.037 232.559 232.969 232.49 232.935 232.403C230.433 225.458 229.616 218.019 230.55 210.696C230.971 207.059 231.788 203.479 232.987 200.019C234.169 196.608 235.745 193.187 238.441 190.606Z" fill="#FAFAFA"/>
<path d="M197.928 208.229C202.072 213.384 205.905 218.78 209.407 224.39L220.554 226.184L212.331 227.614L216.748 234.601L227.709 236.871L219.154 238.291C219.154 238.291 221.539 246.647 227.667 250.13C231.048 252.048 232.707 252.338 233.713 251.374C234.428 250.7 234.594 246.699 235.185 243.081C236.003 237.459 235.046 231.723 232.447 226.671C231.532 224.785 230.352 223.039 228.943 221.488C220.813 212.5 205.508 208.146 197.928 208.229Z" fill="#F71735"/>
<path d="M209.583 211.899C215.442 214.342 220.723 217.986 225.086 222.597C227.25 224.932 229.038 227.59 230.384 230.475C231.697 233.37 232.517 236.464 232.811 239.629C232.219 236.553 231.24 233.564 229.897 230.734C228.558 227.905 226.835 225.275 224.774 222.918C220.523 218.27 215.368 214.538 209.625 211.951V211.888L209.583 211.899Z" fill="#FAFAFA"/>
<path d="M270.824 207.845C269.74 207.826 268.656 207.874 267.578 207.991C263.322 208.478 259.142 209.492 255.135 211.007C253.652 211.567 252.17 212.189 250.708 212.883C249.971 213.236 249.245 213.599 248.54 213.993C244.991 215.839 241.777 218.267 239.032 221.177C237.748 222.565 236.646 224.112 235.755 225.779C235.641 225.987 235.517 226.194 235.403 226.422C235.123 226.992 234.884 227.542 234.646 228.091C232.434 232.862 231.47 238.116 231.846 243.361C231.981 247.061 233.235 251.291 233.92 251.985C234.018 252.076 234.126 252.156 234.241 252.224C235.278 252.898 236.968 252.504 240.11 250.752C246.394 247.238 248.862 238.312 248.862 238.312L240.121 236.83L251.34 234.591L255.892 227.49L247.514 225.966L258.92 224.214C262.532 218.522 266.482 213.052 270.751 207.835L270.824 207.845Z" fill="#F71735"/>
<path opacity="0.2" d="M267.578 207.991C263.322 208.478 259.142 209.492 255.135 211.007C253.652 211.567 252.17 212.189 250.708 212.884C249.971 213.236 249.245 213.599 248.54 213.993C244.991 215.839 241.777 218.267 239.032 221.177C237.748 222.565 236.646 224.112 235.755 225.779C235.641 225.987 235.517 226.194 235.403 226.422C235.123 226.992 234.884 227.542 234.646 228.091C232.434 232.862 231.47 238.116 231.846 243.361C231.981 247.061 233.235 251.291 233.92 251.985C234.018 252.076 234.126 252.156 234.241 252.224C234.451 252.351 234.683 252.435 234.926 252.473C234.158 246.74 236.999 232.196 241.251 226.215C245.689 219.995 256.234 210.966 270.731 207.856C269.678 207.836 268.625 207.881 267.578 207.991Z" fill="black"/>
<path d="M118.53 82.4437L117.379 83.1278L93.7686 69.4961L94.9195 68.8119L118.53 82.4437Z" fill="#FAFAFA"/>
<path d="M94.9199 68.8119L117.38 81.7699V58.259L94.9199 45.301V68.8119Z" fill="white"/>
<path d="M91.6016 70.7505L119.598 86.8909V57.0047L91.6016 40.8746V70.7505ZM93.7687 44.6273L117.379 58.259V83.1383L93.7687 69.5065V44.6273Z" fill="#EBEBEB"/>
<path d="M93.7686 69.4962L94.9196 68.812V45.3011L93.7686 44.6273V69.4962Z" fill="#E0E0E0"/>
<path d="M91.6016 40.8746L92.7629 40.2008L120.718 56.3412L119.557 57.0047L91.6016 40.8746Z" fill="#F5F5F5"/>
<path d="M120.718 56.3412L119.557 57.0046V86.8909L120.718 86.217V56.3412Z" fill="#E0E0E0"/>
<path d="M95.8008 68.1071L116.508 80.0595V74.0885L111.324 62.1361L108.099 65.1216L109.26 70.1285L102.116 54.8485L95.8008 62.1361V68.1071Z" fill="#F0F0F0"/>
<path d="M108.295 56.362C108.742 56.6521 109.114 57.0437 109.381 57.5049C109.648 57.9661 109.802 58.4838 109.83 59.0157C109.83 59.9902 109.146 60.3841 108.295 59.8969C107.849 59.6062 107.478 59.2144 107.211 58.7533C106.944 58.2923 106.79 57.7749 106.761 57.2431C106.75 56.2687 107.456 55.8436 108.295 56.362Z" fill="#F0F0F0"/>
<path d="M118.53 42.243L117.379 42.9271L93.7686 29.3058L94.9195 28.6112L118.53 42.243Z" fill="#FAFAFA"/>
<path d="M94.9199 28.6111L117.38 41.5795V18.0582L94.9199 5.1106V28.6111Z" fill="white"/>
<path d="M91.6016 30.5497L119.598 46.6901V16.8039L91.6016 0.673828V30.5497ZM93.7687 4.43682L117.379 18.0582V42.9375L93.7687 29.3057V4.43682Z" fill="#EBEBEB"/>
<path d="M93.7686 29.3058L94.9196 28.6112V5.1107L93.7686 4.43689V29.3058Z" fill="#E0E0E0"/>
<path d="M91.6016 0.673811L92.7629 0L120.718 16.1404L119.557 16.8039L91.6016 0.673811Z" fill="#F5F5F5"/>
<path d="M120.718 16.1404L119.557 16.8038V46.69L120.718 46.0162V16.1404Z" fill="#E0E0E0"/>
<path d="M95.8008 27.9166L116.508 39.8691V33.8877L111.324 21.9353L108.099 24.9208L109.26 29.9381L102.116 14.6477L95.8008 21.9353V27.9166Z" fill="#F0F0F0"/>
<path d="M108.296 16.1612C108.748 16.4478 109.126 16.8379 109.399 17.2993C109.671 17.7607 109.829 18.2802 109.861 18.8149C109.861 19.7894 109.177 20.1937 108.327 19.6961C107.874 19.411 107.495 19.0229 107.221 18.5635C106.947 18.1041 106.786 17.5864 106.75 17.0527C106.75 16.0679 107.456 15.6739 108.296 16.1612Z" fill="#F0F0F0"/>
<path d="M156.471 104.317L155.32 105.011L131.699 91.3794L132.85 90.6953L156.471 104.317Z" fill="#FAFAFA"/>
<path d="M132.851 90.6952L155.321 103.653V80.1423L132.851 67.1843V90.6952Z" fill="white"/>
<path d="M129.563 92.6338L157.56 108.764V78.888L129.563 62.7476V92.6338ZM131.73 66.5105L155.351 80.1423V105.022L131.741 91.3898L131.73 66.5105Z" fill="#EBEBEB"/>
<path d="M131.699 91.3794L132.85 90.6952V67.1843L131.699 66.5105V91.3794Z" fill="#E0E0E0"/>
<path d="M129.532 62.7476L130.704 62.0841L158.659 78.2142L157.488 78.888L129.532 62.7476Z" fill="#F5F5F5"/>
<path d="M158.66 78.2141L157.488 78.8879V108.764L158.66 108.1V78.2141Z" fill="#E0E0E0"/>
<path d="M133.731 89.9904L154.439 101.943V95.9614L149.265 84.0194L146.04 87.0049L147.191 92.0118L140.046 76.7214L133.731 84.0194V89.9904Z" fill="#F0F0F0"/>
<path d="M146.226 78.2453C146.674 78.5348 147.046 78.9263 147.313 79.3876C147.58 79.8489 147.733 80.3669 147.761 80.8991C147.761 81.8735 147.077 82.2674 146.226 81.7802C145.783 81.4877 145.413 81.0953 145.149 80.6344C144.884 80.1736 144.731 79.6571 144.702 79.1264C144.702 78.152 145.387 77.7581 146.226 78.2453Z" fill="#F0F0F0"/>
<path d="M156.471 64.1263L155.32 64.8105L131.699 51.1787L132.85 50.4945L156.471 64.1263Z" fill="#FAFAFA"/>
<path d="M132.851 50.4945L155.321 63.4525V39.9416L132.851 26.9836V50.4945Z" fill="white"/>
<path d="M129.563 52.4331L157.56 68.5735V38.6873L129.563 22.5573V52.4331ZM131.73 26.3099L155.351 39.9416V64.8209L131.709 51.1788L131.73 26.3099Z" fill="#EBEBEB"/>
<path d="M131.699 51.1788L132.85 50.4946V26.9838L131.699 26.3099V51.1788Z" fill="#E0E0E0"/>
<path d="M129.532 22.5572L130.704 21.8834L158.659 38.0238L157.488 38.6873L129.532 22.5572Z" fill="#F5F5F5"/>
<path d="M158.66 38.0238L157.488 38.6873V68.5735L158.66 67.8997V38.0238Z" fill="#E0E0E0"/>
<path d="M133.731 49.7897L154.439 61.7421V55.7711L150.022 45.5602L146.745 47.9134L147.543 53.2935L142.265 36.7903L139.663 45.5602L136.417 39.2782L133.731 43.8187V49.7897Z" fill="#F0F0F0"/>
<path d="M147.761 39.4855C148.202 39.7791 148.568 40.1722 148.829 40.6332C149.091 41.0942 149.24 41.6101 149.265 42.1393C149.265 43.1137 148.58 43.5077 147.73 43.0204C147.284 42.7297 146.912 42.3379 146.645 41.8769C146.379 41.4158 146.225 40.8984 146.195 40.3667C146.226 39.3922 146.921 38.9983 147.761 39.4855Z" fill="#F0F0F0"/>
<path d="M37.4019 103.145L38.9572 104.078L63.2213 90.0733L61.6659 89.1403L37.4019 103.145Z" fill="#FAFAFA"/>
<path d="M61.6657 89.1403L38.957 102.243V19.9966L61.6657 6.90393V89.1403Z" fill="white"/>
<path d="M66.1555 0.901855L36.0225 18.307V109.158L66.1555 91.763V0.901855ZM63.2002 90.0525L38.9362 104.057V19.9967L63.2002 5.99174V90.0525Z" fill="#F0F0F0"/>
<path d="M63.2209 90.0734L61.6655 89.1404V6.90406L63.2209 5.99182V90.0734Z" fill="#E0E0E0"/>
<path d="M66.1556 0.912237L64.5794 0L34.436 17.4051L36.0122 18.307L66.1556 0.912237Z" fill="#FAFAFA"/>
<path d="M34.436 17.4052L36.0122 18.307V109.158L34.436 108.256V17.4052Z" fill="#E0E0E0"/>
<path d="M59.3949 87.3262L41.228 97.8066V22.7438L59.3949 12.2634V87.3262Z" fill="#F0F0F0"/>
<path d="M59.3949 87.3262L41.228 97.8066V22.7438L59.3949 12.2634V87.3262Z" fill="#F0F0F0"/>
<path d="M41.228 72.7718C41.8902 72.5251 42.5965 72.4192 43.3019 72.4609C47.2007 72.7096 48.0925 74.0469 51.3899 75.8196C53.4637 76.9288 56.0664 74.9073 59.3742 74.7829V87.2951L55.942 89.3373C54.0444 89.6276 52.5616 88.1555 51.1514 86.6835C48.7561 84.1748 48.7354 81.1893 43.6233 81.7698C42.8456 81.8528 41.8813 82.8065 41.2799 84.1541L41.228 72.7718Z" fill="#FAFAFA"/>
<path d="M41.228 54.0812C47.0037 52.3811 45.272 55.377 49.399 51.1372C52.7171 47.7266 54.2829 42.9892 55.382 38.3555C56.4812 33.7217 57.2174 28.9324 59.3223 24.6615C59.3223 24.6615 59.3742 24.5786 59.3949 24.5267V59.0467C59.0775 59.5467 58.7312 60.0278 58.358 60.4876C54.5836 64.7586 51.9394 66.4794 47.7503 65.4117C44.9609 64.7067 43.924 62.3017 41.1865 65.2873L41.228 54.0812Z" fill="#FAFAFA"/>
<path d="M41.228 36.9146C43.4563 34.9447 45.1497 32.443 46.1505 29.6426C47.1513 26.8422 47.427 23.8342 46.9518 20.8986C46.8689 20.4632 46.7756 20.0382 46.6615 19.6132L52.0017 16.5033C51.9602 17.1529 51.9291 17.806 51.9083 18.4625C51.8047 22.2463 51.9084 26.0922 51.0892 29.7826C49.679 36.0024 50.0522 38.8324 44.3699 41.7557C43.3691 42.2725 42.3289 42.7092 41.2591 43.0619L41.228 36.9146Z" fill="#FAFAFA"/>
</g>
<defs>
<clipPath id="clip0">
<rect width="312" height="425" fill="white"/>
</clipPath>
</defs>
</svg>
