<svg width="331" height="332" viewBox="0 0 331 332" fill="none" xmlns="http://www.w3.org/2000/svg">
<path d="M164.871 322.737C251.013 322.737 320.845 282.298 320.845 232.413C320.845 182.529 251.013 142.089 164.871 142.089C78.7288 142.089 8.89697 182.529 8.89697 232.413C8.89697 282.298 78.7288 322.737 164.871 322.737Z" fill="#FFD6D6"/>
<path d="M254.446 263.754C244.218 257.831 244.218 248.23 254.446 242.307C264.674 236.384 281.257 236.384 291.485 242.307C301.713 248.23 301.713 257.831 291.485 263.754C281.257 269.677 264.674 269.677 254.446 263.754Z" fill="#E0E0E0"/>
<path d="M46.4196 264.577L19.5159 249C17.9999 248.124 17.9999 246.696 19.5159 245.819L176.006 155.197C176.857 154.764 177.797 154.539 178.75 154.539C179.703 154.539 180.644 154.764 181.494 155.197L208.404 170.774C209.92 171.651 209.92 173.078 208.404 173.955L51.9142 264.577C51.0625 265.01 50.1214 265.235 49.1669 265.235C48.2123 265.235 47.2712 265.01 46.4196 264.577Z" fill="#E0E0E0"/>
<path d="M143.124 236.809L166.254 223.396C168.637 222.015 169.829 220.209 169.829 218.396C169.829 216.583 169.829 215.169 169.829 215.169L145.838 201.597C145.168 201.162 144.61 200.575 144.209 199.882C143.809 199.19 143.578 198.412 143.534 197.613V169.001L103.152 192.414V221.012C103.199 221.811 103.432 222.587 103.832 223.279C104.232 223.971 104.788 224.559 105.456 224.996L125.872 236.789C130.625 239.571 138.357 239.571 143.124 236.809Z" fill="#F71735"/>
<g opacity="0.6">
<path opacity="0.6" d="M143.124 236.809L166.254 223.396C168.637 222.015 169.829 220.209 169.829 218.396C169.829 216.583 169.829 215.169 169.829 215.169L145.838 201.597C145.168 201.162 144.61 200.575 144.209 199.882C143.809 199.19 143.578 198.412 143.534 197.613V169.001L103.152 192.414V221.012C103.199 221.811 103.432 222.587 103.832 223.279C104.232 223.971 104.788 224.559 105.456 224.996L125.872 236.789C130.625 239.571 138.357 239.571 143.124 236.809Z" fill="black"/>
</g>
<path opacity="0.3" d="M112.838 226.079V229.293L105.437 225.01C104.769 224.573 104.213 223.985 103.814 223.293C103.415 222.601 103.184 221.824 103.14 221.026V192.414L110.832 187.958C110.991 189.917 111.163 191.942 111.329 193.934L105.92 197.055V219.399C105.963 220.198 106.194 220.976 106.594 221.669C106.995 222.361 107.553 222.949 108.224 223.383L112.838 226.079Z" fill="black"/>
<path d="M105.92 219.405C105.965 220.204 106.198 220.981 106.598 221.673C106.998 222.365 107.555 222.953 108.224 223.389L125.846 233.575C130.613 236.331 138.345 236.337 143.118 233.575L166.288 220.162C171.061 217.4 171.061 212.925 166.288 210.163L148.652 199.977C147.985 199.539 147.43 198.951 147.031 198.259C146.632 197.567 146.4 196.791 146.355 195.993V173.643L105.973 197.055L105.92 219.405Z" fill="#F71735"/>
<path opacity="0.3" d="M105.92 219.405C105.965 220.204 106.198 220.981 106.598 221.673C106.998 222.365 107.555 222.953 108.224 223.389L125.846 233.575C130.613 236.331 138.345 236.337 143.118 233.575L166.288 220.162C171.061 217.4 171.061 212.925 166.288 210.163L148.652 199.977C147.985 199.539 147.43 198.951 147.031 198.259C146.632 197.567 146.4 196.791 146.355 195.993V173.643L105.973 197.055L105.92 219.405Z" fill="black"/>
<path opacity="0.5" d="M153.318 202.706L148.624 199.99C147.957 199.553 147.402 198.964 147.003 198.273C146.604 197.581 146.373 196.804 146.327 196.006V173.643L105.945 197.055V219.406C105.991 220.204 106.223 220.981 106.623 221.673C107.023 222.365 107.58 222.953 108.249 223.39L112.883 226.046L153.318 202.706Z" fill="black"/>
<path d="M169.835 215.176V218.403C169.835 220.216 168.637 222.015 166.261 223.403L143.091 236.809C140.555 238.166 137.723 238.871 134.849 238.861V235.647C137.723 235.658 140.555 234.953 143.091 233.595L166.261 220.176C168.637 218.801 169.835 216.989 169.835 215.176Z" fill="#F71735"/>
<path opacity="0.5" d="M169.835 215.176V218.403C169.835 220.216 168.637 222.015 166.261 223.403L143.091 236.809C140.555 238.166 137.723 238.871 134.849 238.861V235.647C137.723 235.658 140.555 234.953 143.091 233.595L166.261 220.176C168.637 218.801 169.835 216.989 169.835 215.176Z" fill="black"/>
<path d="M41.0435 247.181C41.9165 247.604 42.8763 247.815 43.8457 247.798C44.815 247.78 45.7667 247.535 46.6242 247.081L202.856 156.611C203.694 156.063 204.391 155.325 204.891 154.456C205.392 153.587 205.681 152.613 205.736 151.611V24.8402C205.706 23.8657 205.447 22.9121 204.98 22.057C204.513 21.202 203.851 20.4697 203.048 19.92C202.176 19.4966 201.217 19.2855 200.248 19.304C199.28 19.3224 198.329 19.5699 197.474 20.0262L41.2421 110.523C40.4073 111.074 39.7143 111.816 39.2196 112.687C38.7249 113.558 38.4425 114.534 38.3955 115.536V242.287C38.425 243.253 38.68 244.199 39.1398 245.049C39.5997 245.899 40.2517 246.629 41.0435 247.181Z" fill="#F71735"/>
<path d="M46.6443 247.074L202.876 156.604C203.715 156.058 204.413 155.32 204.914 154.451C205.414 153.582 205.703 152.607 205.756 151.605V24.8403C205.756 23.001 204.465 22.2507 202.876 23.1736L46.6443 113.644C45.8063 114.191 45.1087 114.929 44.6084 115.798C44.108 116.667 43.819 117.642 43.7646 118.644V245.408C43.7646 247.247 45.0555 247.997 46.6443 247.074Z" fill="#F71735"/>
<path opacity="0.5" d="M46.6443 247.074L202.876 156.604C203.715 156.058 204.413 155.32 204.914 154.451C205.414 153.582 205.703 152.607 205.756 151.605V24.8403C205.756 23.001 204.465 22.2507 202.876 23.1736L46.6443 113.644C45.8063 114.191 45.1087 114.929 44.6084 115.798C44.108 116.667 43.819 117.642 43.7646 118.644V245.408C43.7646 247.247 45.0555 247.997 46.6443 247.074Z" fill="black"/>
<path d="M46.2203 250.368C45.4011 250.726 44.514 250.903 43.6203 250.884C42.7266 250.866 41.8475 250.654 41.0435 250.262C40.2499 249.709 39.5968 248.977 39.1369 248.124C38.6769 247.272 38.423 246.323 38.3955 245.355V233.814L43.7908 236.948V248.489C43.7577 250.169 44.8235 250.932 46.2203 250.368Z" fill="#F71735"/>
<path opacity="0.5" d="M46.2203 250.368C45.4011 250.726 44.514 250.903 43.6203 250.884C42.7266 250.866 41.8475 250.654 41.0435 250.262C40.2499 249.709 39.5968 248.977 39.1369 248.124C38.6769 247.272 38.423 246.323 38.3955 245.355V233.814L43.7908 236.948V248.489C43.7577 250.169 44.8235 250.932 46.2203 250.368Z" fill="black"/>
<path d="M43.7578 236.948V248.489C43.7578 250.328 45.0818 251.072 46.6375 250.155L202.87 159.685C203.704 159.14 204.399 158.406 204.899 157.542C205.399 156.678 205.69 155.709 205.749 154.712V143.119L43.7578 236.948Z" fill="#F71735"/>
<path opacity="0.3" d="M43.7646 236.922V248.489C43.7646 250.328 45.0886 251.072 46.6443 250.155L202.876 159.685C203.709 159.139 204.403 158.405 204.902 157.541C205.401 156.677 205.691 155.708 205.749 154.712V143.119L43.7646 236.922Z" fill="black"/>
<path d="M49.1602 222.44V120.443C49.191 119.842 49.3629 119.257 49.6621 118.735C49.9612 118.214 50.379 117.77 50.8814 117.442L198.6 31.8719C199.553 31.3208 200.328 31.7657 200.328 32.8679V134.918C200.296 135.52 200.123 136.105 199.822 136.626C199.522 137.148 199.103 137.591 198.6 137.919L50.888 223.469C49.9347 224.02 49.1602 223.569 49.1602 222.44Z" fill="#F71735"/>
<path d="M49.1602 222.44V120.443C49.191 119.842 49.3629 119.257 49.6621 118.735C49.9612 118.214 50.379 117.77 50.8814 117.442L198.6 31.8719C199.553 31.3208 200.328 31.7657 200.328 32.8679V134.918C200.296 135.52 200.123 136.105 199.822 136.626C199.522 137.148 199.103 137.591 198.6 137.919L50.888 223.469C49.9347 224.02 49.1602 223.569 49.1602 222.44Z" fill="#011627"/>
<path d="M124.754 193.709C123.967 194.222 123.313 194.914 122.844 195.728C122.374 196.543 122.103 197.457 122.053 198.396C122.053 200.123 123.264 200.827 124.754 199.964C125.541 199.45 126.196 198.757 126.665 197.941C127.135 197.125 127.405 196.21 127.455 195.269C127.455 193.543 126.243 192.845 124.754 193.709Z" fill="#F71735"/>
<path opacity="0.7" d="M44.6117 115.788C44.0986 116.653 43.8054 117.632 43.7577 118.637V236.948L38.3955 233.814V115.536C38.4302 114.527 38.722 113.544 39.2429 112.681L44.6117 115.788Z" fill="black"/>
<path opacity="0.3" d="M205.723 24.3621C205.517 22.8748 204.319 22.3701 202.869 23.1736L46.6374 113.644C45.7903 114.175 45.0911 114.913 44.605 115.788L39.2031 112.661C39.6925 111.786 40.3937 111.048 41.2421 110.516L197.474 20.0528C198.331 19.5964 199.282 19.3489 200.252 19.3305C201.221 19.312 202.182 19.5231 203.055 19.9465C203.789 20.4481 204.407 21.1018 204.867 21.8636C205.327 22.6254 205.619 23.4774 205.723 24.3621Z" fill="black"/>
<path d="M214.149 39.966C213.917 39.8492 213.657 39.798 213.398 39.8179C213.14 39.8378 212.891 39.928 212.679 40.0789L65.265 125.496C64.6834 125.882 64.2005 126.4 63.8554 127.008C63.5104 127.616 63.3129 128.296 63.279 128.995V230.368C63.2584 230.71 63.3261 231.052 63.4757 231.36C63.6253 231.669 63.8517 231.933 64.133 232.128C64.4574 232.307 66.1918 233.316 66.7082 233.595C66.8909 233.688 67.095 233.731 67.2997 233.72C67.5044 233.708 67.7023 233.642 67.8733 233.529L215.254 148.112C215.836 147.726 216.319 147.208 216.664 146.6C217.009 145.992 217.206 145.311 217.24 144.612V42.715C217.27 42.4575 217.227 42.1968 217.118 41.9623C217.008 41.7277 216.835 41.5285 216.618 41.387C216.287 41.1679 214.52 40.1852 214.149 39.966Z" fill="#F71735"/>
<path d="M67.8415 126.93L215.262 41.5464C216.374 40.8824 217.248 41.4269 217.248 42.7151V144.613C217.214 145.311 217.017 145.992 216.672 146.6C216.327 147.208 215.844 147.726 215.262 148.112L67.8415 233.529C66.7293 234.193 65.8555 233.124 65.8555 231.836V130.429C65.8904 129.731 66.0883 129.051 66.4333 128.443C66.7782 127.835 67.2605 127.317 67.8415 126.93Z" fill="#FAFAFA"/>
<path d="M216.163 41.9316C216.553 41.9316 216.613 42.4229 216.613 42.7151V144.613C216.577 145.198 216.406 145.766 216.113 146.273C215.82 146.781 215.413 147.212 214.925 147.534L67.5237 232.951C67.4248 233.015 67.3105 233.052 67.1927 233.057C66.822 233.057 66.5307 232.486 66.5307 231.836V130.429C66.5627 129.845 66.7286 129.275 67.0156 128.765C67.3026 128.255 67.703 127.818 68.1857 127.488L215.593 42.1175C215.764 42.0071 215.96 41.9431 216.163 41.9316ZM216.163 41.2676C215.844 41.2812 215.533 41.3773 215.262 41.5465L67.8415 126.93C67.2605 127.317 66.7782 127.835 66.4333 128.443C66.0883 129.051 65.8904 129.731 65.8555 130.429V231.836C65.8555 232.858 66.4248 233.721 67.1795 233.721C67.4132 233.717 67.6416 233.65 67.8415 233.529L215.256 148.112C215.837 147.726 216.32 147.208 216.665 146.6C217.01 145.992 217.208 145.311 217.242 144.613V42.7151C217.242 41.7988 216.791 41.2676 216.13 41.2676H216.163Z" fill="#E0E0E0"/>
<path d="M64.0944 232.128C64.3129 232.241 65.8818 233.137 66.5703 233.535C66.3231 233.33 66.1273 233.069 65.9985 232.774C65.8698 232.479 65.8117 232.157 65.8289 231.836V137.05L63.2471 135.536V230.368C63.2257 230.71 63.2924 231.051 63.4408 231.359C63.5893 231.667 63.8144 231.932 64.0944 232.128Z" fill="#FFD6D6"/>
<path d="M217.275 42.6952C217.275 41.4203 216.368 40.9024 215.289 41.5465L67.8415 126.93C67.2605 127.317 66.7782 127.835 66.4333 128.443C66.0883 129.051 65.8904 129.731 65.8555 130.43V137.07L217.275 49.3352V42.6952Z" fill="#F71735"/>
<g opacity="0.4">
<path opacity="0.4" d="M215.262 41.5465L67.8409 126.924C67.2493 127.298 66.7619 127.816 66.4242 128.431L63.8623 126.937C64.1993 126.344 64.6826 125.848 65.2657 125.496L212.68 40.079C212.891 39.9271 213.139 39.8357 213.398 39.8146C213.657 39.7936 213.917 39.8437 214.15 39.9595C214.507 40.1853 216.182 41.1348 216.612 41.3672C216.39 41.2844 216.15 41.2575 215.915 41.2887C215.679 41.3199 215.455 41.4084 215.262 41.5465Z" fill="#FFD6D6"/>
</g>
<path opacity="0.15" d="M63.2471 135.542V128.962C63.2743 128.245 63.4864 127.547 63.8627 126.937L66.4313 128.424C66.0603 129.024 65.8526 129.711 65.8289 130.416V137.056L63.2471 135.542Z" fill="black"/>
<path d="M186.187 119.135L97.8962 170.263C97.4668 170.542 97.1093 170.919 96.8528 171.364C96.5963 171.808 96.4479 172.307 96.4199 172.819V198.211C96.4479 198.723 96.5963 199.222 96.8528 199.666C97.1093 200.11 97.4668 200.488 97.8962 200.767L100.471 202.254C100.929 202.487 101.435 202.608 101.948 202.608C102.461 202.608 102.966 202.487 103.424 202.254L191.702 151.126C192.131 150.846 192.489 150.467 192.745 150.022C193.002 149.576 193.15 149.077 193.178 148.563V123.165C193.15 122.653 193.002 122.154 192.745 121.71C192.488 121.266 192.131 120.888 191.702 120.609L189.12 119.122C188.664 118.893 188.161 118.775 187.652 118.778C187.142 118.78 186.641 118.902 186.187 119.135Z" fill="#F71735"/>
<path opacity="0.5" d="M193.177 122.94C193.072 122.176 192.456 121.897 191.714 122.329L103.423 173.457C102.988 173.728 102.63 174.108 102.384 174.559L96.8564 171.359C97.1042 170.914 97.4593 170.54 97.8892 170.27L186.187 119.142C186.643 118.909 187.148 118.788 187.66 118.788C188.172 118.788 188.676 118.909 189.133 119.142L191.714 120.629C192.108 120.888 192.442 121.228 192.694 121.626C192.947 122.024 193.111 122.472 193.177 122.94Z" fill="#FFD6D6"/>
<path d="M103.172 202.381C102.74 202.552 102.277 202.629 101.812 202.609C101.348 202.588 100.894 202.47 100.478 202.261L97.8962 200.774C97.4676 200.494 97.1106 200.116 96.8542 199.672C96.5978 199.228 96.449 198.73 96.4199 198.217V172.826C96.4398 172.308 96.5901 171.803 96.8568 171.359L102.385 174.559C102.116 174.998 101.965 175.499 101.948 176.013V201.411C101.948 202.254 102.477 202.646 103.172 202.381Z" fill="#011627"/>
<path d="M103.424 173.457L191.715 122.329C192.529 121.857 193.191 122.236 193.191 123.179V148.577C193.163 149.09 193.015 149.59 192.758 150.035C192.502 150.48 192.144 150.859 191.715 151.14L103.437 202.268C102.623 202.739 101.961 202.354 101.961 201.411V176.02C101.988 175.507 102.134 175.008 102.388 174.563C102.642 174.118 102.997 173.739 103.424 173.457Z" fill="#F71735"/>
<path d="M162.779 132.694L97.9028 170.269C97.473 170.54 97.1179 170.914 96.8701 171.358L102.398 174.559C102.644 174.108 103.002 173.728 103.437 173.457L168.313 135.888L162.779 132.694Z" fill="#455A64"/>
<path d="M168.3 135.888L103.424 173.457C102.994 173.738 102.637 174.116 102.38 174.561C102.124 175.007 101.975 175.506 101.947 176.02V201.404C101.947 202.347 102.609 202.732 103.424 202.261L168.3 164.692V135.888Z" fill="#37474F"/>
<path d="M118.385 170.362L151.862 150.98C153.246 150.177 154.371 150.748 154.371 152.255C154.309 153.102 154.049 153.922 153.612 154.649C153.175 155.375 152.573 155.989 151.855 156.438L118.385 175.827C117.001 176.631 115.869 176.06 115.869 174.552C115.932 173.705 116.192 172.884 116.629 172.157C117.066 171.429 117.667 170.814 118.385 170.362Z" fill="#F71735"/>
<path d="M125.243 176.783C125.249 176.776 125.257 176.771 125.265 176.767C125.274 176.763 125.283 176.761 125.293 176.761C125.302 176.761 125.311 176.763 125.32 176.767C125.328 176.771 125.336 176.776 125.342 176.783C125.372 176.828 125.386 176.882 125.382 176.936V180.714C125.382 181.079 125.351 181.444 125.289 181.803C125.235 182.132 125.141 182.453 125.011 182.759C124.893 183.04 124.737 183.304 124.548 183.543C124.362 183.765 124.137 183.951 123.886 184.094C123.689 184.223 123.459 184.292 123.224 184.293C123.134 184.286 123.047 184.261 122.967 184.218C122.887 184.176 122.817 184.118 122.76 184.048C122.615 183.852 122.52 183.624 122.482 183.384C122.419 183.062 122.39 182.735 122.396 182.407V178.623C122.396 178.556 122.41 178.491 122.436 178.43C122.452 178.375 122.487 178.328 122.535 178.297L122.952 178.052C122.966 178.039 122.984 178.032 123.002 178.032C123.02 178.032 123.038 178.039 123.052 178.052C123.082 178.096 123.096 178.15 123.091 178.204V181.936C123.086 182.141 123.106 182.346 123.151 182.547C123.169 182.675 123.224 182.795 123.31 182.892C123.34 182.928 123.377 182.956 123.42 182.974C123.462 182.993 123.509 183.001 123.555 182.998C123.668 182.991 123.777 182.954 123.873 182.892C123.99 182.822 124.097 182.734 124.19 182.633C124.294 182.514 124.378 182.38 124.442 182.235C124.517 182.064 124.572 181.886 124.607 181.704C124.646 181.484 124.664 181.262 124.66 181.04V177.301C124.662 177.235 124.678 177.169 124.707 177.109C124.723 177.054 124.758 177.007 124.806 176.976L125.243 176.783Z" fill="#FAFAFA"/>
<path d="M127.839 180.356C127.842 180.307 127.831 180.258 127.806 180.216C127.79 180.199 127.77 180.186 127.749 180.178C127.727 180.17 127.703 180.167 127.68 180.17C127.599 180.159 127.516 180.159 127.435 180.17L127.051 180.243C126.927 180.274 126.798 180.274 126.674 180.243C126.577 180.211 126.493 180.148 126.435 180.064C126.371 179.956 126.328 179.836 126.31 179.712C126.245 179.356 126.245 178.992 126.31 178.636C126.359 178.432 126.43 178.234 126.521 178.045C126.612 177.856 126.723 177.678 126.852 177.514C126.978 177.357 127.13 177.224 127.303 177.122C127.442 177.037 127.598 176.983 127.759 176.963C127.877 176.95 127.995 176.976 128.097 177.036C128.194 177.095 128.27 177.183 128.315 177.288C128.369 177.412 128.398 177.545 128.402 177.68C128.408 177.747 128.395 177.814 128.362 177.872C128.346 177.927 128.31 177.974 128.263 178.005L127.865 178.238C127.847 178.248 127.827 178.254 127.806 178.254C127.785 178.254 127.764 178.248 127.746 178.238L127.66 178.171C127.626 178.144 127.584 178.128 127.541 178.125C127.456 178.134 127.374 178.164 127.303 178.211C127.199 178.274 127.107 178.355 127.031 178.45C126.951 178.555 126.909 178.683 126.912 178.815C126.903 178.866 126.903 178.917 126.912 178.968C126.925 178.987 126.941 179.002 126.961 179.014C126.98 179.025 127.002 179.032 127.025 179.034C127.097 179.047 127.171 179.047 127.243 179.034L127.614 178.968C127.925 178.908 128.137 178.968 128.276 179.141C128.422 179.387 128.489 179.672 128.468 179.957C128.466 180.155 128.439 180.351 128.388 180.542C128.336 180.749 128.26 180.949 128.163 181.139C128.066 181.336 127.944 181.519 127.799 181.684C127.662 181.845 127.499 181.982 127.316 182.089C127.17 182.182 127.005 182.239 126.833 182.255C126.708 182.259 126.585 182.224 126.482 182.155C126.38 182.085 126.301 181.986 126.257 181.87C126.203 181.744 126.176 181.608 126.177 181.471C126.171 181.402 126.185 181.333 126.217 181.272C126.233 181.217 126.268 181.17 126.316 181.139L126.713 180.907C126.766 180.907 126.806 180.874 126.833 180.907L126.919 181C126.936 181.02 126.958 181.036 126.981 181.047C127.005 181.058 127.031 181.065 127.058 181.066C127.151 181.067 127.242 181.036 127.316 180.98C127.435 180.912 127.543 180.824 127.634 180.721C127.679 180.666 127.717 180.606 127.746 180.542C127.793 180.489 127.825 180.425 127.839 180.356Z" fill="#FAFAFA"/>
<path d="M129.189 178.556C129.187 178.211 129.216 177.867 129.275 177.527C129.33 177.207 129.416 176.894 129.533 176.591C129.63 176.319 129.764 176.062 129.93 175.827C130.069 175.625 130.25 175.455 130.46 175.329C130.613 175.226 130.8 175.185 130.983 175.216C131.144 175.254 131.286 175.351 131.38 175.488C131.504 175.669 131.592 175.872 131.638 176.086C131.702 176.365 131.733 176.65 131.731 176.936V177.348C131.733 177.417 131.717 177.486 131.684 177.547C131.668 177.602 131.633 177.649 131.585 177.68L129.864 178.682C129.86 178.799 129.875 178.916 129.91 179.028C129.936 179.103 129.982 179.169 130.043 179.22C130.097 179.263 130.165 179.285 130.235 179.28C130.315 179.27 130.392 179.243 130.46 179.2C130.56 179.146 130.65 179.074 130.725 178.988C130.792 178.911 130.85 178.826 130.897 178.735C130.925 178.683 130.956 178.632 130.989 178.583C131.018 178.549 131.051 178.52 131.089 178.496L131.499 178.257C131.513 178.246 131.531 178.24 131.549 178.24C131.567 178.24 131.584 178.246 131.598 178.257C131.616 178.278 131.628 178.303 131.635 178.329C131.642 178.356 131.643 178.383 131.638 178.41C131.631 178.54 131.604 178.667 131.559 178.789C131.502 178.973 131.426 179.151 131.334 179.32C131.23 179.514 131.106 179.697 130.963 179.864C130.82 180.035 130.65 180.181 130.46 180.296C130.303 180.399 130.116 180.443 129.93 180.422C129.767 180.383 129.625 180.283 129.533 180.143C129.403 179.942 129.315 179.716 129.275 179.479C129.215 179.175 129.186 178.866 129.189 178.556ZM130.46 176.438C130.358 176.493 130.27 176.57 130.202 176.664C130.128 176.757 130.068 176.86 130.023 176.969C129.976 177.079 129.939 177.192 129.91 177.308C129.887 177.413 129.871 177.519 129.864 177.627L131.029 176.963C131.022 176.871 131.009 176.78 130.989 176.69C130.979 176.61 130.947 176.534 130.897 176.471C130.877 176.442 130.851 176.418 130.822 176.4C130.792 176.382 130.759 176.37 130.725 176.365C130.63 176.357 130.537 176.383 130.46 176.438Z" fill="#FAFAFA"/>
<path d="M133.809 174.586C133.609 174.7 133.451 174.878 133.359 175.09C133.256 175.37 133.209 175.668 133.22 175.967V178.364C133.221 178.432 133.207 178.5 133.18 178.563C133.164 178.618 133.129 178.665 133.081 178.696L132.69 178.921C132.684 178.929 132.677 178.934 132.668 178.938C132.659 178.942 132.65 178.944 132.641 178.944C132.631 178.944 132.622 178.942 132.614 178.938C132.605 178.934 132.597 178.929 132.591 178.921C132.562 178.876 132.548 178.823 132.551 178.769V174.473C132.552 174.404 132.565 174.337 132.591 174.274C132.61 174.22 132.644 174.174 132.69 174.141L133.081 173.915C133.094 173.902 133.112 173.895 133.131 173.895C133.149 173.895 133.167 173.902 133.18 173.915C133.211 173.957 133.225 174.009 133.22 174.061V174.274C133.299 174.095 133.397 173.926 133.511 173.769C133.616 173.623 133.752 173.503 133.909 173.417L134.147 173.278C134.159 173.265 134.176 173.259 134.193 173.259C134.211 173.259 134.227 173.265 134.24 173.278C134.271 173.322 134.288 173.376 134.286 173.43V174.034C134.285 174.103 134.269 174.171 134.24 174.234C134.223 174.286 134.19 174.333 134.147 174.366L133.809 174.586Z" fill="#FAFAFA"/>
<path d="M138.748 174.267C138.755 174.26 138.762 174.254 138.771 174.25C138.779 174.246 138.789 174.244 138.798 174.244C138.807 174.244 138.817 174.246 138.825 174.25C138.834 174.254 138.842 174.26 138.848 174.267C138.877 174.312 138.891 174.366 138.887 174.42V175.084C138.887 175.152 138.874 175.22 138.848 175.283C138.825 175.332 138.791 175.375 138.748 175.409L136.484 176.737C136.471 176.749 136.453 176.756 136.435 176.756C136.416 176.756 136.399 176.749 136.385 176.737C136.355 176.694 136.341 176.643 136.345 176.591V170.615C136.346 170.546 136.359 170.479 136.385 170.416C136.404 170.364 136.438 170.32 136.484 170.289L136.901 170.044C136.915 170.031 136.933 170.024 136.951 170.024C136.97 170.024 136.987 170.031 137.001 170.044C137.03 170.086 137.044 170.138 137.04 170.19V175.243L138.748 174.267Z" fill="#FAFAFA"/>
<path d="M140.781 169.353C140.93 169.25 141.11 169.201 141.291 169.214C141.446 169.226 141.59 169.297 141.694 169.413C141.818 169.555 141.908 169.723 141.959 169.904C142.03 170.139 142.07 170.383 142.078 170.628C142.078 170.681 142.078 170.754 142.078 170.841V171.352C142.078 171.432 142.078 171.505 142.078 171.564C142.065 171.853 142.025 172.14 141.959 172.421C141.898 172.695 141.809 172.962 141.694 173.218C141.59 173.456 141.454 173.679 141.291 173.882C141.151 174.065 140.978 174.221 140.781 174.34C140.628 174.44 140.447 174.489 140.265 174.479C140.112 174.466 139.97 174.395 139.867 174.28C139.74 174.143 139.649 173.976 139.603 173.795C139.532 173.56 139.492 173.317 139.483 173.072C139.483 173.018 139.483 172.952 139.483 172.866V172.355C139.483 172.268 139.483 172.195 139.483 172.142C139.491 171.851 139.529 171.562 139.596 171.279C139.66 171.003 139.751 170.734 139.867 170.475C139.973 170.239 140.106 170.016 140.265 169.811C140.405 169.626 140.58 169.47 140.781 169.353ZM141.403 171.066C141.403 170.919 141.378 170.774 141.33 170.635C141.306 170.55 141.255 170.476 141.185 170.422C141.128 170.384 141.06 170.368 140.993 170.376C140.917 170.39 140.845 170.419 140.781 170.462C140.703 170.505 140.632 170.559 140.569 170.621C140.493 170.701 140.429 170.79 140.377 170.887C140.311 171.008 140.262 171.138 140.231 171.272C140.188 171.442 140.161 171.615 140.152 171.79C140.152 171.843 140.152 171.903 140.152 171.976V172.447C140.152 172.52 140.152 172.58 140.152 172.62C140.158 172.767 140.185 172.912 140.231 173.052C140.256 173.137 140.307 173.211 140.377 173.264C140.405 173.284 140.436 173.297 140.469 173.304C140.502 173.311 140.536 173.311 140.569 173.304C140.644 173.291 140.716 173.264 140.781 173.224C140.858 173.18 140.929 173.126 140.993 173.065C141.067 172.984 141.131 172.895 141.185 172.799C141.248 172.677 141.297 172.548 141.33 172.414C141.374 172.245 141.398 172.071 141.403 171.896C141.407 171.834 141.407 171.772 141.403 171.71V171.246C141.407 171.186 141.407 171.126 141.403 171.066Z" fill="#FAFAFA"/>
<path d="M144.103 173.238C144.188 173.186 144.264 173.121 144.328 173.045C144.408 172.951 144.477 172.849 144.534 172.74C144.599 172.606 144.651 172.466 144.686 172.321C144.727 172.158 144.747 171.991 144.746 171.823V171.485C144.746 171.551 144.679 171.631 144.633 171.724C144.588 171.821 144.534 171.914 144.474 172.003C144.405 172.096 144.33 172.185 144.249 172.268C144.166 172.356 144.07 172.429 143.964 172.487C143.896 172.534 143.82 172.566 143.739 172.582C143.658 172.598 143.575 172.597 143.494 172.58C143.347 172.534 143.221 172.438 143.137 172.308C143.029 172.136 142.951 171.948 142.905 171.75C142.849 171.5 142.818 171.244 142.812 170.987C142.813 170.9 142.812 170.794 142.812 170.668C142.812 170.542 142.812 170.436 142.812 170.343C142.821 170.051 142.852 169.76 142.905 169.473C142.96 169.19 143.037 168.913 143.137 168.643C143.23 168.409 143.35 168.186 143.494 167.979C143.616 167.796 143.777 167.642 143.964 167.527C144.052 167.474 144.149 167.436 144.249 167.414C144.323 167.401 144.4 167.401 144.474 167.414C144.533 167.431 144.587 167.46 144.633 167.501C144.675 167.533 144.713 167.571 144.746 167.614V167.401C144.746 167.333 144.759 167.265 144.785 167.202C144.804 167.15 144.839 167.106 144.885 167.076L145.275 166.843C145.289 166.831 145.306 166.824 145.325 166.824C145.343 166.824 145.361 166.831 145.374 166.843C145.406 166.888 145.423 166.941 145.421 166.996V171.312C145.439 171.958 145.319 172.601 145.07 173.198C144.874 173.667 144.536 174.062 144.103 174.327C143.956 174.419 143.787 174.471 143.614 174.479C143.476 174.488 143.34 174.453 143.223 174.38C143.111 174.296 143.02 174.187 142.958 174.061C142.894 173.91 142.858 173.747 142.852 173.583C142.846 173.514 142.86 173.445 142.892 173.384C142.908 173.329 142.943 173.282 142.991 173.251L143.342 173.052C143.35 173.043 143.36 173.036 143.371 173.031C143.382 173.027 143.393 173.024 143.405 173.024C143.417 173.024 143.428 173.027 143.439 173.031C143.45 173.036 143.46 173.043 143.468 173.052C143.501 173.086 143.529 173.124 143.554 173.165C143.594 173.236 143.661 173.288 143.739 173.311C143.819 173.37 143.938 173.304 144.103 173.238ZM143.481 170.017C143.481 170.194 143.481 170.367 143.481 170.535C143.462 170.8 143.537 171.064 143.693 171.279C143.752 171.33 143.827 171.358 143.905 171.358C143.983 171.358 144.058 171.33 144.117 171.279C144.309 171.154 144.459 170.973 144.547 170.761C144.667 170.484 144.735 170.187 144.746 169.884C144.746 169.785 144.746 169.665 144.746 169.526C144.746 169.386 144.746 169.267 144.746 169.181C144.759 168.943 144.689 168.708 144.547 168.517C144.488 168.462 144.411 168.432 144.332 168.432C144.252 168.432 144.175 168.462 144.117 168.517C143.928 168.641 143.781 168.819 143.693 169.028C143.557 169.34 143.485 169.677 143.481 170.017Z" fill="#FAFAFA"/>
<path d="M146.963 164.121C146.976 164.11 146.993 164.104 147.01 164.104C147.026 164.104 147.043 164.11 147.056 164.121C147.091 164.164 147.107 164.219 147.102 164.274V164.997C147.103 165.067 147.087 165.135 147.056 165.197C147.037 165.247 147.005 165.29 146.963 165.323L146.52 165.582C146.513 165.589 146.506 165.594 146.497 165.598C146.489 165.602 146.479 165.604 146.47 165.604C146.461 165.604 146.451 165.602 146.443 165.598C146.434 165.594 146.427 165.589 146.42 165.582C146.403 165.562 146.39 165.539 146.382 165.514C146.374 165.488 146.371 165.462 146.374 165.436V164.712C146.374 164.643 146.389 164.575 146.42 164.513C146.439 164.461 146.474 164.417 146.52 164.387L146.963 164.121ZM147.076 170.356C147.076 170.422 147.062 170.488 147.036 170.548C147.015 170.601 146.981 170.646 146.937 170.681L146.54 170.907C146.534 170.914 146.527 170.92 146.519 170.923C146.511 170.927 146.502 170.929 146.493 170.929C146.484 170.929 146.476 170.927 146.468 170.923C146.46 170.92 146.452 170.914 146.447 170.907C146.412 170.864 146.396 170.809 146.401 170.754V166.458C146.4 166.389 146.416 166.321 146.447 166.259C146.466 166.207 146.498 166.162 146.54 166.126L146.937 165.9C146.95 165.888 146.968 165.881 146.986 165.881C147.005 165.881 147.023 165.888 147.036 165.9C147.066 165.943 147.08 165.995 147.076 166.047V170.356Z" fill="#FAFAFA"/>
<path d="M150.558 168.331C150.558 168.399 150.545 168.467 150.519 168.53C150.5 168.582 150.465 168.626 150.419 168.656L150.022 168.888C150.01 168.901 149.993 168.907 149.976 168.907C149.959 168.907 149.942 168.901 149.929 168.888C149.895 168.845 149.878 168.791 149.883 168.736V166.398C149.904 166.123 149.853 165.846 149.738 165.595C149.645 165.429 149.499 165.402 149.294 165.522C149.089 165.66 148.938 165.864 148.864 166.1C148.753 166.413 148.699 166.743 148.705 167.076V169.42C148.704 169.488 148.691 169.556 148.665 169.619C148.649 169.674 148.614 169.721 148.566 169.752L148.175 169.977C148.169 169.984 148.161 169.99 148.153 169.994C148.144 169.998 148.135 170 148.126 170C148.116 170 148.107 169.998 148.098 169.994C148.09 169.99 148.082 169.984 148.076 169.977C148.045 169.935 148.031 169.883 148.036 169.831V165.535C148.035 165.467 148.049 165.399 148.076 165.336C148.092 165.281 148.127 165.234 148.175 165.203L148.566 164.977C148.572 164.97 148.58 164.965 148.588 164.961C148.597 164.957 148.606 164.955 148.615 164.955C148.625 164.955 148.634 164.957 148.643 164.961C148.651 164.965 148.659 164.97 148.665 164.977C148.695 165.023 148.709 165.076 148.705 165.13V165.336C148.792 165.134 148.898 164.94 149.023 164.758C149.132 164.591 149.279 164.452 149.453 164.353C149.604 164.243 149.791 164.195 149.976 164.22C150.049 164.239 150.118 164.273 150.177 164.32C150.236 164.367 150.285 164.426 150.32 164.493C150.416 164.672 150.479 164.868 150.505 165.07C150.541 165.335 150.558 165.601 150.558 165.867V168.331Z" fill="#FAFAFA"/>
<path d="M183.95 149.002L177.522 152.72L178.521 143.676C177.747 143.265 177.257 142.262 177.257 140.821C177.257 138.251 178.819 135.27 180.739 134.181C182.659 133.092 184.214 134.248 184.214 136.837C184.175 138.361 183.741 139.848 182.957 141.153L183.95 149.002Z" fill="#455A64"/>
<path d="M183.956 149.002L178.296 145.728L177.521 152.727L183.956 149.002Z" fill="#37474F"/>
<path d="M180.726 134.161C179.326 135.11 178.282 136.5 177.76 138.112L182.943 141.113C183.728 139.808 184.161 138.321 184.201 136.797C184.214 134.228 182.659 133.052 180.726 134.161Z" fill="#37474F"/>
<path d="M149.479 104.049C147.275 102.774 144.236 102.953 140.873 104.899C134.16 108.79 128.719 118.238 128.719 126.014C128.719 129.918 130.096 132.654 132.307 133.916L136.59 136.412C138.788 137.687 141.826 137.501 145.196 135.556C151.909 131.671 157.35 122.216 157.35 114.44C157.35 110.556 155.987 107.8 153.789 106.559" fill="#F71735"/>
<path d="M145.189 107.402C138.477 111.293 133.035 120.748 133.035 128.517C133.035 136.286 138.477 139.447 145.189 135.556C151.902 131.665 157.35 122.216 157.344 114.44C157.337 106.665 151.896 103.518 145.189 107.402Z" fill="#F71735"/>
<path d="M151.895 124.653V125.543C150.287 128.422 147.981 130.847 145.189 132.594C142.574 134.102 140.211 134.268 138.477 133.305V131.472C138.565 129.565 139.108 127.708 140.059 126.055C141.011 124.402 142.343 123.001 143.945 121.97L145.712 120.948C147.275 120.045 148.797 119.925 149.989 120.622C151.18 121.32 151.895 122.787 151.895 124.653Z" fill="#F71735"/>
<path opacity="0.4" d="M149.479 104.049L153.782 106.559C151.584 105.277 148.546 105.456 145.176 107.402C140.78 109.952 136.928 114.885 134.796 120.171L130.486 117.667C132.625 112.355 136.444 107.448 140.866 104.899C144.243 102.96 147.281 102.774 149.479 104.049Z" fill="#FFD6D6"/>
<path opacity="0.2" d="M136.438 136.313L132.314 133.916C130.103 132.654 128.726 129.932 128.726 126.014L133.035 128.524C133.062 132.309 134.333 135.004 136.438 136.313Z" fill="black"/>
<path opacity="0.1" d="M130.5 117.667L134.809 120.171C133.705 122.817 133.112 125.649 133.062 128.517L128.752 126.007C128.805 123.142 129.398 120.312 130.5 117.667Z" fill="black"/>
<path d="M143.653 120.529C143.243 120.534 142.838 120.428 142.482 120.224C142.052 119.936 141.707 119.538 141.485 119.07C141.262 118.603 141.17 118.084 141.217 117.568C141.273 116.358 141.618 115.179 142.221 114.13C142.825 113.081 143.67 112.193 144.686 111.539C145.094 111.212 145.591 111.016 146.112 110.977C146.633 110.938 147.154 111.058 147.606 111.32C148.058 111.583 148.42 111.976 148.646 112.449C148.871 112.921 148.949 113.451 148.87 113.969C148.813 115.178 148.468 116.357 147.865 117.405C147.261 118.454 146.416 119.343 145.401 119.998C144.876 120.327 144.272 120.51 143.653 120.529Z" fill="#FFD6D6"/>
<path d="M149.989 120.616C148.797 119.918 147.275 120.038 145.712 120.941L143.945 121.964C142.342 122.995 141.009 124.397 140.058 126.051C139.107 127.705 138.564 129.564 138.477 131.472V133.311C140.211 134.274 142.574 134.108 145.189 132.601C147.981 130.854 150.287 128.428 151.895 125.549V124.659C151.895 122.787 151.207 121.319 149.989 120.616Z" fill="#FFD6D6"/>
<path d="M263.058 150.217C260.278 154.931 257.603 159.028 255.723 160.993C252.155 162.653 243.774 165.217 240.497 165.641C239.921 165.715 239.339 165.578 238.855 165.256C237.564 164.406 236.565 164.267 235.208 163.796C234.142 163.43 233.692 162.919 233.493 163.132C233.288 163.373 233.185 163.685 233.206 164.001C233.227 164.317 233.37 164.613 233.606 164.825C234.115 165.31 234.679 165.733 235.287 166.086C233.834 166.448 232.317 166.475 230.852 166.166C228.012 165.416 226.675 166.784 228.594 169.878C229.256 170.98 231.984 172.753 237.465 172.275C239.421 172.169 241.368 171.947 243.297 171.611C248.554 170.482 254.399 169.393 257.994 168.291C259.331 167.763 260.528 166.931 261.489 165.861C267.533 158.948 269.539 154.021 272.187 149.546L271.962 142.242C267.672 142.096 265.382 146.273 263.058 150.217Z" fill="#FFA8A7"/>
<path d="M272.697 142.096C271.453 141.921 270.185 142.09 269.03 142.585C267.875 143.08 266.877 143.882 266.144 144.905C263.204 148.683 258.001 157.753 258.001 157.753C258.001 157.753 259.702 162.302 264.297 163.065L271.678 153.065C271.678 153.065 275.173 146.12 272.697 142.096Z" fill="#455A64"/>
<path d="M288.658 244.047H283.846V252.652H288.658V244.047Z" fill="#FFA8A7"/>
<path d="M271.975 243.588L267.169 243.761L266.924 234.651L271.975 234.478V243.588Z" fill="#FFA8A7"/>
<path d="M289.333 169.552C289.333 174.347 288.632 212.971 288.632 212.971C288.737 214.353 289.956 216.902 289.711 222.208C289.346 229.412 288.863 248.349 288.863 248.349C288.037 248.773 287.126 249.003 286.198 249.022C285.27 249.04 284.35 248.847 283.508 248.456C283.508 248.456 279.602 221.896 278.741 214.784C277.987 208.549 276.054 187.912 276.054 187.912L273.452 212.307C274.003 214.925 274.204 217.605 274.048 220.275C273.823 223.595 272.274 240.78 272.274 240.78C271.442 241.272 270.51 241.567 269.548 241.644C268.585 241.722 267.618 241.578 266.719 241.225C266.719 241.225 263.979 215.329 263.926 212.287C263.86 208.835 265.528 169.513 265.528 169.513L289.333 169.552Z" fill="#37474F"/>
<path d="M283.845 250.169V249.451C283.382 249.657 282.316 253.92 280.403 255.74C278.887 257.187 276.821 258.854 276.292 260.467C275.762 262.081 279.171 263.07 280.595 262.811C282.236 262.506 285.096 261.291 285.811 260.155C286.526 259.02 286.864 257.373 287.446 256.55C288.029 255.726 289.373 254.81 289.684 253.854C289.781 252.959 289.689 252.054 289.413 251.198C289.187 250.308 288.949 249.332 288.658 249.418V249.963C287.979 250.521 287.126 250.822 286.248 250.813C285.546 250.872 283.838 250.726 283.845 250.169Z" fill="#011627"/>
<path d="M267.116 242.207C266.865 242.207 266.66 242.586 266.11 243.21C265.293 244.072 264.338 244.79 263.283 245.335C261.483 246.278 257.987 247.725 256.392 248.476C255.399 248.94 255.445 250.189 256.471 250.899C257.498 251.61 259.967 252.121 262.933 251.43C264.548 251.052 266.653 249.491 267.99 249.578C269.327 249.664 271.81 249.638 272.796 248.914C273.783 248.19 273.386 246.689 273.107 245.395C272.803 243.974 272.445 241.762 271.975 241.862V242.36C271.4 243.276 268.414 243.648 267.143 242.978L267.116 242.207Z" fill="#011627"/>
<path d="M276.054 187.912C273.55 187.09 271.262 185.718 269.354 183.895C269.354 183.895 270.678 186.425 274.492 188.782L273.671 210.568L276.054 187.912Z" fill="#011627"/>
<path d="M286.646 142.8C286.646 142.8 290.618 143.716 290.333 150.914L289.505 162.368V179.566C285.97 183.589 270.307 183.297 264.912 179.247C264.912 179.247 265.521 158.895 265.885 151.06C266.143 145.496 267.421 142.694 272.876 142.083L279.582 142.375L286.646 142.8Z" fill="#F71735"/>
<path d="M281.588 127.847C281.611 128.81 281.444 129.769 281.095 130.667C280.747 131.566 280.225 132.386 279.559 133.081C278.893 133.776 278.097 134.332 277.216 134.717C276.335 135.102 275.386 135.308 274.425 135.323C270.453 135.323 268.123 131.884 267.262 127.847C265.674 120.456 270.467 120.363 274.425 120.363C276.364 120.403 278.208 121.214 279.551 122.617C280.895 124.021 281.627 125.902 281.588 127.847Z" fill="#011627"/>
<path d="M285.241 130.868C285.241 130.868 284.143 136.259 283.699 137.149C283.42 137.685 282.946 138.091 282.375 138.285L282.454 134.493L285.241 130.868Z" fill="#011627"/>
<path d="M283.858 123.145C283.858 123.145 284.646 122.946 285.487 124.261C286.202 125.383 286.367 127.906 285.242 130.901L283.17 131.153L283.858 123.145Z" fill="#011627"/>
<path d="M284.62 124.241L287.162 124.288C287.18 124.123 287.163 123.956 287.113 123.798C287.063 123.64 286.981 123.494 286.872 123.37C286.764 123.245 286.63 123.144 286.481 123.073C286.331 123.003 286.169 122.964 286.004 122.96C285.656 122.965 285.323 123.098 285.067 123.335C284.812 123.571 284.653 123.894 284.62 124.241Z" fill="#011627"/>
<path d="M284.93 123.637L286.81 121.824C286.702 121.696 286.568 121.592 286.418 121.518C286.267 121.444 286.103 121.403 285.936 121.396C285.769 121.389 285.602 121.417 285.446 121.478C285.29 121.539 285.148 121.632 285.03 121.751C284.78 121.996 284.632 122.325 284.613 122.674C284.595 123.024 284.708 123.367 284.93 123.637Z" fill="#011627"/>
<path d="M282.548 131.12C282.965 131.379 283.554 130.549 284.071 129.985C284.587 129.42 286.189 128.902 287.023 130.735C287.857 132.568 286.434 134.38 285.242 134.978C283.104 136.04 282.429 134.493 282.429 134.493L282.25 143.032C279.245 147.68 272.426 147.534 274.882 142.807V140.21C273.872 140.379 272.846 140.432 271.824 140.37C270.155 140.104 269.11 138.73 268.6 136.844C267.792 133.816 267.481 131.372 268.169 125.416C268.924 118.896 276.193 118.823 280.085 121.432C283.978 124.042 282.548 131.12 282.548 131.12Z" fill="#FFA8A7"/>
<path d="M273.492 124.4C275.226 124.228 276.941 123.869 278.682 123.736C279.057 123.691 279.438 123.709 279.807 123.79C281.131 124.155 280.972 125.709 281.184 126.791C281.548 128.663 281.846 131.831 282.548 131.844C282.76 131.844 283.554 130.469 284.07 129.978C284.354 129.555 284.515 129.06 284.534 128.55C284.666 127.78 284.732 126.99 284.792 126.207C284.845 125.543 284.911 124.879 284.911 124.215C284.941 123.464 284.881 122.713 284.732 121.977C284.566 121.351 284.248 120.776 283.806 120.304L283.673 120.157C282.801 119.242 281.742 118.527 280.568 118.059C278.88 117.425 277.11 117.038 275.312 116.911C273.517 116.783 271.729 116.561 269.956 116.247C269.855 116.217 269.747 116.217 269.645 116.247C269.573 116.286 269.513 116.344 269.469 116.413C269.425 116.483 269.399 116.563 269.394 116.645C269.321 117.058 269.367 117.482 269.525 117.87C269.683 118.258 269.947 118.593 270.287 118.836C269.089 118.929 267.712 118.305 266.56 117.986C266.467 117.947 266.367 117.926 266.266 117.926C266.165 117.926 266.064 117.947 265.971 117.986C265.856 118.067 265.773 118.188 265.74 118.325C265.656 118.637 265.644 118.964 265.706 119.281C265.812 120.242 266.168 121.158 266.739 121.937C267.631 123.102 268.892 123.929 270.314 124.281C271.361 124.483 272.432 124.524 273.492 124.4Z" fill="#011627"/>
<path d="M274.888 140.21C274.888 140.21 278.608 139.427 279.906 138.703C280.679 138.279 281.306 137.631 281.706 136.844C281.511 137.635 281.162 138.379 280.68 139.035C279.734 140.31 274.888 141.239 274.888 141.239V140.21Z" fill="#F28F8F"/>
<path d="M275.782 130.144C275.775 130.349 275.848 130.549 275.987 130.699C276.126 130.85 276.319 130.939 276.523 130.948C276.685 130.961 276.848 130.925 276.989 130.844C277.131 130.763 277.244 130.641 277.316 130.495C277.387 130.348 277.412 130.183 277.388 130.022C277.364 129.86 277.293 129.71 277.182 129.59C277.072 129.47 276.928 129.387 276.769 129.35C276.61 129.314 276.444 129.327 276.293 129.387C276.142 129.447 276.012 129.551 275.921 129.686C275.829 129.821 275.781 129.981 275.782 130.144Z" fill="#011627"/>
<path d="M276.974 126.924L278.569 127.847C278.685 127.619 278.711 127.356 278.643 127.11C278.574 126.864 278.415 126.653 278.198 126.519C278.093 126.459 277.976 126.422 277.855 126.411C277.734 126.399 277.612 126.412 277.497 126.451C277.382 126.489 277.276 126.55 277.186 126.632C277.096 126.713 277.023 126.813 276.974 126.924Z" fill="#011627"/>
<path d="M275.219 135.529L273.518 136.193C273.552 136.31 273.61 136.419 273.687 136.513C273.765 136.606 273.862 136.683 273.97 136.738C274.079 136.792 274.198 136.824 274.319 136.831C274.44 136.838 274.562 136.82 274.676 136.777C274.908 136.677 275.093 136.493 275.193 136.261C275.294 136.029 275.303 135.767 275.219 135.529Z" fill="#F28F8F"/>
<path d="M268.937 127.608L270.393 126.439C270.328 126.337 270.242 126.25 270.141 126.183C270.04 126.117 269.926 126.072 269.807 126.053C269.688 126.034 269.566 126.04 269.449 126.071C269.332 126.102 269.223 126.157 269.129 126.233C268.934 126.399 268.807 126.63 268.772 126.884C268.736 127.137 268.795 127.395 268.937 127.608Z" fill="#011627"/>
<path d="M269.579 129.925C269.59 130.07 269.644 130.209 269.733 130.324C269.822 130.44 269.942 130.526 270.08 130.574C270.217 130.622 270.365 130.628 270.506 130.593C270.647 130.558 270.775 130.482 270.873 130.375C270.972 130.268 271.038 130.135 271.062 129.991C271.086 129.847 271.069 129.7 271.011 129.566C270.953 129.432 270.857 129.318 270.736 129.238C270.614 129.158 270.472 129.115 270.327 129.115C270.225 129.118 270.124 129.142 270.031 129.185C269.938 129.227 269.854 129.288 269.784 129.363C269.715 129.439 269.661 129.527 269.626 129.624C269.59 129.72 269.574 129.822 269.579 129.925Z" fill="#011627"/>
<path d="M273.571 129.301L273.485 134.022L270.811 133.411L273.571 129.301Z" fill="#F28F8F"/>
<path d="M210.059 168.842L214.209 166.438L215.851 164.44L211.707 166.843L210.059 168.842Z" fill="#F71735"/>
<path opacity="0.4" d="M210.059 168.842L214.209 166.438L215.851 164.44L211.707 166.843L210.059 168.842Z" fill="black"/>
<path d="M221.346 175.376L225.496 172.972L228.959 169.898L224.815 172.295L221.346 175.376Z" fill="#F71735"/>
<path opacity="0.4" d="M221.346 175.376L225.496 172.972L228.959 169.898L224.815 172.295L221.346 175.376Z" fill="black"/>
<path d="M256.604 183.669C257.585 184.989 258.179 186.557 258.319 188.198C257.341 186.876 256.748 185.308 256.604 183.669ZM266.249 183.795C264.853 174.267 259.748 164.845 253.671 161.319C250.752 159.626 248.051 159.566 245.886 160.834L241.98 163.092L241.762 163.225C241.588 163.321 241.42 163.427 241.259 163.543C240.938 163.765 240.637 164.014 240.359 164.287L240.226 164.413C240.107 164.533 239.981 164.672 239.869 164.805C239.756 164.938 239.584 165.144 239.452 165.323C239.171 165.694 238.916 166.084 238.69 166.491C238.571 166.697 238.459 166.916 238.353 167.155L204.24 147.408L200.096 149.805V152.461L200.447 152.66L200.778 152.853V153.384L200.116 153.776V155.316L205.127 165.94L210.079 168.815L211.727 166.823L216.096 169.446L218.605 173.756L221.372 175.356L224.835 172.275L229.085 174.738L230.515 180.655L237.658 184.798C238.011 186.304 238.453 187.787 238.982 189.24C239.028 189.386 239.087 189.539 239.147 189.705C241.517 195.946 245.284 201.292 249.534 203.755C250.043 204.058 250.577 204.318 251.129 204.532C251.421 204.648 251.72 204.748 252.023 204.831C252.288 204.902 252.553 204.961 252.817 205.01C253.653 205.163 254.51 205.163 255.346 205.01L255.69 204.924C255.855 204.89 256.017 204.844 256.174 204.784L256.544 204.638C256.676 204.591 256.802 204.531 256.922 204.459C257.044 204.406 257.163 204.346 257.279 204.28L257.451 204.173C257.483 204.163 257.512 204.147 257.537 204.127C258.484 203.582 260.814 202.228 261.45 201.869C264.601 200.037 266.64 195.402 266.64 188.848C266.635 187.157 266.504 185.468 266.249 183.795Z" fill="#F71735"/>
<path d="M255.392 191.71C253.751 190.761 252.427 187.945 252.427 185.422C252.427 182.899 253.751 181.617 255.392 182.56C257.034 183.503 258.351 186.325 258.351 188.855C258.351 191.385 257.027 192.66 255.392 191.71ZM262.098 186.192C260.708 176.67 255.604 167.242 249.52 163.722C246.7 162.089 244.092 161.97 241.974 163.092L241.755 163.224C241.581 163.321 241.413 163.427 241.252 163.543C240.931 163.765 240.63 164.014 240.352 164.287L240.219 164.413C240.1 164.533 239.974 164.672 239.862 164.805C239.749 164.938 239.577 165.143 239.445 165.323C239.164 165.694 238.909 166.084 238.683 166.491C238.564 166.697 238.452 166.916 238.346 167.155C237.729 168.439 237.283 169.799 237.022 171.199L200.089 149.805V152.461L200.44 152.66L200.771 152.853V153.384L200.109 153.776V155.316L205.12 165.94L210.072 168.815L211.72 166.823L216.089 169.446L218.598 173.756L221.366 175.356L224.828 172.275L229.078 174.738L230.508 180.654L237.657 184.798C238.01 186.304 238.453 187.787 238.981 189.24C239.028 189.386 239.087 189.539 239.147 189.705C241.517 195.946 245.284 201.292 249.534 203.755C250.043 204.058 250.577 204.318 251.129 204.532C251.421 204.648 251.719 204.748 252.023 204.831C252.288 204.902 252.552 204.961 252.817 205.01C253.653 205.163 254.51 205.163 255.346 205.01L255.69 204.924C255.855 204.89 256.016 204.844 256.173 204.784L256.544 204.638C256.675 204.591 256.802 204.531 256.922 204.459C257.044 204.406 257.163 204.346 257.279 204.28L257.451 204.173C257.482 204.163 257.511 204.147 257.537 204.127C260.556 202.215 262.496 197.646 262.496 191.252C262.484 189.558 262.352 187.867 262.098 186.192Z" fill="#F71735"/>
<path opacity="0.4" d="M258.352 188.848C258.352 191.378 257.028 192.66 255.393 191.71C253.757 190.761 252.427 187.952 252.427 185.422C252.427 182.892 253.751 181.611 255.393 182.56C255.865 182.849 256.277 183.228 256.604 183.676C256.746 185.315 257.34 186.883 258.319 188.204C258.343 188.418 258.354 188.633 258.352 188.848Z" fill="black"/>
<path opacity="0.4" d="M266.627 188.842C266.627 195.395 264.588 200.03 261.436 201.863C260.774 202.221 258.471 203.576 257.524 204.12C260.543 202.208 262.482 197.64 262.482 191.245C262.475 189.554 262.347 187.865 262.098 186.192C260.708 176.671 255.604 167.242 249.52 163.723C246.7 162.089 244.092 161.97 241.974 163.092L245.879 160.834C248.044 159.566 250.745 159.626 253.665 161.319C259.748 164.845 264.852 174.267 266.243 183.795C266.495 185.466 266.623 187.152 266.627 188.842Z" fill="#FFD6D6"/>
<path d="M262.483 191.232C262.483 197.626 260.543 202.195 257.524 204.107C258.471 203.562 260.801 202.208 261.437 201.849C264.588 200.017 266.627 195.382 266.627 188.828C266.627 188.589 266.627 188.344 266.627 188.098L262.483 190.502C262.476 190.761 262.483 191 262.483 191.232Z" fill="#F71735"/>
<path opacity="0.1" d="M262.483 191.232C262.483 197.626 260.543 202.195 257.524 204.107C258.471 203.562 260.801 202.208 261.437 201.849C264.588 200.017 266.627 195.382 266.627 188.828C266.627 188.589 266.627 188.344 266.627 188.098L262.483 190.502C262.476 190.761 262.483 191 262.483 191.232Z" fill="black"/>
<path opacity="0.15" d="M237.181 173.915V175.263L200.096 153.789L200.778 153.391V152.833L237.181 173.915Z" fill="black"/>
<path opacity="0.15" d="M237.181 174.473V175.263L200.096 153.789L200.778 153.391V153.384L237.181 174.473Z" fill="black"/>
<path opacity="0.15" d="M253.307 201.856C251.901 201.819 250.531 201.409 249.335 200.667C243.291 197.168 238.372 186.757 238.372 177.461C238.372 172.036 240.007 167.985 242.86 166.332C244.846 165.177 247.197 165.323 249.666 166.75C255.703 170.25 260.622 180.694 260.622 189.99C260.622 195.409 258.987 199.466 256.134 201.112C255.273 201.605 254.298 201.862 253.307 201.856ZM245.727 166.232C244.845 166.228 243.977 166.457 243.211 166.896C240.61 168.404 239.054 172.355 239.054 177.454C239.054 186.538 243.82 196.71 249.686 200.083C251.93 201.411 254.055 201.531 255.822 200.508C258.424 199.001 259.98 195.057 259.98 189.957C259.98 180.867 255.213 170.701 249.355 167.321C248.26 166.653 247.008 166.287 245.727 166.259V166.232Z" fill="black"/>
<path opacity="0.4" d="M238.319 167.142C237.702 168.426 237.257 169.785 236.995 171.186L200.062 149.792L204.207 147.395L238.319 167.142Z" fill="#FFD6D6"/>
<path d="M286.32 169.22C288.253 165.548 290.465 157.302 291.563 153.138C293.126 147.229 290.597 143.51 287.724 143.358C285.93 143.636 280.018 165.197 280.018 165.197C279.356 165.721 270.373 170.296 267.487 171.445C266.97 171.641 266.401 171.641 265.884 171.445C264.501 170.94 263.554 171.033 262.197 170.9C261.131 170.794 260.595 170.416 260.456 170.641C260.33 170.922 260.314 171.239 260.411 171.531C260.507 171.823 260.71 172.067 260.979 172.215C261.563 172.556 262.185 172.828 262.833 173.025C261.672 173.378 260.463 173.542 259.251 173.51C256.471 173.45 255.471 174.659 257.629 177.494C258.953 179.26 261.145 179.818 266.037 178.125C267.44 177.633 269.347 176.684 271.128 176.04C274.795 174.712 275.762 174.552 278.555 173.603C282.626 172.222 285.46 170.854 286.32 169.22Z" fill="#FFA8A7"/>
<path d="M286.646 142.8C288.334 143.032 289.956 143.411 290.955 144.792C291.955 146.173 292.756 148.112 291.776 153.391C291.026 157.103 290.022 160.759 288.771 164.333C288.771 164.333 284.838 166.02 280.661 161.744L283.534 150.602C283.534 150.602 283.998 143.358 286.646 142.8Z" fill="#455A64"/>
</svg>
