<svg width="755" height="774" viewBox="0 0 755 774" fill="none" xmlns="http://www.w3.org/2000/svg">
<path d="M697.102 473.456C738.934 398.455 741.754 298.532 712.875 218.407C688.054 149.444 632.68 96.8274 568.771 65.4959C494.623 29.1489 406.239 18.3438 326.662 41.2697C305.73 47.3069 285.357 52.8333 265.618 62.7559C184.713 103.391 200.321 203.516 171.941 238.346C148.069 267.649 102.392 259.011 73.6041 281.473C-4.11827 342.108 -4.28415 495.236 85.3664 543.116C180.461 593.906 593.487 659.216 697.102 473.456Z" fill="#F71735"/>
<path opacity="0.7" d="M697.102 473.456C738.934 398.455 741.754 298.532 712.875 218.407C688.054 149.444 632.68 96.8274 568.771 65.4959C494.623 29.1489 406.239 18.3438 326.662 41.2697C305.73 47.3069 285.357 52.8333 265.618 62.7559C184.713 103.391 200.321 203.516 171.941 238.346C148.069 267.649 102.392 259.011 73.6041 281.473C-4.11827 342.108 -4.28415 495.236 85.3664 543.116C180.461 593.906 593.487 659.216 697.102 473.456Z" fill="white"/>
<path d="M384.674 743.535C570.49 743.535 721.124 707.517 721.124 663.086C721.124 618.655 570.49 582.636 384.674 582.636C198.858 582.636 48.2244 618.655 48.2244 663.086C48.2244 707.517 198.858 743.535 384.674 743.535Z" fill="#F71735"/>
<path opacity="0.5" d="M384.674 743.535C570.49 743.535 721.124 707.517 721.124 663.086C721.124 618.655 570.49 582.636 384.674 582.636C198.858 582.636 48.2244 618.655 48.2244 663.086C48.2244 707.517 198.858 743.535 384.674 743.535Z" fill="white"/>
<path d="M244.43 347.325H234.206C232.116 347.325 230.421 349.064 230.421 351.21V373.548C230.421 375.694 232.116 377.433 234.206 377.433H244.43C246.521 377.433 248.216 375.694 248.216 373.548V351.21C248.216 349.064 246.521 347.325 244.43 347.325Z" fill="white" stroke="#263238" stroke-linecap="round" stroke-linejoin="round"/>
<path d="M245.275 363.362C245.278 364.572 244.931 365.756 244.278 366.763C243.626 367.771 242.696 368.557 241.608 369.022C240.52 369.487 239.322 369.611 238.165 369.377C237.009 369.142 235.946 368.561 235.112 367.707C234.277 366.852 233.708 365.763 233.477 364.576C233.246 363.39 233.363 362.159 233.814 361.041C234.264 359.923 235.027 358.967 236.007 358.295C236.987 357.622 238.139 357.263 239.318 357.263C240.889 357.283 242.391 357.931 243.503 359.071C244.616 360.21 245.251 361.749 245.275 363.362Z" fill="#F71735" stroke="#263238" stroke-linecap="round" stroke-linejoin="round"/>
<path d="M246.572 345.622H232.08V347.727H246.572V345.622Z" fill="white" stroke="#263238" stroke-linecap="round" stroke-linejoin="round"/>
<path d="M246.572 377.294H232.08V379.399H246.572V377.294Z" fill="white" stroke="#263238" stroke-linecap="round" stroke-linejoin="round"/>
<path d="M289.052 374.632V364.136C289.052 361.99 287.358 360.251 285.267 360.251H263.507C261.416 360.251 259.722 361.99 259.722 364.136V374.632C259.722 376.777 261.416 378.517 263.507 378.517H285.267C287.358 378.517 289.052 376.777 289.052 374.632Z" fill="white" stroke="#263238" stroke-linecap="round" stroke-linejoin="round"/>
<path d="M273.429 375.483C272.25 375.486 271.097 375.13 270.116 374.46C269.134 373.79 268.368 372.836 267.915 371.719C267.462 370.602 267.342 369.372 267.57 368.185C267.798 366.998 268.364 365.907 269.197 365.05C270.029 364.193 271.091 363.61 272.246 363.372C273.402 363.135 274.601 363.255 275.69 363.718C276.779 364.18 277.711 364.964 278.366 365.97C279.021 366.975 279.371 368.158 279.371 369.368C279.351 370.981 278.719 372.522 277.61 373.664C276.5 374.806 275 375.459 273.429 375.483Z" fill="#F71735" stroke="#263238" stroke-linecap="round" stroke-linejoin="round"/>
<path d="M290.696 376.814V361.938H288.645V376.814H290.696Z" fill="white" stroke="#263238" stroke-linecap="round" stroke-linejoin="round"/>
<path d="M259.857 376.814V361.938H257.806V376.814H259.857Z" fill="white" stroke="#263238" stroke-linecap="round" stroke-linejoin="round"/>
<path d="M322.53 348.873H302.458L305.474 379.012H319.529L322.53 348.873Z" fill="white" stroke="#263238" stroke-linecap="round" stroke-linejoin="round"/>
<path d="M305.821 362.991L307.073 375.576H317.93L319.182 362.991H305.821Z" fill="#F71735"/>
<path d="M174.58 361.179H154.991V378.424H174.58V361.179Z" fill="#263238" stroke="#263238" stroke-linecap="round" stroke-linejoin="round"/>
<path d="M221.825 282.169H107.76V364.786H221.825V282.169Z" fill="#263238" stroke="#263238" stroke-linecap="round" stroke-linejoin="round"/>
<path d="M216.909 288.625H112.646V358.3H216.909V288.625Z" fill="#4A4A4A" stroke="#263238" stroke-linecap="round" stroke-linejoin="round"/>
<path d="M223.032 376.272H136.865V379.028H223.032V376.272Z" fill="white" stroke="#263238" stroke-linecap="round" stroke-linejoin="round"/>
<path d="M365.116 362.929C365.116 362.929 341.968 326.69 345.512 318.377C349.055 310.064 361.134 324.306 361.134 324.306C361.134 324.306 343.204 275.59 355.359 264.909C367.513 254.228 371.555 308.872 371.555 308.872C371.555 308.872 382.548 277.386 391.234 289.259C399.92 301.132 377.919 326.086 377.919 326.086C377.919 326.086 392.999 326.69 388.927 336.783C384.855 346.876 373.847 357.573 373.847 357.573L365.116 362.929Z" fill="#F71735"/>
<path d="M358.752 354.616C358.752 354.616 344.863 334.368 351.77 330.25C358.676 326.133 362.19 338.563 362.19 338.563C362.19 338.563 362.778 283.919 373.772 288.067C384.765 292.216 380.708 325.498 380.708 325.498C380.708 325.498 394.597 315.993 394.024 329.662C393.451 343.331 374.933 355.204 374.933 355.204" stroke="#263238" stroke-linecap="round" stroke-linejoin="round"/>
<path d="M371.479 355.792L359.325 342.139" stroke="#263238" stroke-linecap="round" stroke-linejoin="round"/>
<path d="M372.068 362.325L371.479 328.47" stroke="#263238" stroke-linecap="round" stroke-linejoin="round"/>
<path d="M372.641 351.04L383.634 336.195" stroke="#263238" stroke-linecap="round" stroke-linejoin="round"/>
<path d="M382.473 352.232H351.815L354.876 380.158H379.411L382.473 352.232Z" fill="#263238" stroke="#263238" stroke-linecap="round" stroke-linejoin="round"/>
<path d="M387.102 379.693H95.8472V542.651H387.102V379.693Z" fill="white" stroke="#263238" stroke-linecap="round" stroke-linejoin="round"/>
<path d="M278.979 379.693H106.855V542.651H278.979V379.693Z" fill="#ADADAD" stroke="#263238" stroke-linecap="round" stroke-linejoin="round"/>
<path d="M391.279 379.693H91.6851V390.715H391.279V379.693Z" fill="#263238" stroke="#263238" stroke-linecap="round" stroke-linejoin="round"/>
<path d="M379.592 463.92H288.011V509.973H379.592V463.92Z" fill="white" stroke="#263238" stroke-linecap="round" stroke-linejoin="round"/>
<path d="M379.592 402.093H288.011V448.146H379.592V402.093Z" fill="#ADADAD" stroke="#263238" stroke-linecap="round" stroke-linejoin="round"/>
<path d="M350.714 481.583H316.905V492.31H350.714V481.583Z" fill="#263238" stroke="#263238" stroke-linecap="round" stroke-linejoin="round"/>
<path d="M272.042 508.085H180.461V542.156H272.042V508.085Z" fill="white" stroke="#263238" stroke-linecap="round" stroke-linejoin="round"/>
<path d="M217.332 496.103H125.751V542.156H217.332V496.103Z" fill="white" stroke="#263238" stroke-linecap="round" stroke-linejoin="round"/>
<path d="M211.797 496.103H120.216V542.156H211.797V496.103Z" fill="white" stroke="#263238" stroke-linecap="round" stroke-linejoin="round"/>
<path d="M182.919 513.766H149.11V524.493H182.919V513.766Z" fill="#263238" stroke="#263238" stroke-linecap="round" stroke-linejoin="round"/>
<path d="M161.475 436.598V426.102C161.475 423.957 159.781 422.217 157.69 422.217H135.93C133.839 422.217 132.145 423.957 132.145 426.102V436.598C132.145 438.744 133.839 440.483 135.93 440.483H157.69C159.781 440.483 161.475 438.744 161.475 436.598Z" fill="white" stroke="#263238" stroke-linecap="round" stroke-linejoin="round"/>
<path d="M145.837 437.465C144.658 437.468 143.504 437.111 142.522 436.441C141.54 435.77 140.774 434.815 140.322 433.697C139.869 432.579 139.75 431.349 139.979 430.161C140.209 428.974 140.776 427.883 141.61 427.027C142.444 426.17 143.507 425.588 144.664 425.352C145.821 425.117 147.019 425.239 148.109 425.704C149.198 426.169 150.128 426.955 150.781 427.963C151.434 428.971 151.782 430.155 151.779 431.366C151.779 432.983 151.153 434.535 150.038 435.678C148.924 436.822 147.413 437.465 145.837 437.465Z" fill="#F71735" stroke="#263238" stroke-linecap="round" stroke-linejoin="round"/>
<path d="M163.119 438.796V423.92H161.068V438.796H163.119Z" fill="white" stroke="#263238" stroke-linecap="round" stroke-linejoin="round"/>
<path d="M132.265 438.796V423.92H130.214V438.796H132.265Z" fill="white" stroke="#263238" stroke-linecap="round" stroke-linejoin="round"/>
<path d="M51.4516 334.136H106.313C110.821 334.14 115.144 335.981 118.331 339.256C121.518 342.53 123.308 346.969 123.308 351.597V421.954C123.308 425.907 121.778 429.699 119.054 432.495C116.331 435.29 112.637 436.861 108.786 436.861H48.9634C45.112 436.861 41.4182 435.29 38.6948 432.495C35.9714 429.699 34.4414 425.907 34.4414 421.954V351.597C34.4414 346.966 36.2336 342.525 39.4236 339.25C42.6136 335.975 46.9402 334.136 51.4516 334.136Z" fill="#4A4A4A" stroke="#263238" stroke-linecap="round" stroke-linejoin="round"/>
<path d="M43.052 334.136H97.913C102.424 334.136 106.751 335.975 109.941 339.25C113.131 342.525 114.923 346.966 114.923 351.597V421.954C114.923 425.907 113.393 429.699 110.67 432.495C107.946 435.29 104.253 436.861 100.401 436.861H40.5638C36.7123 436.861 33.0186 435.29 30.2952 432.495C27.5717 429.699 26.0417 425.907 26.0417 421.954V351.597C26.0417 346.966 27.8339 342.525 31.0239 339.25C34.214 335.975 38.5406 334.136 43.052 334.136Z" fill="#4A4A4A" stroke="#263238" stroke-linecap="round" stroke-linejoin="round"/>
<path d="M40.4583 440.452H123.308V465.592H40.4583C38.8585 465.592 37.3242 464.94 36.193 463.778C35.0618 462.617 34.4263 461.042 34.4263 459.4V446.629C34.4303 444.989 35.0675 443.418 36.1983 442.261C37.3291 441.103 38.8611 440.452 40.4583 440.452Z" fill="#4A4A4A" stroke="#263238" stroke-linecap="round" stroke-linejoin="round"/>
<path d="M97.4155 440.452H181.683C182.902 440.452 184.072 440.95 184.935 441.835C185.797 442.721 186.282 443.922 186.282 445.174V460.855C186.282 462.107 185.797 463.308 184.935 464.194C184.072 465.079 182.902 465.576 181.683 465.576H97.4155V440.452Z" fill="#4A4A4A" stroke="#263238" stroke-linecap="round" stroke-linejoin="round"/>
<path d="M112.646 550.763V486.428H129.792V479.245H145.008V466.319H68.7332V382.356H55.4326V465.685C55.434 468.676 56.3946 471.584 58.1661 473.96C59.9377 476.335 62.4217 478.045 65.2346 478.827V479.323H87.8697V486.505H103.538V551.088L59.459 562.234V567.265H67.1498L68.5522 564.385H105.649V567.265H111.244V564.385H111.998V560.082H112.224L111.998 564.416H149.094L150.497 567.296H158.188V562.265L112.646 550.763Z" fill="#263238" stroke="#263238" stroke-linecap="round" stroke-linejoin="round"/>
<path d="M655.24 322.139H646.9V375.762H655.24V322.139Z" fill="white" stroke="#263238" stroke-linecap="round" stroke-linejoin="round"/>
<path d="M673.894 247.018L620.272 252.745L628.265 331.607L681.887 325.88L673.894 247.018Z" fill="#263238" stroke="#263238" stroke-linecap="round" stroke-linejoin="round"/>
<path d="M674.965 380.328H627.161C627.161 377.906 628.099 375.583 629.767 373.87C631.436 372.157 633.699 371.195 636.058 371.195H666.068C668.427 371.195 670.69 372.157 672.359 373.87C674.027 375.583 674.965 377.906 674.965 380.328Z" fill="white" stroke="#263238" stroke-linecap="round" stroke-linejoin="round"/>
<path d="M621.189 349.693H540.647V378.888H621.189V349.693Z" fill="white" stroke="#263238" stroke-linecap="round" stroke-linejoin="round"/>
<path d="M609.921 340.105L529.454 343.683L529.887 353.936L610.354 350.359L609.921 340.105Z" fill="#F71735" stroke="#263238" stroke-linecap="round" stroke-linejoin="round"/>
<path d="M486.495 364.926H421.018V378.687H486.495V364.926Z" fill="white" stroke="#263238" stroke-linecap="round" stroke-linejoin="round"/>
<path d="M422.118 367.573H433.609" stroke="#263238" stroke-linecap="round" stroke-linejoin="round"/>
<path d="M437.439 371.334H439.008" stroke="#263238" stroke-linecap="round" stroke-linejoin="round"/>
<path d="M421.938 371.334H434.831" stroke="#263238" stroke-linecap="round" stroke-linejoin="round"/>
<path d="M422.208 375.22H427.517" stroke="#263238" stroke-linecap="round" stroke-linejoin="round"/>
<path d="M473.465 365.405C472.353 369.649 472.353 374.119 473.465 378.362H499.433C499.433 378.362 496.659 370.142 499.433 365.405H473.465Z" fill="white"/>
<path opacity="0.24" d="M473.465 365.405C472.353 369.649 472.353 374.119 473.465 378.362H499.433C499.433 378.362 496.659 370.142 499.433 365.405H473.465Z" fill="black" stroke="#263238" stroke-linecap="round" stroke-linejoin="round"/>
<path d="M473.465 365.405C472.353 369.649 472.353 374.119 473.465 378.362H499.433C499.433 378.362 496.659 370.142 499.433 365.405H473.465Z" stroke="#263238" stroke-linecap="round" stroke-linejoin="round"/>
<path d="M421.787 376.164V366.768C421.787 366.654 421.809 366.541 421.851 366.436C421.893 366.331 421.956 366.235 422.034 366.155C422.112 366.074 422.206 366.01 422.308 365.967C422.41 365.923 422.52 365.901 422.631 365.901H500.474C500.559 365.903 500.643 365.888 500.721 365.856C500.8 365.824 500.871 365.776 500.932 365.716C500.992 365.655 501.04 365.583 501.073 365.503C501.106 365.423 501.123 365.337 501.123 365.251C501.123 365.074 501.054 364.905 500.933 364.78C500.811 364.655 500.646 364.585 500.474 364.585H420.55C420.326 364.585 420.111 364.676 419.953 364.839C419.795 365.001 419.706 365.222 419.706 365.452V377.48C419.704 377.665 419.738 377.849 419.806 378.021C419.874 378.193 419.975 378.349 420.103 378.48C420.231 378.612 420.383 378.715 420.55 378.785C420.718 378.856 420.897 378.891 421.078 378.888H500.489C500.574 378.891 500.658 378.875 500.736 378.843C500.815 378.812 500.886 378.764 500.947 378.704C501.007 378.643 501.055 378.571 501.088 378.491C501.121 378.411 501.138 378.325 501.138 378.238C501.138 378.062 501.069 377.892 500.948 377.768C500.826 377.643 500.661 377.573 500.489 377.573H423.159C422.795 377.573 422.446 377.424 422.189 377.16C421.931 376.896 421.787 376.538 421.787 376.164Z" fill="#263238" stroke="#263238" stroke-linecap="round" stroke-linejoin="round"/>
<path d="M421.847 362.975C422.314 361.427 424.003 354.863 421.847 350.684H497.247V362.975H421.847Z" fill="white" stroke="#263238" stroke-linecap="round" stroke-linejoin="round"/>
<path d="M466.996 353.424H455.505" stroke="#263238" stroke-linecap="round" stroke-linejoin="round"/>
<path d="M451.675 357.186H450.106" stroke="#263238" stroke-linecap="round" stroke-linejoin="round"/>
<path d="M467.177 357.186H454.284" stroke="#263238" stroke-linecap="round" stroke-linejoin="round"/>
<path d="M466.906 361.071H461.598" stroke="#263238" stroke-linecap="round" stroke-linejoin="round"/>
<path d="M467.268 361.721V352.34C467.274 352.217 467.255 352.094 467.213 351.979C467.171 351.863 467.106 351.758 467.023 351.669C466.94 351.581 466.839 351.511 466.728 351.464C466.617 351.417 466.498 351.394 466.378 351.396H420.324C420.156 351.396 419.995 351.328 419.876 351.206C419.757 351.084 419.69 350.918 419.69 350.746C419.688 350.659 419.703 350.573 419.734 350.492C419.765 350.412 419.811 350.338 419.87 350.276C419.929 350.214 420 350.165 420.078 350.131C420.156 350.098 420.239 350.08 420.324 350.08H500.248C500.473 350.084 500.688 350.179 500.846 350.344C501.004 350.509 501.092 350.731 501.092 350.963V362.975C501.092 363.349 500.948 363.707 500.69 363.971C500.433 364.235 500.084 364.384 499.72 364.384H420.324C420.239 364.392 420.154 364.383 420.073 364.357C419.992 364.331 419.917 364.289 419.852 364.233C419.788 364.176 419.735 364.107 419.697 364.029C419.658 363.952 419.636 363.867 419.63 363.78C419.628 363.693 419.643 363.607 419.674 363.526C419.705 363.446 419.751 363.372 419.81 363.31C419.869 363.248 419.94 363.199 420.018 363.165C420.095 363.132 420.179 363.114 420.263 363.114H465.835C466.019 363.123 466.203 363.093 466.375 363.027C466.548 362.961 466.706 362.86 466.839 362.73C466.973 362.6 467.08 362.443 467.153 362.27C467.227 362.097 467.266 361.91 467.268 361.721Z" fill="#F71735" stroke="#263238" stroke-linecap="round" stroke-linejoin="round"/>
<path d="M724.638 379.693H433.383V542.651H724.638V379.693Z" fill="white" stroke="#263238" stroke-linecap="round" stroke-linejoin="round"/>
<path d="M718.666 399.307H587.772V453.146H718.666V399.307Z" fill="white" stroke="#263238" stroke-linecap="round" stroke-linejoin="round"/>
<path d="M664.831 423.966H641.593V427.496H664.831V423.966Z" fill="#263238"/>
<path d="M572.617 399.307H441.722V453.146H572.617V399.307Z" fill="white" stroke="#263238" stroke-linecap="round" stroke-linejoin="round"/>
<path d="M518.781 423.966H495.543V427.496H518.781V423.966Z" fill="#263238"/>
<path d="M572.617 468.224H441.722V522.063H572.617V468.224Z" fill="white" stroke="#263238" stroke-linecap="round" stroke-linejoin="round"/>
<path d="M518.781 492.883H495.543V496.413H518.781V492.883Z" fill="#263238"/>
<path d="M718.666 468.239H587.772V522.078H718.666V468.239Z" fill="#ADADAD" stroke="#263238" stroke-linecap="round" stroke-linejoin="round"/>
<path d="M712.469 468.239H593.94V522.078H712.469V468.239Z" fill="#737373" stroke="#263238" stroke-linecap="round" stroke-linejoin="round"/>
<path d="M718.666 489.88H587.772V543.719H718.666V489.88Z" fill="white" stroke="#263238" stroke-linecap="round" stroke-linejoin="round"/>
<path d="M718.666 495.406H587.772V549.246H718.666V495.406Z" fill="white" stroke="#263238" stroke-linecap="round" stroke-linejoin="round"/>
<path d="M664.831 520.561H641.593V524.091H664.831V520.561Z" fill="#263238"/>
<path d="M591.15 468.239C587.733 469.077 584.639 470.949 582.268 473.611C578.407 478.022 581.408 491.258 581.408 500.964C581.408 510.67 576.251 531.397 576.251 531.397C576.251 531.397 587.003 537.125 588.722 537.125H590.441L591.15 489.88C592.46 489.707 593.78 489.619 595.101 489.617C597.242 489.617 604.617 489.493 604.617 489.493C604.617 489.493 603.335 480.669 598.585 474.926C593.834 469.183 591.15 468.239 591.15 468.239Z" fill="#F71735" stroke="#263238" stroke-linecap="round" stroke-linejoin="round"/>
<path d="M604.617 489.493C604.617 489.493 596.021 475.809 591.301 474.493C586.581 473.177 585.269 482.434 585.269 483.781" stroke="#263238" stroke-linecap="round" stroke-linejoin="round"/>
<path d="M584.847 498.75C584.847 498.75 585.284 483.27 590.879 482.434C594.514 482.031 598.17 482.97 601.193 485.081" stroke="#263238" stroke-linecap="round" stroke-linejoin="round"/>
<path d="M728.8 379.693H429.206V390.715H728.8V379.693Z" fill="#263238" stroke="#263238" stroke-linecap="round" stroke-linejoin="round"/>
<path d="M683.394 488.146C683.394 488.146 679.579 516.01 683.877 521.908C688.175 527.806 705.788 543.425 712.936 539.509C720.084 535.592 717.701 529.246 711.986 522.883C706.271 516.521 700.073 510.159 699.605 505.762C699.138 501.366 698.097 488.642 698.097 488.642C698.097 488.642 688.16 488.146 683.394 488.146Z" fill="white" stroke="#263238" stroke-linecap="round" stroke-linejoin="round"/>
<path d="M683.877 521.908C686.205 524.82 688.806 527.491 691.643 529.88C691.139 526.168 690.291 522.514 689.11 518.967C688.561 517.126 687.626 515.43 686.37 513.999C685.114 512.568 683.568 511.437 681.841 510.685C681.932 515.623 682.46 519.973 683.877 521.908Z" fill="#F71735" stroke="#263238" stroke-linecap="round" stroke-linejoin="round"/>
<path d="M712.936 539.509C718.093 536.692 718.274 532.589 715.846 528.147C711.967 531.212 708.683 534.998 706.165 539.308C708.819 540.252 711.187 540.469 712.936 539.509Z" fill="#F71735" stroke="#263238" stroke-linecap="round" stroke-linejoin="round"/>
<path d="M640.507 488.146C639.902 491.133 639.106 494.075 638.124 496.954C636.692 500.871 635.741 509.184 638.124 513.1C640.507 517.016 650.505 518.967 652.887 511.134C655.27 503.301 657.653 490.097 657.653 490.097C657.653 490.097 649.555 484.725 640.507 488.146Z" fill="white" stroke="#263238" stroke-linecap="round" stroke-linejoin="round"/>
<path d="M652.887 511.134C653.068 510.546 653.249 509.927 653.43 509.276C648.499 506.66 640.974 506.428 636.676 506.552C636.621 508.832 637.14 511.087 638.184 513.1C640.507 517.032 650.505 518.967 652.887 511.134Z" fill="#F71735" stroke="#263238" stroke-linecap="round" stroke-linejoin="round"/>
<path d="M378.733 78.9944H174.73V343.439H378.733V78.9944Z" stroke="#263238" stroke-linecap="round" stroke-linejoin="round"/>
<path d="M365.764 95.8057H187.699V326.628H365.764V95.8057Z" stroke="#263238" stroke-linecap="round" stroke-linejoin="round"/>
<path d="M365.764 204.336H187.699V225.729H365.764V204.336Z" stroke="#263238" stroke-linecap="round" stroke-linejoin="round"/>
<path d="M188.302 234.986H365.673" stroke="#263238" stroke-linecap="round" stroke-linejoin="round"/>
<path d="M188.302 244.089H365.673" stroke="#263238" stroke-linecap="round" stroke-linejoin="round"/>
<path d="M188.302 253.191H365.673" stroke="#263238" stroke-linecap="round" stroke-linejoin="round"/>
<path d="M188.302 262.293H365.673" stroke="#263238" stroke-linecap="round" stroke-linejoin="round"/>
<path d="M188.302 271.395H365.673" stroke="#263238" stroke-linecap="round" stroke-linejoin="round"/>
<path d="M188.302 280.482H365.673" stroke="#263238" stroke-linecap="round" stroke-linejoin="round"/>
<path d="M188.302 289.584H365.673" stroke="#263238" stroke-linecap="round" stroke-linejoin="round"/>
<path d="M188.302 298.687H365.673" stroke="#263238" stroke-linecap="round" stroke-linejoin="round"/>
<path d="M188.302 307.789H365.673" stroke="#263238" stroke-linecap="round" stroke-linejoin="round"/>
<path d="M188.302 316.876H365.673" stroke="#263238" stroke-linecap="round" stroke-linejoin="round"/>
<path d="M618.251 145.389L529.161 138.416L519.727 265.432L608.817 272.405L618.251 145.389Z" stroke="#263238" stroke-linecap="round" stroke-linejoin="round"/>
<path d="M608.79 156.913L536.811 151.28L529.188 253.908L601.167 259.542L608.79 156.913Z" stroke="#263238" stroke-linecap="round" stroke-linejoin="round"/>
<path d="M493.522 211.039H425.028V302.758H493.522V211.039Z" stroke="#263238" stroke-linecap="round" stroke-linejoin="round"/>
<path d="M485.152 222.262H433.397V291.566H485.152V222.262Z" stroke="#263238" stroke-linecap="round" stroke-linejoin="round"/>
<path d="M556.36 528.379C556.36 528.379 553.736 424.028 517.801 412.279C481.141 400.344 441.978 401.35 404.022 403.115C368.222 404.787 332.136 403.78 296.426 406.211C257.113 408.889 242.545 427.418 233.874 464.725C229.13 485.594 226.492 506.909 226.003 528.332L217.241 555.314H565.122L556.36 528.379Z" fill="#ADADAD" stroke="#263238" stroke-linecap="round" stroke-linejoin="round"/>
<path d="M255.801 540.964V517.589C255.801 517.589 254.926 500.561 235.654 498.688C216.381 496.815 163.798 539.168 164.672 548.224C165.547 557.28 175.228 621.089 181.26 623.782C187.292 626.476 203.171 639.076 217.181 631.878C231.19 624.68 255.801 540.964 255.801 540.964Z" fill="#C9C9C9" stroke="#263238" stroke-linecap="round" stroke-linejoin="round"/>
<path d="M519.55 540.964V517.589C519.55 517.589 520.424 500.561 539.712 498.688C558.999 496.815 611.568 539.168 610.693 548.224C609.819 557.28 600.137 621.089 594.03 623.782C587.922 626.476 572.134 639.076 558.109 631.878C544.085 624.68 519.55 540.964 519.55 540.964Z" fill="#C9C9C9" stroke="#263238" stroke-linecap="round" stroke-linejoin="round"/>
<path d="M255.801 540.964C254.369 542.491 252.827 543.904 251.186 545.19C239.409 555.159 209.354 578.751 209.354 578.751H567.746L519.49 538.271L255.801 540.964Z" fill="#ADADAD" stroke="#263238" stroke-linecap="round" stroke-linejoin="round"/>
<path d="M209.354 578.751V615.934H567.504L567.746 578.751H209.354Z" fill="#4A4A4A" stroke="#263238" stroke-linecap="round" stroke-linejoin="round"/>
<path d="M197.954 652.513L186.734 688.581C186.517 689.294 186.466 690.049 186.585 690.786C186.704 691.523 186.99 692.22 187.42 692.823C187.85 693.425 188.412 693.916 189.06 694.255C189.708 694.593 190.425 694.771 191.153 694.773C191.9 694.774 192.636 694.588 193.298 694.233C193.96 693.877 194.528 693.361 194.953 692.73L221.629 653.411L197.954 652.513Z" fill="#263238" stroke="#263238" stroke-linecap="round" stroke-linejoin="round"/>
<path d="M579.101 652.513L590.305 688.581C590.526 689.293 590.58 690.048 590.463 690.785C590.346 691.522 590.061 692.22 589.633 692.823C589.204 693.426 588.642 693.917 587.994 694.256C587.346 694.595 586.629 694.772 585.902 694.773C585.153 694.774 584.414 694.588 583.75 694.233C583.086 693.877 582.515 693.361 582.087 692.73L555.44 653.411L579.101 652.513Z" fill="#263238" stroke="#263238" stroke-linecap="round" stroke-linejoin="round"/>
<path d="M601.781 537.605C595.975 534.679 589.416 534.23 581.529 538.271C565.755 546.367 567.504 578.751 567.504 578.751V601.568C567.5 605.057 566.149 608.401 563.746 610.868C561.343 613.335 558.085 614.722 554.686 614.726H222.187C218.787 614.726 215.525 613.341 213.118 610.873C210.712 608.406 209.358 605.059 209.354 601.568V578.751C209.354 578.751 211.119 546.367 195.345 538.271C187.458 534.23 180.883 534.679 175.078 537.605C170.211 540.173 166.249 544.242 163.75 549.239C161.251 554.237 160.34 559.912 161.144 565.469C163.602 584.184 168.292 616.894 172.559 630.036C178.697 648.922 178.697 652.528 191.831 657.018C203.232 660.919 349.764 658.055 388.429 657.234C427.094 658.055 573.627 660.919 585.027 657.018C598.177 652.528 598.177 648.922 604.3 630.036C608.567 616.894 613.257 584.169 615.73 565.469C616.535 559.91 615.622 554.233 613.12 549.235C610.618 544.236 606.652 540.169 601.781 537.605Z" fill="#4A4A4A" stroke="#263238" stroke-linecap="round" stroke-linejoin="round"/>
<path opacity="0.3" d="M269.056 553.426C269.056 553.426 280.095 551.026 284.257 551.506C287.419 551.772 290.437 552.977 292.943 554.974C295.718 556.862 322.319 554.973 325.093 559.215C327.868 563.457 307.435 563.472 300.03 563.472C292.626 563.472 300.03 564.896 306.967 565.376C313.904 565.856 315.759 569.169 315.759 572.497C315.759 575.825 289.942 577.156 277.878 573.844C265.814 570.531 278.33 566.243 281.573 564.819C284.815 563.395 276.491 560.546 268.166 560.546C259.842 560.546 261.697 557.234 272.796 554.85" fill="black"/>
<path d="M276.249 548.673C277.998 556.924 275.39 564.525 270.413 565.701C265.437 566.878 259.978 561.057 258.213 552.775C256.449 544.494 259.073 536.924 264.049 535.747C269.026 534.571 274.485 540.407 276.249 548.673Z" fill="white" stroke="#263238" stroke-linecap="round" stroke-linejoin="round"/>
<path d="M266.169 566.574C271.149 565.457 273.762 557.862 272.006 549.61C270.251 541.358 264.79 535.573 259.811 536.69C254.831 537.806 252.218 545.401 253.973 553.653C255.729 561.905 261.189 567.69 266.169 566.574Z" fill="white" stroke="#263238" stroke-linecap="round" stroke-linejoin="round"/>
<path d="M259.933 538.1L233.09 545.484L238.308 570.036L265.708 565.252C270.232 564.231 272.6 557.342 271.016 549.85C269.433 542.357 264.457 537.156 259.933 538.1Z" fill="#F71735" stroke="#263238" stroke-linecap="round" stroke-linejoin="round"/>
<path d="M243.104 556.104C244.612 562.884 242.41 569.122 238.308 570.036C234.206 570.949 229.743 566.197 228.295 559.416C226.847 552.636 229.004 546.398 233.09 545.484C237.177 544.571 241.686 549.323 243.104 556.104Z" fill="white" stroke="#263238" stroke-linecap="round" stroke-linejoin="round"/>
<path d="M312.034 558.023L307.193 559.943L340.279 575.577C346.022 574.599 351.634 572.936 357.003 570.624C367.408 566.429 380.422 560.376 380.422 560.376C380.422 560.376 393.059 567.636 399 567.636C404.942 567.636 414.985 567.249 414.985 567.249C414.985 567.249 403.042 561.088 399.739 558.828C396.437 556.568 389.334 550.422 376.335 550.809C363.336 551.196 363.698 549.664 353.278 551.955C342.858 554.246 312.034 558.023 312.034 558.023Z" fill="white" stroke="#263238" stroke-linecap="round" stroke-linejoin="round"/>
<path d="M355.525 543.456C355.525 543.456 352.509 545.809 341.832 549.648C331.155 553.487 306.862 555.84 306.862 555.84L337.278 571.46C337.278 571.46 342.601 576.104 357.802 566.816C373.002 557.528 378.341 555.113 378.341 555.113C383.15 557.999 388.246 560.35 393.541 562.125C401.157 564.478 414.08 564.478 414.08 564.478C414.08 564.478 399.634 558.286 392.787 552.76C385.941 547.233 383.739 545.747 383.739 545.747C383.739 545.747 366.925 552.822 355.525 543.456Z" fill="#F71735" stroke="#263238" stroke-linecap="round" stroke-linejoin="round"/>
<path d="M355.525 543.456C361.631 549.883 369.669 554.011 378.341 555.175" stroke="#263238" stroke-linecap="round" stroke-linejoin="round"/>
<path d="M283.05 408.842C283.05 408.842 282.568 435.762 281.542 441.737C280.517 447.713 280.034 457.217 280.034 457.217C280.034 457.217 296.049 460.7 300.905 460.7C305.761 460.7 310.617 460.205 310.617 460.205V425.297C310.784 420.109 311.288 414.937 312.125 409.817L313.633 404.338C313.633 404.338 301.493 401.845 292.264 402.79C283.035 403.734 283.05 408.842 283.05 408.842Z" fill="#F71735" stroke="#263238" stroke-linecap="round" stroke-linejoin="round"/>
<path d="M319.454 405.359C319.454 405.359 319.936 423.796 319.936 440.731C319.936 457.666 318.971 476.614 318.971 479.106C318.971 481.598 322.847 483.1 335.468 483.1C348.09 483.1 349.04 479.601 349.04 479.601V404.369C349.04 404.369 330.598 399.384 317.478 405.917" fill="#F71735"/>
<path d="M319.454 405.359C319.454 405.359 319.936 423.796 319.936 440.731C319.936 457.666 318.971 476.614 318.971 479.106C318.971 481.598 322.847 483.1 335.468 483.1C348.09 483.1 349.04 479.601 349.04 479.601V404.369C349.04 404.369 330.598 399.384 317.478 405.917" stroke="#263238" stroke-linecap="round" stroke-linejoin="round"/>
<path d="M318.971 471.629C318.971 471.629 337.414 477.109 349.553 470.081" stroke="#263238" stroke-linecap="round" stroke-linejoin="round"/>
<path d="M280.623 449.709C280.623 449.709 291.782 451.706 299.065 452.202C303.092 452.526 307.141 452.36 311.129 451.706" stroke="#263238" stroke-linecap="round" stroke-linejoin="round"/>
<path d="M320.6 539.648C320.6 540.006 320.496 540.357 320.302 540.654C320.108 540.952 319.833 541.184 319.51 541.322C319.188 541.459 318.833 541.494 318.491 541.425C318.149 541.355 317.834 541.182 317.588 540.929C317.341 540.676 317.173 540.353 317.105 540.002C317.037 539.65 317.072 539.286 317.205 538.955C317.339 538.624 317.565 538.341 317.855 538.142C318.145 537.943 318.486 537.837 318.835 537.837C319.303 537.837 319.752 538.028 320.083 538.368C320.414 538.707 320.6 539.168 320.6 539.648Z" fill="#F71735" stroke="#263238" stroke-linecap="round" stroke-linejoin="round"/>
<path d="M314.492 536.444C313.965 536.445 313.448 536.591 312.995 536.867C312.542 537.144 312.169 537.54 311.917 538.015C311.664 538.489 311.54 539.025 311.558 539.566C311.576 540.106 311.735 540.632 312.019 541.088C311.593 541.186 311.213 541.429 310.939 541.778C310.665 542.126 310.514 542.56 310.511 543.007C310.511 543.541 310.718 544.053 311.085 544.43C311.453 544.808 311.951 545.02 312.471 545.02C312.991 545.02 313.49 544.808 313.858 544.43C314.225 544.053 314.432 543.541 314.432 543.007C314.421 542.823 314.386 542.64 314.326 542.466H314.462C315.242 542.466 315.99 542.148 316.541 541.582C317.093 541.015 317.403 540.248 317.403 539.447C317.403 538.646 317.093 537.879 316.541 537.313C315.99 536.746 315.242 536.428 314.462 536.428L314.492 536.444Z" fill="white" stroke="#263238" stroke-linecap="round" stroke-linejoin="round"/>
<path d="M319.031 543.983C319.031 544.363 318.921 544.735 318.715 545.051C318.509 545.367 318.216 545.613 317.873 545.758C317.531 545.902 317.154 545.939 316.791 545.864C316.428 545.789 316.095 545.604 315.834 545.334C315.573 545.064 315.396 544.721 315.325 544.348C315.255 543.974 315.294 543.588 315.438 543.237C315.582 542.887 315.824 542.588 316.133 542.379C316.443 542.17 316.806 542.06 317.176 542.063C317.421 542.063 317.664 542.113 317.89 542.21C318.116 542.306 318.321 542.448 318.493 542.626C318.666 542.805 318.802 543.016 318.894 543.249C318.987 543.482 319.033 543.731 319.031 543.983Z" fill="#F71735" stroke="#263238" stroke-linecap="round" stroke-linejoin="round"/>
<path d="M282.402 550.035C282.148 550.185 281.846 550.225 281.563 550.147C281.281 550.069 281.04 549.878 280.894 549.617C280.748 549.357 280.709 549.047 280.785 548.757C280.861 548.467 281.047 548.219 281.301 548.069C281.427 547.995 281.565 547.947 281.709 547.928C281.853 547.909 281.999 547.919 282.139 547.958C282.279 547.997 282.411 548.063 282.525 548.154C282.64 548.245 282.737 548.358 282.809 548.487C282.881 548.616 282.928 548.759 282.947 548.907C282.965 549.054 282.955 549.204 282.918 549.348C282.88 549.492 282.815 549.626 282.726 549.744C282.638 549.862 282.528 549.961 282.402 550.035Z" fill="#F71735" stroke="#263238" stroke-linecap="round" stroke-linejoin="round"/>
<path d="M282.236 545.624C282.116 545.408 281.955 545.218 281.763 545.066C281.571 544.914 281.352 544.803 281.118 544.738C280.884 544.673 280.64 544.657 280.399 544.689C280.159 544.722 279.927 544.802 279.718 544.927C279.412 545.112 279.161 545.38 278.994 545.701C278.807 545.49 278.555 545.352 278.28 545.309C278.005 545.267 277.725 545.323 277.486 545.469C277.208 545.64 277.007 545.917 276.925 546.239C276.844 546.561 276.89 546.903 277.052 547.192C277.214 547.48 277.48 547.691 277.792 547.78C278.105 547.869 278.439 547.828 278.722 547.667C278.813 547.602 278.894 547.524 278.964 547.435V547.512C279.208 547.947 279.61 548.265 280.082 548.396C280.555 548.526 281.058 548.459 281.482 548.209C281.906 547.958 282.216 547.545 282.343 547.06C282.47 546.576 282.405 546.059 282.161 545.624H282.236Z" fill="white" stroke="#263238" stroke-linecap="round" stroke-linejoin="round"/>
<path d="M279.672 550.515C279.471 550.637 279.24 550.695 279.007 550.681C278.774 550.667 278.551 550.583 278.365 550.438C278.179 550.294 278.039 550.096 277.963 549.869C277.886 549.643 277.878 549.399 277.937 549.167C277.997 548.936 278.122 548.728 278.297 548.569C278.472 548.411 278.689 548.31 278.92 548.278C279.152 548.247 279.387 548.287 279.596 548.393C279.805 548.499 279.978 548.667 280.095 548.874C280.173 549.01 280.224 549.161 280.245 549.317C280.266 549.474 280.257 549.633 280.218 549.785C280.178 549.938 280.11 550.081 280.016 550.207C279.923 550.332 279.806 550.437 279.672 550.515Z" fill="#F71735" stroke="#263238" stroke-linecap="round" stroke-linejoin="round"/>
<path d="M324.852 555.732C324.597 555.875 324.297 555.911 324.017 555.833C323.736 555.755 323.495 555.569 323.344 555.314C323.232 555.118 323.179 554.892 323.192 554.665C323.205 554.438 323.284 554.22 323.418 554.039C323.553 553.858 323.737 553.722 323.946 553.649C324.156 553.575 324.383 553.568 324.597 553.627C324.811 553.686 325.003 553.81 325.148 553.982C325.294 554.153 325.386 554.366 325.413 554.592C325.441 554.817 325.402 555.046 325.302 555.25C325.202 555.453 325.045 555.621 324.852 555.732Z" fill="#F71735" stroke="#263238" stroke-linecap="round" stroke-linejoin="round"/>
<path d="M324.626 551.243C324.506 551.027 324.345 550.838 324.153 550.686C323.961 550.534 323.742 550.422 323.508 550.357C323.274 550.293 323.03 550.276 322.789 550.308C322.549 550.341 322.317 550.422 322.108 550.546C321.802 550.727 321.556 550.996 321.399 551.32C321.212 551.109 320.96 550.971 320.685 550.929C320.41 550.886 320.13 550.943 319.891 551.088C319.634 551.268 319.452 551.54 319.382 551.851C319.312 552.162 319.359 552.489 319.513 552.766C319.667 553.043 319.917 553.251 320.214 553.347C320.51 553.443 320.831 553.422 321.112 553.286C321.208 553.221 321.294 553.143 321.369 553.054C321.369 553.054 321.369 553.054 321.369 553.131C321.489 553.351 321.651 553.544 321.845 553.699C322.038 553.855 322.259 553.969 322.496 554.037C322.733 554.105 322.98 554.124 323.224 554.093C323.468 554.062 323.703 553.983 323.917 553.859C324.131 553.735 324.319 553.569 324.47 553.37C324.622 553.172 324.734 552.944 324.799 552.702C324.865 552.459 324.884 552.205 324.854 551.954C324.824 551.704 324.747 551.462 324.626 551.243Z" fill="white" stroke="#263238" stroke-linecap="round" stroke-linejoin="round"/>
<path d="M322.062 556.134C321.93 556.215 321.783 556.267 321.631 556.289C321.479 556.311 321.324 556.301 321.175 556.261C321.026 556.221 320.887 556.15 320.765 556.054C320.643 555.958 320.54 555.838 320.464 555.701C320.345 555.495 320.289 555.257 320.302 555.018C320.316 554.779 320.398 554.549 320.539 554.359C320.68 554.168 320.873 554.024 321.093 553.946C321.314 553.868 321.552 553.859 321.777 553.92C322.003 553.981 322.205 554.11 322.36 554.289C322.514 554.469 322.612 554.692 322.643 554.929C322.673 555.166 322.635 555.408 322.531 555.622C322.428 555.837 322.265 556.015 322.062 556.134Z" fill="#F71735" stroke="#263238" stroke-linecap="round" stroke-linejoin="round"/>
<path d="M302.247 548.704C302.247 549.062 302.144 549.412 301.95 549.71C301.756 550.008 301.48 550.24 301.158 550.377C300.836 550.514 300.481 550.55 300.139 550.48C299.796 550.411 299.482 550.238 299.235 549.985C298.989 549.731 298.82 549.409 298.752 549.057C298.684 548.706 298.719 548.342 298.853 548.011C298.986 547.68 299.212 547.397 299.503 547.198C299.793 546.999 300.134 546.893 300.483 546.893C300.951 546.893 301.4 547.084 301.73 547.423C302.061 547.763 302.247 548.224 302.247 548.704Z" fill="#F71735" stroke="#263238" stroke-linecap="round" stroke-linejoin="round"/>
<path d="M296.14 545.5C295.353 545.499 294.597 545.815 294.033 546.379C293.47 546.943 293.144 547.711 293.124 548.518C293.129 549.094 293.291 549.657 293.591 550.144C293.167 550.239 292.786 550.479 292.512 550.825C292.238 551.171 292.087 551.602 292.083 552.048C292.067 552.344 292.114 552.64 292.222 552.915C292.33 553.19 292.496 553.438 292.708 553.639C292.92 553.841 293.173 553.992 293.448 554.082C293.724 554.171 294.015 554.197 294.302 554.158C294.588 554.118 294.862 554.014 295.105 553.853C295.348 553.692 295.553 553.478 295.705 553.226C295.858 552.974 295.954 552.69 295.988 552.396C296.021 552.101 295.991 551.803 295.899 551.521H296.034C296.814 551.521 297.562 551.203 298.114 550.637C298.665 550.071 298.975 549.303 298.975 548.503C298.975 547.702 298.665 546.934 298.114 546.368C297.562 545.802 296.814 545.484 296.034 545.484L296.14 545.5Z" fill="white" stroke="#263238" stroke-linecap="round" stroke-linejoin="round"/>
<path d="M300.679 553.023C300.682 553.404 300.574 553.777 300.37 554.095C300.166 554.413 299.874 554.662 299.531 554.809C299.189 554.956 298.812 554.995 298.448 554.922C298.084 554.848 297.749 554.665 297.487 554.396C297.224 554.126 297.046 553.783 296.974 553.409C296.902 553.035 296.941 552.648 297.084 552.297C297.228 551.945 297.47 551.646 297.779 551.436C298.089 551.226 298.453 551.116 298.824 551.119C299.316 551.119 299.788 551.32 300.135 551.677C300.483 552.034 300.679 552.518 300.679 553.023Z" fill="#F71735" stroke="#263238" stroke-linecap="round" stroke-linejoin="round"/>
<path d="M306.032 544.586C305.905 544.718 305.753 544.822 305.586 544.893C305.419 544.965 305.24 545.001 305.06 545.001C304.879 545.001 304.7 544.965 304.533 544.893C304.366 544.822 304.214 544.718 304.087 544.586C303.896 544.389 303.766 544.138 303.713 543.865C303.661 543.592 303.688 543.309 303.792 543.052C303.896 542.795 304.072 542.575 304.298 542.421C304.523 542.266 304.788 542.184 305.06 542.184C305.331 542.184 305.596 542.266 305.821 542.421C306.047 542.575 306.223 542.795 306.327 543.052C306.431 543.309 306.458 543.592 306.406 543.865C306.353 544.138 306.223 544.389 306.032 544.586Z" fill="#F71735" stroke="#263238" stroke-linecap="round" stroke-linejoin="round"/>
<path d="M304.554 539.323C304.348 539.097 304.101 538.915 303.827 538.788C303.552 538.66 303.256 538.589 302.955 538.579C302.654 538.569 302.354 538.62 302.072 538.729C301.79 538.838 301.532 539.003 301.312 539.215C300.993 539.519 300.768 539.911 300.664 540.345C300.424 540.193 300.148 540.114 299.867 540.115C299.586 540.116 299.31 540.197 299.072 540.351C298.833 540.504 298.641 540.723 298.518 540.982C298.394 541.242 298.344 541.531 298.372 541.819C298.4 542.106 298.506 542.379 298.678 542.608C298.85 542.837 299.081 543.011 299.344 543.113C299.608 543.214 299.893 543.237 300.169 543.18C300.445 543.123 300.7 542.989 300.905 542.791C301.002 542.691 301.083 542.576 301.146 542.45V542.543C301.562 542.999 302.137 543.266 302.745 543.287C303.353 543.307 303.944 543.078 304.388 542.651C304.832 542.224 305.093 541.634 305.113 541.01C305.132 540.386 304.91 539.779 304.494 539.323H304.554Z" fill="white" stroke="#263238" stroke-linecap="round" stroke-linejoin="round"/>
<path d="M302.805 545.98C302.526 546.245 302.16 546.393 301.78 546.393C301.399 546.393 301.033 546.245 300.754 545.98C300.603 545.681 300.55 545.339 300.605 545.007C300.66 544.675 300.819 544.37 301.057 544.139C301.296 543.908 301.602 543.763 301.928 543.726C302.255 543.69 302.584 543.763 302.865 543.936C303.099 544.226 303.222 544.594 303.211 544.97C303.199 545.346 303.055 545.705 302.805 545.98Z" fill="#F71735" stroke="#263238" stroke-linecap="round" stroke-linejoin="round"/>
<path d="M331.819 543.147C331.646 543.324 331.426 543.445 331.186 543.494C330.946 543.543 330.697 543.518 330.471 543.422C330.246 543.326 330.052 543.163 329.917 542.954C329.781 542.745 329.708 542.5 329.708 542.249C329.708 541.998 329.781 541.753 329.917 541.544C330.052 541.335 330.246 541.172 330.471 541.076C330.697 540.98 330.946 540.955 331.186 541.004C331.426 541.053 331.646 541.174 331.819 541.351C331.934 541.469 332.025 541.609 332.087 541.763C332.149 541.917 332.181 542.082 332.181 542.249C332.181 542.416 332.149 542.581 332.087 542.735C332.025 542.889 331.934 543.029 331.819 543.147Z" fill="#F71735" stroke="#263238" stroke-linecap="round" stroke-linejoin="round"/>
<path d="M330.477 538.394C330.225 538.115 329.905 537.911 329.549 537.803C329.193 537.696 328.816 537.69 328.457 537.785C328.098 537.88 327.771 538.074 327.511 538.344C327.25 538.615 327.066 538.954 326.978 539.323C326.761 539.18 326.509 539.103 326.252 539.1C325.994 539.097 325.74 539.168 325.52 539.306C325.3 539.444 325.122 539.643 325.008 539.88C324.893 540.117 324.845 540.383 324.87 540.646C324.896 540.91 324.993 541.161 325.151 541.37C325.308 541.579 325.521 541.739 325.763 541.83C326.005 541.922 326.267 541.941 326.519 541.886C326.772 541.832 327.004 541.705 327.189 541.521C327.276 541.431 327.348 541.327 327.4 541.212C327.405 541.243 327.405 541.274 327.4 541.305C327.587 541.508 327.81 541.672 328.058 541.786C328.305 541.901 328.573 541.964 328.844 541.973C329.116 541.982 329.387 541.935 329.641 541.837C329.895 541.738 330.128 541.589 330.326 541.398C330.524 541.206 330.683 540.977 330.795 540.723C330.907 540.469 330.969 540.194 330.977 539.915C330.986 539.636 330.94 539.359 330.844 539.098C330.748 538.837 330.603 538.598 330.416 538.394H330.477Z" fill="white" stroke="#263238" stroke-linecap="round" stroke-linejoin="round"/>
<path d="M328.893 544.401C328.712 544.586 328.481 544.712 328.229 544.763C327.978 544.813 327.718 544.787 327.481 544.685C327.245 544.584 327.043 544.414 326.9 544.195C326.758 543.976 326.682 543.719 326.682 543.456C326.682 543.193 326.758 542.936 326.9 542.718C327.043 542.499 327.245 542.328 327.481 542.227C327.718 542.126 327.978 542.099 328.229 542.15C328.481 542.201 328.712 542.327 328.893 542.512C329.015 542.636 329.111 542.783 329.177 542.945C329.242 543.107 329.276 543.281 329.276 543.456C329.276 543.632 329.242 543.806 329.177 543.968C329.111 544.13 329.015 544.277 328.893 544.401Z" fill="#F71735" stroke="#263238" stroke-linecap="round" stroke-linejoin="round"/>
<path d="M500.262 543.023L456.199 552.62L489.586 571.135L534.992 560.856L500.262 543.023Z" fill="white" stroke="#263238" stroke-linecap="round" stroke-linejoin="round"/>
<path d="M446.849 543.023L425.481 566.336L466.212 567.698L482.906 545.082L446.849 543.023Z" fill="white" stroke="#263238" stroke-linecap="round" stroke-linejoin="round"/>
<path d="M530.317 525.887C529.644 529.031 528.338 531.996 526.484 534.592C524.63 537.188 522.268 539.359 519.55 540.964C510.276 546.459 505.601 549.199 505.601 549.199L519.625 566.336C519.625 566.336 542.336 561.537 551.007 538.224L530.317 525.887Z" fill="white" stroke="#263238" stroke-linecap="round" stroke-linejoin="round"/>
<path d="M400.207 389.895L410.145 410.22L445.884 524.354C445.884 524.354 445.884 546.429 450.846 549.834C459.773 555.949 476.648 555.949 487.581 542.698C498.514 529.447 492.542 517.233 492.542 517.233L452.806 393.966C452.806 393.966 447.845 379.693 436.927 377.666C421.967 374.864 403.193 376.644 400.207 389.895Z" fill="#F71735" stroke="#263238" stroke-linecap="round" stroke-linejoin="round"/>
<path d="M474.959 465.716C473.722 464.524 472.274 463.162 470.646 461.474C464.538 455.189 460.165 441.691 460.165 441.691V454.276C460.165 456.985 465.413 462.372 468.897 470.484C472.38 478.595 466.273 484.865 466.273 484.865C466.273 484.865 465.413 478.58 463.664 470.484C461.915 462.388 458.416 466.877 454.058 461.474C451.3 457.804 449.499 453.472 448.825 448.889V458.781C448.825 464.183 451.434 465.979 454.058 470.484C456.682 474.988 454.058 487.512 454.058 487.512C452.507 483.804 450.76 480.187 448.825 476.676C446.201 472.186 444.452 476.676 443.411 472.96C442.371 469.245 437.47 455.096 437.47 455.096C436.81 460.165 436.518 465.277 436.595 470.391C436.595 480.282 437.47 475.778 440.094 482.078C442.718 488.379 443.577 491.072 441.828 500.066C441.41 502.377 441.248 504.73 441.345 507.078L446.774 524.431C446.774 524.431 446.774 545.732 451.555 549.014C460.135 554.927 476.361 554.927 486.857 542.141C497.352 529.354 491.637 517.543 491.637 517.543L474.959 465.716Z" fill="white"/>
<path d="M437.998 398.037L428.135 401.737L435.102 421.954L445.447 417.774L437.998 398.037Z" fill="#737373" stroke="#263238" stroke-linecap="round" stroke-linejoin="round"/>
<path d="M457.511 402.48C456.425 397.975 453.832 394.74 451.72 395.282L444.995 397.836L448.976 414.198L455.701 411.722C457.813 411.118 458.612 407.016 457.511 402.48Z" fill="#263238" stroke="#263238" stroke-linecap="round" stroke-linejoin="round"/>
<path d="M450.785 404.972C451.886 409.477 451.072 413.579 448.975 414.121C446.879 414.663 444.285 411.427 443.185 406.907C442.084 402.387 442.898 398.3 444.994 397.774C447.09 397.248 449.684 400.452 450.785 404.972Z" fill="#263238" stroke="#263238" stroke-linecap="round" stroke-linejoin="round"/>
<path d="M448.538 405.839C449.036 407.867 448.75 409.694 447.905 409.91C447.061 410.127 445.96 408.657 445.477 406.613C444.995 404.57 445.266 402.759 446.111 402.542C446.955 402.325 448.041 403.796 448.538 405.839Z" fill="white" stroke="#263238" stroke-linecap="round" stroke-linejoin="round"/>
<path d="M429.583 415.034C429.017 415.032 428.471 414.823 428.042 414.446C427.612 414.068 427.328 413.546 427.239 412.973C427.15 412.4 427.263 411.813 427.557 411.317C427.851 410.821 428.307 410.449 428.844 410.266L443.924 405.235C444.524 405.034 445.177 405.083 445.742 405.373C446.306 405.663 446.737 406.17 446.94 406.783C447.041 407.088 447.082 407.411 447.061 407.732C447.04 408.053 446.957 408.367 446.817 408.655C446.676 408.943 446.482 409.2 446.244 409.41C446.006 409.62 445.73 409.78 445.432 409.879L430.352 414.895C430.106 414.99 429.845 415.037 429.583 415.034Z" fill="#737373" stroke="#263238" stroke-linecap="round" stroke-linejoin="round"/>
<path d="M431.423 412.48C430.322 407.96 427.728 404.74 425.632 405.282L418.906 407.743L422.887 424.152L429.613 421.691C431.694 421.056 432.523 416.985 431.423 412.48Z" fill="#263238" stroke="#263238" stroke-linecap="round" stroke-linejoin="round"/>
<path d="M424.697 414.941C425.782 419.462 424.983 423.548 422.887 424.09C420.791 424.632 418.197 421.412 417.096 416.892C415.995 412.372 416.81 408.285 418.906 407.743C421.002 407.201 423.596 410.421 424.697 414.941Z" fill="#263238" stroke="#263238" stroke-linecap="round" stroke-linejoin="round"/>
<path d="M422.435 415.808C422.932 417.852 422.646 419.678 421.801 419.895C420.957 420.112 419.871 418.626 419.374 416.598C418.876 414.57 419.162 412.743 420.007 412.527C420.851 412.31 421.952 413.78 422.435 415.808Z" fill="white" stroke="#263238" stroke-linecap="round" stroke-linejoin="round"/>
<path d="M472.711 497.868L462.864 501.567L469.831 521.784L480.161 517.589L472.711 497.868Z" fill="#737373" stroke="#263238" stroke-linecap="round" stroke-linejoin="round"/>
<path d="M492.24 502.326C491.139 497.806 488.545 494.586 486.449 495.128L479.724 497.589L483.705 513.936L490.43 511.475C492.527 510.933 493.341 506.846 492.24 502.326Z" fill="#263238" stroke="#263238" stroke-linecap="round" stroke-linejoin="round"/>
<path d="M485.514 504.787C486.615 509.308 485.801 513.41 483.705 513.936C481.609 514.462 479.015 511.258 477.914 506.738C476.813 502.218 477.628 498.131 479.724 497.589C481.82 497.047 484.474 500.283 485.514 504.787Z" fill="#263238" stroke="#263238" stroke-linecap="round" stroke-linejoin="round"/>
<path d="M483.253 505.654C483.75 507.698 483.464 509.524 482.619 509.741C481.775 509.958 480.689 508.487 480.191 506.444C479.694 504.4 479.98 502.589 480.825 502.373C481.669 502.156 482.77 503.626 483.253 505.654Z" fill="white" stroke="#263238" stroke-linecap="round" stroke-linejoin="round"/>
<path d="M464.297 514.865C463.724 514.87 463.169 514.664 462.732 514.284C462.296 513.904 462.007 513.375 461.919 512.795C461.831 512.214 461.95 511.62 462.254 511.122C462.557 510.624 463.026 510.254 463.573 510.082L478.653 505.066C478.95 504.964 479.263 504.924 479.576 504.947C479.888 504.969 480.193 505.055 480.473 505.199C480.753 505.342 481.003 505.541 481.208 505.784C481.413 506.027 481.57 506.309 481.669 506.614C481.768 506.919 481.807 507.241 481.785 507.561C481.763 507.882 481.679 508.195 481.539 508.483C481.399 508.77 481.206 509.026 480.969 509.237C480.732 509.448 480.458 509.608 480.161 509.71L465.081 514.726C464.829 514.816 464.564 514.863 464.297 514.865Z" fill="#737373" stroke="#263238" stroke-linecap="round" stroke-linejoin="round"/>
<path d="M466.137 512.295C465.036 507.79 462.442 504.555 460.346 505.097L453.62 507.574L457.601 523.921L464.327 521.444C466.378 520.917 467.237 516.815 466.137 512.295Z" fill="#263238" stroke="#263238" stroke-linecap="round" stroke-linejoin="round"/>
<path d="M459.411 514.772C460.512 519.277 459.697 523.379 457.601 523.921C455.505 524.463 452.911 521.227 451.811 516.722C450.71 512.218 451.524 508.1 453.62 507.574C455.716 507.047 458.31 510.252 459.411 514.772Z" fill="#263238" stroke="#263238" stroke-linecap="round" stroke-linejoin="round"/>
<path d="M457.164 515.639C457.661 517.667 457.375 519.493 456.515 519.71C455.656 519.927 454.585 518.456 454.087 516.428C453.59 514.4 453.876 512.558 454.736 512.342C455.595 512.125 456.666 513.595 457.164 515.639Z" fill="white" stroke="#263238" stroke-linecap="round" stroke-linejoin="round"/>
</svg>
