<svg width="331" height="332" viewBox="0 0 331 332" fill="none" xmlns="http://www.w3.org/2000/svg">
<path d="M329.93 222.863H203.479V148.194H329.93V222.863ZM204.251 222.076H329.158V148.981H204.251V222.076Z" fill="#E0E0E0"/>
<path d="M303.842 188.009H220.414V190.504H303.842V188.009Z" fill="#FFD6D6"/>
<path d="M309.591 197.315H220.414V200.039H309.591V197.315Z" fill="#FFD6D6"/>
<path d="M309.591 206.731H220.414V209.455H309.591V206.731Z" fill="#FFD6D6"/>
<path d="M249.571 174.49H220.414V180.97H249.571V174.49Z" fill="#FFD6D6"/>
<path d="M329.543 148.588H203.888V160.476H329.543V148.588Z" fill="#E0E0E0"/>
<path d="M319.875 158.697C319.713 158.539 321.334 156.548 323.486 154.249C325.639 151.95 327.529 150.21 327.684 150.359C327.838 150.509 326.225 152.509 324.073 154.816C321.92 157.122 320.03 158.854 319.875 158.697Z" fill="#FFD6D6"/>
<path d="M327.699 158.697C327.545 158.854 325.662 157.122 323.502 154.816C321.342 152.509 319.729 150.517 319.891 150.359C320.053 150.202 321.928 151.934 324.088 154.249C326.249 156.563 327.846 158.539 327.699 158.697Z" fill="#FFD6D6"/>
<path d="M174.329 0.72229H48.6738V74.6117H174.329V0.72229Z" fill="#E6E6E6"/>
<path d="M148.636 40.151H65.208V42.6468H148.636V40.151Z" fill="#FFD6D6"/>
<path d="M154.384 49.457H65.208V52.1811H154.384V49.457Z" fill="#FFD6D6"/>
<path d="M154.384 58.8733H65.208V61.5974H154.384V58.8733Z" fill="#FFD6D6"/>
<path d="M94.3651 26.6328H65.208V33.1124H94.3651V26.6328Z" fill="#FFD6D6"/>
<path d="M174.329 0.72229H48.6738V12.6107H174.329V0.72229Z" fill="#E0E0E0"/>
<path d="M164.238 10.7762C164.076 10.6266 165.696 8.62684 167.849 6.32788C170.001 4.02892 171.892 2.28896 172.046 2.44642C172.2 2.60388 170.588 4.59579 168.435 6.89474C166.282 9.1937 164.392 10.9179 164.238 10.7762Z" fill="#FFD6D6"/>
<path d="M172.046 10.7762C171.892 10.9337 170.009 9.20161 167.849 6.89478C165.688 4.58795 164.076 2.60392 164.238 2.44646C164.4 2.289 166.275 4.02109 168.435 6.32792C170.595 8.63475 172.208 10.6267 172.046 10.7762Z" fill="#FFD6D6"/>
<path d="M126.74 137.983H0.3125V63.3059H126.74V137.983ZM1.08406 137.195H125.968V64.0932H1.08406V137.195Z" fill="#E0E0E0"/>
<path d="M100.661 103.128H17.2324V105.624H100.661V103.128Z" fill="#FFD6D6"/>
<path d="M106.409 112.434H17.2324V115.158H106.409V112.434Z" fill="#FFD6D6"/>
<path d="M106.409 121.851H17.2324V124.575H106.409V121.851Z" fill="#FFD6D6"/>
<path d="M46.3895 89.6101H17.2324V96.0897H46.3895V89.6101Z" fill="#FFD6D6"/>
<path d="M126.354 63.6996H0.698242V75.588H126.354V63.6996Z" fill="#E0E0E0"/>
<path d="M272.649 155.091H124.278V290.635H272.649V155.091Z" fill="#E6E6E6"/>
<path d="M131.739 112.395H15.5117V235.617H131.739V112.395Z" fill="#FFD6D6"/>
<path d="M131.739 112.395H15.5117V125.819H131.739V112.395Z" fill="#E0E0E0"/>
<path d="M25.1102 118.969C25.089 119.456 24.9282 119.926 24.6478 120.32C24.3674 120.714 23.9796 121.016 23.5327 121.188C23.0857 121.359 22.5992 121.393 22.1336 121.285C21.668 121.177 21.2437 120.932 20.9135 120.58C20.5832 120.228 20.3615 119.784 20.2759 119.305C20.1902 118.826 20.2444 118.331 20.4317 117.883C20.619 117.435 20.9311 117.053 21.3294 116.784C21.7277 116.515 22.1945 116.371 22.6721 116.371C23.3324 116.387 23.9595 116.67 24.4163 117.157C24.8731 117.644 25.1226 118.295 25.1102 118.969Z" fill="#FFD6D6"/>
<path d="M35.0097 118.969C34.99 119.458 34.8299 119.93 34.5491 120.327C34.2683 120.724 33.8794 121.028 33.4306 121.201C32.9819 121.374 32.4932 121.409 32.0254 121.301C31.5575 121.192 31.1312 120.946 30.7994 120.593C30.4676 120.239 30.2451 119.794 30.1594 119.312C30.0738 118.831 30.1288 118.334 30.3177 117.884C30.5066 117.434 30.8209 117.051 31.2217 116.782C31.6225 116.513 32.0919 116.37 32.5716 116.371C33.2319 116.387 33.859 116.67 34.3159 117.157C34.7727 117.644 35.0221 118.295 35.0097 118.969Z" fill="#FFD6D6"/>
<path d="M44.9091 118.969C44.8895 119.458 44.7293 119.93 44.4485 120.327C44.1677 120.724 43.7788 121.028 43.3301 121.201C42.8813 121.374 42.3926 121.409 41.9248 121.301C41.457 121.192 41.0306 120.946 40.6988 120.593C40.3671 120.239 40.1445 119.794 40.0588 119.312C39.9732 118.831 40.0282 118.334 40.2171 117.884C40.406 117.434 40.7204 117.051 41.1211 116.782C41.5219 116.513 41.9913 116.37 42.471 116.371C43.1314 116.387 43.7584 116.67 44.2153 117.157C44.6721 117.644 44.9216 118.295 44.9091 118.969Z" fill="#FFD6D6"/>
<path d="M313.333 27.672H164.963V178.569H313.333V27.672Z" fill="#FFD6D6"/>
<path d="M313.333 27.672H164.963V45.3472H313.333V27.672Z" fill="#E0E0E0"/>
<path d="M177.601 36.3325C177.574 36.9751 177.362 37.5954 176.992 38.1163C176.623 38.6373 176.111 39.0359 175.521 39.2628C174.932 39.4897 174.29 39.5349 173.675 39.3926C173.06 39.2504 172.5 38.9271 172.064 38.4628C171.628 37.9985 171.335 37.4137 171.221 36.781C171.108 36.1483 171.179 35.4956 171.426 34.9039C171.674 34.3122 172.085 33.8076 172.611 33.4527C173.137 33.0978 173.753 32.9083 174.383 32.9077C175.254 32.9284 176.082 33.3003 176.685 33.9422C177.288 34.5841 177.617 35.4435 177.601 36.3325Z" fill="#FFD6D6"/>
<path d="M189.692 34.0178C190.119 34.4918 190.401 35.0838 190.501 35.7199C190.602 36.3561 190.516 37.0083 190.256 37.5953C189.996 38.1824 189.572 38.6783 189.037 39.0212C188.503 39.3642 187.881 39.539 187.25 39.524C186.618 39.509 186.005 39.3047 185.487 38.9367C184.969 38.5687 184.568 38.0531 184.335 37.4544C184.102 36.8556 184.046 36.2 184.176 35.5693C184.305 34.9386 184.613 34.3607 185.062 33.9076C185.691 33.297 186.531 32.9657 187.399 32.9864C188.267 33.007 189.091 33.378 189.692 34.0178Z" fill="#FFD6D6"/>
<path d="M203.664 36.3325C203.637 36.9751 203.425 37.5954 203.056 38.1163C202.686 38.6373 202.175 39.0359 201.585 39.2628C200.995 39.4897 200.353 39.5349 199.738 39.3926C199.124 39.2504 198.563 38.9271 198.127 38.4628C197.691 37.9985 197.398 37.4137 197.285 36.781C197.172 36.1483 197.243 35.4956 197.49 34.9039C197.737 34.3122 198.149 33.8076 198.675 33.4527C199.2 33.0978 199.817 32.9083 200.447 32.9077C201.318 32.9284 202.146 33.3003 202.749 33.9422C203.352 34.5841 203.681 35.4435 203.664 36.3325Z" fill="#FFD6D6"/>
<path d="M281.282 330.67C281.282 330.78 227.706 330.875 161.637 330.875C95.5688 330.875 41.9688 330.78 41.9688 330.67C41.9688 330.56 95.5379 330.465 161.637 330.465C227.736 330.465 281.282 330.568 281.282 330.67Z" fill="#011627"/>
<path d="M256.36 20.9012L252.387 22.3499L250.682 17.0512C247.549 7.28067 237.565 2.09227 228.392 5.39111C219.218 8.68996 214.334 19.4053 217.466 29.1759L219.171 34.4745L215.183 35.931C213.661 36.5331 212.426 37.71 211.734 39.2174C211.041 40.7247 210.944 42.4464 211.464 44.0246L222.52 78.5011C222.75 79.2824 223.131 80.0086 223.641 80.6366C224.151 81.2647 224.779 81.7817 225.489 82.157C226.198 82.5323 226.975 82.7582 227.772 82.8213C228.568 82.8844 229.37 82.7834 230.128 82.5243L271.305 67.4945C272.847 66.8935 274.099 65.7061 274.8 64.1819C275.501 62.6578 275.595 60.9157 275.063 59.3221L263.999 24.8456C263.763 24.0666 263.377 23.3439 262.861 22.7207C262.346 22.0975 261.713 21.5866 261 21.2185C260.288 20.8503 259.509 20.6325 258.712 20.578C257.915 20.5235 257.115 20.6334 256.36 20.9012ZM224.974 26.4124C224.129 23.8719 224.281 21.0964 225.397 18.6675C226.513 16.2385 228.507 14.3445 230.961 13.3824C232.173 12.9593 233.456 12.7896 234.733 12.8835C236.01 12.9774 237.256 13.3329 238.396 13.9288C239.536 14.5247 240.547 15.3488 241.368 16.352C242.189 17.3551 242.803 18.5167 243.175 19.7675L244.872 25.0661L226.671 31.711L224.974 26.4124ZM248.12 57.0074L250.944 65.8096C250.996 65.9861 250.979 66.1762 250.897 66.3404C250.815 66.5046 250.675 66.6303 250.504 66.6914L246.546 68.1322C246.389 68.1767 246.22 68.1574 246.077 68.0781C245.933 67.9989 245.825 67.8659 245.775 67.707L242.928 58.9442C241.358 58.8569 239.852 58.2824 238.611 57.2974C237.37 56.3125 236.453 54.9642 235.984 53.433C235.313 51.4088 235.435 49.1981 236.325 47.2639C237.215 45.3297 238.804 43.8219 240.76 43.0562C241.725 42.7197 242.747 42.5849 243.764 42.6599C244.782 42.7349 245.774 43.0181 246.682 43.4927C247.59 43.9673 248.395 44.6236 249.049 45.4224C249.703 46.2212 250.193 47.1462 250.489 48.1423C250.985 49.6976 251.026 51.367 250.607 52.9458C250.188 54.5246 249.326 55.9444 248.128 57.031L248.12 57.0074Z" fill="#F71735"/>
<path d="M252.21 22.2554C252.21 22.3656 244.841 25.192 235.675 28.5539C226.509 31.9157 219.033 34.6162 218.994 34.5375C218.956 34.4587 226.363 31.6087 235.536 28.239C244.71 24.8692 252.171 22.153 252.21 22.2554Z" fill="#011627"/>
<path d="M260.959 23.7041C260.993 23.7724 261.021 23.8435 261.043 23.9167C261.105 24.0741 261.175 24.2788 261.267 24.5308C261.468 25.1055 261.746 25.9007 262.093 26.8927L265.055 35.6949C266.29 39.4268 267.764 43.8515 269.399 48.7643C270.171 51.2286 271.081 53.7952 271.93 56.4957C272.384 57.8874 272.581 59.3531 272.509 60.8181C272.443 61.58 272.231 62.3211 271.884 62.999C271.513 63.6745 271.018 64.2707 270.426 64.7547C269.233 65.6426 267.91 66.3309 266.506 66.7938L262.532 68.2503L255.01 70.9981L242.271 75.6275L233.669 78.7137L231.354 79.5011L230.737 79.7058C230.671 79.7357 230.6 79.7543 230.528 79.7609C230.528 79.7609 230.59 79.7609 230.721 79.6664L231.323 79.4223L233.638 78.5327L242.194 75.3204L254.91 70.5965L262.417 67.8252L266.39 66.3608C267.755 65.9167 269.039 65.2493 270.194 64.3846C270.745 63.9355 271.206 63.3822 271.552 62.7549C271.879 62.128 272.076 61.4393 272.131 60.7315C272.202 59.32 272.013 57.9074 271.575 56.5666C270.742 53.8897 269.862 51.2995 269.068 48.8352C267.463 43.9145 265.981 39.474 264.809 35.7421C263.636 32.0103 262.648 29.0106 261.969 26.9006C261.645 25.8692 261.398 25.0662 261.198 24.4835L261.013 23.8537C260.989 23.806 260.971 23.7558 260.959 23.7041Z" fill="#011627"/>
<path d="M239.232 12.847C239.232 12.847 238.824 12.6423 238.067 12.3274C236.99 11.9048 235.85 11.6706 234.696 11.6346C232.985 11.5747 231.283 11.9028 229.711 12.5951C227.801 13.4572 226.167 14.8516 224.997 16.6183C223.82 18.3799 223.188 20.4617 223.184 22.594C223.2 24.3416 223.46 26.078 223.956 27.7509C224.357 29.1838 224.774 30.3254 225.051 31.1206C225.215 31.5245 225.349 31.9403 225.452 32.3646C225.233 31.9869 225.05 31.5889 224.905 31.1757C224.588 30.3884 224.133 29.2704 223.686 27.8296C223.136 26.1392 222.837 24.3745 222.798 22.594C222.778 20.3812 223.424 18.2154 224.65 16.39C225.86 14.5587 227.561 13.1212 229.549 12.2487C231.17 11.5526 232.925 11.2455 234.68 11.3511C235.859 11.4125 237.018 11.6926 238.098 12.1778C238.387 12.3138 238.666 12.4717 238.932 12.6502C239.041 12.6994 239.143 12.7658 239.232 12.847Z" fill="#011627"/>
<path d="M239.588 43.6546C239.711 43.5784 239.84 43.5126 239.973 43.4577C240.36 43.2799 240.76 43.1351 241.169 43.0247C241.82 42.8289 242.49 42.7126 243.168 42.6783C244.089 42.6278 245.01 42.7698 245.876 43.0956C247.851 43.8042 249.664 45.8591 250.559 48.6068C250.988 50.0813 250.988 51.6514 250.559 53.126C250.083 54.7264 249.23 56.1834 248.075 57.3696L248.121 57.157C249.147 60.0307 250.266 63.1485 251.423 66.4001L251.493 66.5969L251.3 66.6678L249.533 67.2661L245.675 68.5809L245.482 68.6439L245.42 68.4471C244.363 65.1876 243.206 62.1486 242.334 59.1647L242.504 59.2985C240.996 59.1707 239.558 58.5929 238.369 57.6373C237.293 56.7918 236.411 55.7171 235.784 54.488C235.218 53.3981 234.937 52.1781 234.966 50.9451C235.002 49.685 235.31 48.4485 235.869 47.3242C236.428 46.1999 237.223 45.2156 238.199 44.4419C238.6 44.1093 239.051 43.8436 239.534 43.6546C239.098 43.9184 238.675 44.2049 238.268 44.5127C237.197 45.4377 236.376 46.6278 235.884 47.9691C235.462 48.9805 235.265 50.0747 235.306 51.1732C235.347 52.2717 235.626 53.3473 236.123 54.3227C236.74 55.5051 237.601 56.5366 238.646 57.346C239.781 58.2544 241.152 58.802 242.589 58.9206H242.72L242.759 59.0387C243.607 61.9675 244.772 65.0302 245.845 68.3054L245.59 68.1794L249.448 66.8646L251.207 66.2584L251.084 66.5261C249.934 63.2744 248.823 60.1488 247.805 57.2751V57.157L247.897 57.0625C249.019 55.9256 249.855 54.5293 250.335 52.9921C250.745 51.5816 250.745 50.0803 250.335 48.6698C249.494 46.0244 247.758 44.0167 245.876 43.3082C245.042 42.9803 244.153 42.8276 243.26 42.8594C242.594 42.875 241.931 42.9674 241.285 43.1349C240.135 43.4262 239.595 43.6939 239.588 43.6546Z" fill="#011627"/>
<path d="M215.739 270.984L138.668 270.622C134.217 270.597 129.958 268.77 126.826 265.543C123.694 262.316 121.946 257.953 121.964 253.411L122.782 56.2595C122.791 54.0094 123.235 51.7832 124.087 49.7081C124.94 47.633 126.185 45.7498 127.752 44.1661C129.318 42.5823 131.175 41.3291 133.216 40.4781C135.257 39.627 137.443 39.1949 139.648 39.2063L216.711 39.5684C221.162 39.5914 225.422 41.4159 228.555 44.6414C231.689 47.8669 233.439 52.2296 233.423 56.7713L232.605 253.915C232.596 256.166 232.153 258.393 231.3 260.469C230.448 262.544 229.203 264.429 227.636 266.014C226.07 267.599 224.214 268.853 222.172 269.706C220.131 270.559 217.945 270.993 215.739 270.984Z" fill="#455A64"/>
<path d="M216.595 46.3472H201.658C201.171 46.3565 200.69 46.4636 200.243 46.6625C199.796 46.8613 199.392 47.1481 199.054 47.5063C198.716 47.8646 198.45 48.2873 198.272 48.7504C198.094 49.2134 198.007 49.7077 198.016 50.2051V52.9686C198.026 53.4655 197.939 53.9594 197.76 54.422C197.582 54.8847 197.316 55.3069 196.978 55.6645C196.64 56.0221 196.236 56.3081 195.789 56.5061C195.342 56.7042 194.862 56.8103 194.375 56.8185L165.256 56.6847C164.271 56.6579 163.337 56.2332 162.658 55.504C161.98 54.7748 161.613 53.8006 161.637 52.7953V50.0319C161.662 49.028 161.296 48.0549 160.619 47.3259C159.943 46.5969 159.01 46.1714 158.027 46.1425H152.772L139.694 46.0796C136.584 46.0607 133.593 47.3003 131.376 49.527C129.159 51.7537 127.897 54.7861 127.866 57.9601L127.095 250.395C127.088 251.97 127.385 253.531 127.969 254.988C128.553 256.446 129.412 257.772 130.498 258.89C131.585 260.009 132.876 260.898 134.299 261.508C135.722 262.117 137.249 262.434 138.792 262.441L215.7 262.804C217.245 262.811 218.775 262.508 220.204 261.911C221.634 261.315 222.934 260.437 224.031 259.328C225.128 258.219 226 256.9 226.597 255.448C227.195 253.995 227.506 252.436 227.513 250.86L228.284 58.4246C228.303 55.2416 227.082 52.1814 224.89 49.9167C222.698 47.652 219.715 46.3681 216.595 46.3472Z" fill="#FFD6D6"/>
<path d="M206.249 237.129L149.061 236.877C148.467 236.877 147.988 236.216 147.996 235.413L148.058 220.147C148.058 219.36 148.544 218.682 149.138 218.682L206.326 218.95C206.655 219.008 206.95 219.194 207.148 219.468C207.346 219.742 207.433 220.084 207.391 220.422L207.337 235.673C207.337 236.484 206.843 237.137 206.249 237.129Z" fill="#F71735"/>
<path d="M171.628 216.29C171.004 216.29 170.404 216.19 169.828 215.99C169.26 215.79 168.82 215.526 168.508 215.198L168.856 214.514C169.16 214.818 169.564 215.066 170.068 215.258C170.572 215.442 171.092 215.534 171.628 215.534C172.38 215.534 172.944 215.398 173.32 215.126C173.696 214.846 173.884 214.486 173.884 214.046C173.884 213.71 173.78 213.442 173.572 213.242C173.372 213.042 173.124 212.89 172.828 212.786C172.532 212.674 172.12 212.554 171.592 212.426C170.96 212.266 170.456 212.114 170.08 211.97C169.704 211.818 169.38 211.59 169.108 211.286C168.844 210.982 168.712 210.57 168.712 210.05C168.712 209.626 168.824 209.242 169.048 208.898C169.272 208.546 169.616 208.266 170.08 208.058C170.544 207.85 171.12 207.746 171.808 207.746C172.288 207.746 172.756 207.814 173.212 207.95C173.676 208.078 174.076 208.258 174.412 208.49L174.112 209.198C173.76 208.966 173.384 208.794 172.984 208.682C172.584 208.562 172.192 208.502 171.808 208.502C171.072 208.502 170.516 208.646 170.14 208.934C169.772 209.214 169.588 209.578 169.588 210.026C169.588 210.362 169.688 210.634 169.888 210.842C170.096 211.042 170.352 211.198 170.656 211.31C170.968 211.414 171.384 211.53 171.904 211.658C172.52 211.81 173.016 211.962 173.392 212.114C173.776 212.258 174.1 212.482 174.364 212.786C174.628 213.082 174.76 213.486 174.76 213.998C174.76 214.422 174.644 214.81 174.412 215.162C174.188 215.506 173.84 215.782 173.368 215.99C172.896 216.19 172.316 216.29 171.628 216.29ZM176.694 207.818H177.582V216.218H176.694V207.818ZM186.232 212.018H187.084V215.222C186.692 215.566 186.228 215.83 185.692 216.014C185.156 216.198 184.592 216.29 184 216.29C183.16 216.29 182.404 216.106 181.732 215.738C181.06 215.37 180.532 214.862 180.148 214.214C179.764 213.558 179.572 212.826 179.572 212.018C179.572 211.21 179.764 210.482 180.148 209.834C180.532 209.178 181.06 208.666 181.732 208.298C182.404 207.93 183.164 207.746 184.012 207.746C184.652 207.746 185.24 207.85 185.776 208.058C186.312 208.258 186.764 208.558 187.132 208.958L186.58 209.522C185.916 208.866 185.072 208.538 184.048 208.538C183.368 208.538 182.752 208.69 182.2 208.994C181.656 209.29 181.228 209.706 180.916 210.242C180.604 210.77 180.448 211.362 180.448 212.018C180.448 212.674 180.604 213.266 180.916 213.794C181.228 214.322 181.656 214.738 182.2 215.042C182.744 215.346 183.356 215.498 184.036 215.498C184.9 215.498 185.632 215.282 186.232 214.85V212.018ZM181.593 222.818V231.218H180.861L175.461 224.402V231.218H174.573V222.818H175.305L180.717 229.634V222.818H181.593ZM173.78 246.29C172.692 246.29 171.844 245.978 171.236 245.354C170.628 244.73 170.324 243.822 170.324 242.63V237.818H171.212V242.594C171.212 243.57 171.432 244.298 171.872 244.778C172.312 245.258 172.948 245.498 173.78 245.498C174.62 245.498 175.26 245.258 175.7 244.778C176.14 244.298 176.36 243.57 176.36 242.594V237.818H177.224V242.63C177.224 243.822 176.92 244.73 176.312 245.354C175.712 245.978 174.868 246.29 173.78 246.29ZM183.044 237.818C184.116 237.818 184.956 238.074 185.564 238.586C186.172 239.098 186.476 239.802 186.476 240.698C186.476 241.594 186.172 242.298 185.564 242.81C184.956 243.314 184.116 243.566 183.044 243.566H180.788V246.218H179.9V237.818H183.044ZM183.02 242.786C183.852 242.786 184.488 242.606 184.928 242.246C185.368 241.878 185.588 241.362 185.588 240.698C185.588 240.018 185.368 239.498 184.928 239.138C184.488 238.77 183.852 238.586 183.02 238.586H180.788V242.786H183.02Z" fill="#E8E8E3"/>
<path d="M160.467 102.916L140.623 102.824L140.607 106.54L160.451 106.632L160.467 102.916Z" fill="#F71735"/>
<path opacity="0.1" d="M160.467 102.916L140.623 102.824L140.607 106.54L160.451 106.632L160.467 102.916Z" fill="black"/>
<path d="M218.64 125.732C218.796 125.716 218.949 125.679 219.095 125.622C219.309 125.537 219.494 125.392 219.631 125.204C219.767 125.016 219.849 124.792 219.867 124.559C219.867 123.307 219.867 121.481 219.867 119.134C219.867 117.961 219.867 116.646 219.867 115.198C219.867 114.844 219.867 114.473 219.867 114.103C219.917 113.744 219.84 113.379 219.651 113.072C219.544 112.925 219.406 112.805 219.247 112.722C219.088 112.638 218.912 112.594 218.733 112.592H217.529H206.38L141.847 112.348C141.682 112.345 141.518 112.383 141.371 112.458C141.223 112.534 141.095 112.644 140.998 112.781C140.812 113.089 140.741 113.455 140.798 113.812C140.798 114.599 140.798 115.387 140.798 116.174C140.798 117.749 140.798 119.323 140.798 120.898C140.798 121.685 140.798 122.473 140.798 123.26C140.766 123.627 140.766 123.995 140.798 124.362C140.838 124.519 140.913 124.665 141.018 124.788C141.122 124.911 141.253 125.007 141.399 125.071C141.551 125.132 141.714 125.162 141.878 125.157H145.805L162.941 125.252L191.952 125.433L211.511 125.59L216.827 125.653H218.208C218.524 125.653 218.679 125.653 218.679 125.653H218.208H216.827H211.511H191.952L162.941 125.559L145.805 125.488H141.878C141.662 125.497 141.446 125.459 141.245 125.378C141.042 125.289 140.861 125.155 140.717 124.984C140.572 124.814 140.468 124.612 140.412 124.394C140.367 124.187 140.352 123.975 140.366 123.764V123.181C140.366 122.394 140.366 121.607 140.366 120.819C140.366 119.245 140.366 117.67 140.366 116.095C140.366 115.308 140.366 114.521 140.366 113.733C140.351 113.524 140.351 113.313 140.366 113.104C140.394 112.872 140.482 112.652 140.62 112.466C140.753 112.276 140.929 112.121 141.134 112.016C141.338 111.91 141.564 111.857 141.793 111.86L206.326 112.222L217.475 112.301H218.679C218.891 112.301 219.099 112.353 219.287 112.453C219.476 112.553 219.637 112.698 219.759 112.875C219.976 113.218 220.064 113.629 220.006 114.033C220.006 114.403 220.006 114.773 220.006 115.127C220.006 116.56 220.006 117.875 220.006 119.064C220.006 121.425 219.952 123.236 219.936 124.496C219.917 124.738 219.831 124.97 219.687 125.164C219.544 125.358 219.349 125.506 219.126 125.59C218.98 125.683 218.812 125.732 218.64 125.732Z" fill="#E0E0E0"/>
<path d="M182.878 116.3H146.584V119.772H182.878V116.3Z" fill="#F71735"/>
<path opacity="0.2" d="M182.878 116.3H146.584V119.772H182.878V116.3Z" fill="#FFD6D6"/>
<path d="M160.333 136.817L140.488 136.725L140.472 140.441L160.316 140.533L160.333 136.817Z" fill="#F71735"/>
<path opacity="0.1" d="M160.333 136.817L140.488 136.725L140.472 140.441L160.316 140.533L160.333 136.817Z" fill="black"/>
<path d="M218.138 159.634C218.294 159.614 218.449 159.585 218.601 159.547C218.817 159.477 219.015 159.361 219.183 159.206C219.35 159.051 219.484 158.862 219.573 158.65C219.695 158.332 219.742 157.99 219.712 157.65C219.712 157.272 219.712 156.863 219.712 156.406C219.712 155.493 219.712 154.453 219.712 153.257V148.257C219.749 147.895 219.671 147.531 219.489 147.218C219.298 146.897 218.999 146.659 218.648 146.549C218.263 146.479 217.872 146.458 217.482 146.486H206.38L142.071 146.242C141.725 146.243 141.391 146.371 141.131 146.605C140.871 146.838 140.703 147.159 140.659 147.509C140.659 148.257 140.659 149.084 140.659 149.871C140.659 151.446 140.659 153.02 140.659 154.595C140.659 155.382 140.659 156.17 140.659 156.957C140.63 157.325 140.645 157.695 140.705 158.059C140.801 158.378 141 158.656 141.268 158.847C141.553 159.031 141.888 159.119 142.225 159.099H143.297H145.527L162.602 159.185L191.512 159.366L211.001 159.524L216.302 159.587H217.683H218.146H217.683H216.302H211.001H191.512L162.586 159.555L145.512 159.492H142.155C141.738 159.517 141.324 159.404 140.975 159.169C140.624 158.921 140.368 158.557 140.25 158.138C140.181 157.738 140.16 157.331 140.188 156.926C140.188 156.138 140.188 155.351 140.188 154.564C140.188 152.989 140.188 151.414 140.188 149.84C140.188 149.052 140.188 148.265 140.188 147.478C140.244 147.028 140.459 146.614 140.793 146.314C141.127 146.014 141.556 145.848 142.001 145.848L206.31 146.21L217.413 146.297C217.826 146.271 218.241 146.3 218.648 146.383C219.048 146.517 219.386 146.798 219.597 147.171C219.796 147.517 219.883 147.92 219.843 148.32C219.843 148.69 219.843 149.052 219.843 149.415C219.843 150.84 219.843 152.147 219.843 153.351C219.843 154.556 219.843 155.571 219.843 156.5C219.843 156.949 219.843 157.366 219.843 157.752C219.871 158.104 219.816 158.458 219.681 158.784C219.581 159.001 219.436 159.193 219.257 159.348C219.077 159.503 218.866 159.617 218.64 159.681C218.471 159.695 218.301 159.679 218.138 159.634Z" fill="#E0E0E0"/>
<path d="M160.183 172.19L140.339 172.098L140.322 175.814L160.167 175.906L160.183 172.19Z" fill="#F71735"/>
<path opacity="0.1" d="M160.183 172.19L140.339 172.098L140.322 175.814L160.167 175.906L160.183 172.19Z" fill="black"/>
<path d="M217.985 194.992C218.141 194.973 218.295 194.944 218.448 194.906C218.662 194.836 218.86 194.721 219.028 194.567C219.195 194.414 219.329 194.226 219.42 194.016C219.541 193.698 219.588 193.356 219.559 193.016C219.559 192.63 219.559 192.229 219.559 191.764C219.559 190.859 219.559 189.812 219.559 188.615V183.615C219.596 183.253 219.517 182.889 219.335 182.576C219.14 182.261 218.842 182.027 218.494 181.915C218.11 181.842 217.719 181.818 217.329 181.844H206.226L141.917 181.6C141.571 181.601 141.237 181.73 140.978 181.963C140.718 182.196 140.55 182.517 140.505 182.867C140.505 183.655 140.505 184.442 140.505 185.229C140.505 186.804 140.505 188.379 140.505 189.953C140.505 190.741 140.505 191.528 140.505 192.315C140.476 192.681 140.492 193.048 140.551 193.41C140.644 193.731 140.843 194.009 141.115 194.197C141.398 194.386 141.734 194.474 142.071 194.449H145.428L162.502 194.543L191.412 194.724L210.902 194.882L216.203 194.945H217.584C217.892 194.945 218.047 194.945 218.047 194.945C218.047 194.945 217.892 194.945 217.584 194.945H216.203H210.902H191.412L162.502 194.858L145.428 194.787H142.071C141.654 194.816 141.239 194.703 140.891 194.465C140.54 194.216 140.284 193.852 140.166 193.433C140.097 193.033 140.076 192.626 140.104 192.221C140.104 191.433 140.104 190.646 140.104 189.859C140.104 188.284 140.104 186.71 140.104 185.135C140.104 184.348 140.104 183.56 140.104 182.734C140.159 182.284 140.372 181.87 140.705 181.57C141.037 181.27 141.466 181.104 141.909 181.104L206.219 181.466L217.321 181.553C217.735 181.527 218.15 181.556 218.556 181.639C218.957 181.773 219.295 182.053 219.505 182.427C219.704 182.773 219.791 183.176 219.752 183.576C219.752 183.946 219.752 184.316 219.752 184.67C219.752 186.095 219.752 187.402 219.752 188.607C219.752 189.812 219.752 190.827 219.752 191.756C219.752 192.205 219.752 192.622 219.752 193.008C219.781 193.36 219.726 193.714 219.59 194.039C219.49 194.257 219.345 194.449 219.165 194.604C218.985 194.759 218.775 194.873 218.548 194.937C218.367 195 218.174 195.019 217.985 194.992Z" fill="#E0E0E0"/>
<path d="M182.104 151.184L145.811 151.016L145.795 154.488L182.089 154.656L182.104 151.184Z" fill="#F71735"/>
<path opacity="0.2" d="M182.104 151.184L145.811 151.016L145.795 154.488L182.089 154.656L182.104 151.184Z" fill="#FFD6D6"/>
<path d="M149.092 188.568C149.069 188.884 148.955 189.187 148.765 189.439C148.576 189.69 148.317 189.88 148.023 189.983C147.729 190.086 147.411 190.099 147.11 190.02C146.809 189.94 146.537 189.773 146.328 189.537C146.119 189.302 145.983 189.009 145.935 188.695C145.888 188.381 145.932 188.06 146.062 187.772C146.192 187.483 146.402 187.24 146.667 187.072C146.931 186.904 147.237 186.819 147.548 186.828C147.978 186.852 148.381 187.048 148.67 187.374C148.959 187.7 149.11 188.129 149.092 188.568Z" fill="#F71735"/>
<path d="M154.006 188.591C154.021 188.813 153.991 189.036 153.919 189.246C153.846 189.455 153.732 189.648 153.583 189.81C153.434 189.973 153.254 190.103 153.054 190.192C152.854 190.28 152.638 190.326 152.42 190.326C152.202 190.326 151.987 190.28 151.787 190.192C151.587 190.103 151.407 189.973 151.258 189.81C151.109 189.648 150.995 189.455 150.922 189.246C150.849 189.036 150.82 188.813 150.835 188.591C150.82 188.369 150.849 188.147 150.922 187.937C150.995 187.727 151.109 187.535 151.258 187.372C151.407 187.209 151.587 187.08 151.787 186.991C151.987 186.902 152.202 186.857 152.42 186.857C152.638 186.857 152.854 186.902 153.054 186.991C153.254 187.08 153.434 187.209 153.583 187.372C153.732 187.535 153.846 187.727 153.919 187.937C153.991 188.147 154.021 188.369 154.006 188.591Z" fill="#F71735"/>
<path d="M158.929 188.615C158.907 188.932 158.793 189.235 158.603 189.486C158.413 189.738 158.155 189.927 157.861 190.03C157.567 190.133 157.249 190.146 156.948 190.067C156.647 189.988 156.375 189.82 156.166 189.585C155.957 189.349 155.821 189.056 155.773 188.742C155.726 188.429 155.77 188.107 155.9 187.819C156.03 187.53 156.24 187.287 156.504 187.119C156.769 186.952 157.075 186.867 157.386 186.875C157.815 186.901 158.217 187.098 158.506 187.424C158.794 187.749 158.946 188.177 158.929 188.615Z" fill="#F71735"/>
<path d="M163.845 188.638C163.822 188.955 163.708 189.258 163.518 189.51C163.329 189.761 163.07 189.95 162.776 190.054C162.482 190.157 162.164 190.17 161.863 190.09C161.562 190.011 161.29 189.844 161.081 189.608C160.872 189.373 160.736 189.08 160.688 188.766C160.641 188.452 160.685 188.131 160.815 187.842C160.945 187.554 161.155 187.311 161.419 187.143C161.684 186.975 161.99 186.89 162.301 186.899C162.731 186.925 163.132 187.122 163.421 187.447C163.709 187.772 163.861 188.2 163.845 188.638Z" fill="#F71735"/>
<path d="M168.759 188.654C168.738 188.971 168.626 189.275 168.437 189.528C168.247 189.781 167.99 189.971 167.695 190.075C167.401 190.18 167.083 190.194 166.782 190.115C166.48 190.037 166.207 189.87 165.997 189.634C165.788 189.399 165.651 189.106 165.603 188.792C165.555 188.478 165.599 188.157 165.729 187.868C165.858 187.579 166.069 187.335 166.333 187.167C166.598 186.999 166.905 186.914 167.216 186.922C167.644 186.949 168.044 187.145 168.333 187.468C168.621 187.792 168.774 188.217 168.759 188.654Z" fill="#F71735"/>
<path d="M173.681 188.678C173.66 188.993 173.549 189.296 173.362 189.548C173.174 189.8 172.919 189.99 172.627 190.096C172.335 190.202 172.019 190.218 171.718 190.143C171.417 190.068 171.144 189.905 170.932 189.673C170.721 189.442 170.581 189.153 170.529 188.841C170.476 188.529 170.515 188.209 170.639 187.919C170.763 187.629 170.967 187.382 171.226 187.21C171.486 187.037 171.789 186.945 172.099 186.946C172.534 186.962 172.944 187.154 173.241 187.478C173.537 187.803 173.696 188.234 173.681 188.678Z" fill="#F71735"/>
<path d="M178.596 188.701C178.611 188.923 178.581 189.146 178.509 189.356C178.436 189.566 178.321 189.758 178.173 189.921C178.024 190.083 177.844 190.213 177.644 190.302C177.444 190.39 177.228 190.436 177.01 190.436C176.792 190.436 176.577 190.39 176.377 190.302C176.177 190.213 175.997 190.083 175.848 189.921C175.699 189.758 175.585 189.566 175.512 189.356C175.439 189.146 175.41 188.923 175.425 188.701C175.41 188.479 175.439 188.257 175.512 188.047C175.585 187.837 175.699 187.645 175.848 187.482C175.997 187.32 176.177 187.19 176.377 187.101C176.577 187.012 176.792 186.967 177.01 186.967C177.228 186.967 177.444 187.012 177.644 187.101C177.844 187.19 178.024 187.32 178.173 187.482C178.321 187.645 178.436 187.837 178.509 188.047C178.581 188.257 178.611 188.479 178.596 188.701Z" fill="#F71735"/>
<path d="M183.511 188.725C183.49 189.041 183.379 189.343 183.192 189.595C183.004 189.847 182.749 190.038 182.457 190.143C182.165 190.249 181.849 190.266 181.548 190.19C181.247 190.115 180.974 189.952 180.763 189.721C180.551 189.489 180.411 189.2 180.359 188.888C180.306 188.576 180.345 188.256 180.469 187.966C180.593 187.676 180.797 187.43 181.057 187.257C181.316 187.084 181.619 186.992 181.929 186.993C182.364 187.01 182.774 187.201 183.071 187.526C183.367 187.85 183.526 188.282 183.511 188.725Z" fill="#F71735"/>
<path d="M188.426 188.749C188.405 189.066 188.293 189.37 188.104 189.622C187.914 189.875 187.657 190.065 187.363 190.17C187.068 190.274 186.75 190.288 186.449 190.21C186.147 190.131 185.874 189.964 185.664 189.729C185.455 189.494 185.318 189.201 185.27 188.887C185.222 188.573 185.266 188.251 185.396 187.962C185.525 187.673 185.736 187.429 186 187.261C186.265 187.093 186.572 187.008 186.883 187.017C187.311 187.043 187.711 187.239 188 187.562C188.288 187.886 188.441 188.312 188.426 188.749Z" fill="#F71735"/>
<g opacity="0.2">
<path opacity="0.2" d="M149.092 188.568C149.069 188.884 148.955 189.187 148.765 189.439C148.576 189.69 148.317 189.88 148.023 189.983C147.729 190.086 147.411 190.099 147.11 190.02C146.809 189.94 146.537 189.773 146.328 189.537C146.119 189.302 145.983 189.009 145.935 188.695C145.888 188.381 145.932 188.06 146.062 187.772C146.192 187.483 146.402 187.24 146.667 187.072C146.931 186.904 147.237 186.819 147.548 186.828C147.978 186.852 148.381 187.048 148.67 187.374C148.959 187.7 149.11 188.129 149.092 188.568Z" fill="#FFD6D6"/>
<path opacity="0.2" d="M154.006 188.591C154.021 188.813 153.991 189.036 153.919 189.246C153.846 189.455 153.732 189.648 153.583 189.81C153.434 189.973 153.254 190.103 153.054 190.192C152.854 190.28 152.638 190.326 152.42 190.326C152.202 190.326 151.987 190.28 151.787 190.192C151.587 190.103 151.407 189.973 151.258 189.81C151.109 189.648 150.995 189.455 150.922 189.246C150.849 189.036 150.82 188.813 150.835 188.591C150.82 188.369 150.849 188.147 150.922 187.937C150.995 187.727 151.109 187.535 151.258 187.372C151.407 187.209 151.587 187.08 151.787 186.991C151.987 186.902 152.202 186.857 152.42 186.857C152.638 186.857 152.854 186.902 153.054 186.991C153.254 187.08 153.434 187.209 153.583 187.372C153.732 187.535 153.846 187.727 153.919 187.937C153.991 188.147 154.021 188.369 154.006 188.591Z" fill="#FFD6D6"/>
<path opacity="0.2" d="M158.928 188.615C158.906 188.932 158.792 189.235 158.602 189.486C158.412 189.738 158.154 189.927 157.86 190.03C157.566 190.133 157.248 190.146 156.947 190.067C156.646 189.988 156.374 189.82 156.165 189.585C155.956 189.349 155.82 189.056 155.772 188.742C155.725 188.429 155.769 188.107 155.899 187.819C156.029 187.53 156.239 187.287 156.503 187.119C156.768 186.952 157.074 186.867 157.385 186.875C157.814 186.901 158.216 187.098 158.505 187.424C158.793 187.749 158.945 188.177 158.928 188.615Z" fill="#FFD6D6"/>
<path opacity="0.2" d="M163.845 188.639C163.822 188.955 163.708 189.258 163.518 189.51C163.329 189.761 163.07 189.95 162.776 190.054C162.482 190.157 162.164 190.17 161.863 190.09C161.562 190.011 161.29 189.844 161.081 189.608C160.872 189.373 160.736 189.08 160.688 188.766C160.641 188.452 160.685 188.131 160.815 187.843C160.945 187.554 161.155 187.311 161.419 187.143C161.684 186.975 161.99 186.89 162.301 186.899C162.731 186.925 163.132 187.122 163.421 187.447C163.709 187.773 163.861 188.2 163.845 188.639Z" fill="#FFD6D6"/>
<path opacity="0.2" d="M168.758 188.654C168.737 188.971 168.625 189.275 168.436 189.528C168.247 189.781 167.989 189.971 167.695 190.075C167.4 190.18 167.082 190.194 166.781 190.115C166.479 190.037 166.206 189.87 165.996 189.634C165.787 189.399 165.65 189.106 165.602 188.792C165.554 188.478 165.598 188.157 165.728 187.868C165.857 187.579 166.068 187.335 166.332 187.167C166.597 186.999 166.904 186.914 167.215 186.922C167.643 186.949 168.043 187.145 168.332 187.468C168.62 187.792 168.773 188.217 168.758 188.654Z" fill="#FFD6D6"/>
<path opacity="0.2" d="M173.681 188.678C173.66 188.993 173.549 189.296 173.362 189.548C173.174 189.8 172.919 189.99 172.627 190.096C172.335 190.202 172.019 190.218 171.718 190.143C171.417 190.068 171.144 189.905 170.932 189.673C170.721 189.442 170.581 189.153 170.529 188.841C170.476 188.529 170.515 188.209 170.639 187.919C170.763 187.629 170.967 187.382 171.226 187.21C171.486 187.037 171.789 186.945 172.099 186.946C172.534 186.962 172.944 187.154 173.241 187.478C173.537 187.803 173.696 188.234 173.681 188.678Z" fill="#FFD6D6"/>
<path opacity="0.2" d="M178.596 188.702C178.611 188.923 178.581 189.146 178.509 189.356C178.436 189.566 178.321 189.758 178.173 189.921C178.024 190.083 177.844 190.213 177.644 190.302C177.444 190.391 177.228 190.436 177.01 190.436C176.792 190.436 176.577 190.391 176.377 190.302C176.177 190.213 175.997 190.083 175.848 189.921C175.699 189.758 175.585 189.566 175.512 189.356C175.439 189.146 175.41 188.923 175.425 188.702C175.41 188.48 175.439 188.257 175.512 188.047C175.585 187.837 175.699 187.645 175.848 187.482C175.997 187.32 176.177 187.19 176.377 187.101C176.577 187.013 176.792 186.967 177.01 186.967C177.228 186.967 177.444 187.013 177.644 187.101C177.844 187.19 178.024 187.32 178.173 187.482C178.321 187.645 178.436 187.837 178.509 188.047C178.581 188.257 178.611 188.48 178.596 188.702Z" fill="#FFD6D6"/>
<path opacity="0.2" d="M183.511 188.725C183.49 189.041 183.379 189.343 183.192 189.595C183.004 189.847 182.749 190.038 182.457 190.143C182.165 190.249 181.849 190.266 181.548 190.19C181.247 190.115 180.974 189.952 180.763 189.721C180.551 189.489 180.411 189.2 180.359 188.888C180.306 188.576 180.345 188.256 180.469 187.966C180.593 187.676 180.797 187.43 181.057 187.257C181.316 187.084 181.619 186.992 181.929 186.993C182.364 187.01 182.774 187.201 183.071 187.526C183.367 187.85 183.526 188.282 183.511 188.725Z" fill="#FFD6D6"/>
<path opacity="0.2" d="M188.426 188.749C188.405 189.066 188.293 189.37 188.104 189.622C187.914 189.875 187.657 190.065 187.363 190.17C187.068 190.274 186.75 190.288 186.449 190.21C186.147 190.131 185.874 189.964 185.664 189.729C185.455 189.494 185.318 189.201 185.27 188.887C185.222 188.573 185.266 188.251 185.396 187.962C185.525 187.673 185.736 187.429 186 187.261C186.265 187.093 186.572 187.008 186.883 187.017C187.311 187.043 187.711 187.239 188 187.563C188.288 187.886 188.441 188.312 188.426 188.749Z" fill="#FFD6D6"/>
</g>
<path d="M181.443 75.0921C181.979 74.8512 182.434 74.4549 182.751 73.9523C183.068 73.4497 183.233 72.8632 183.226 72.2656C183.246 71.8772 183.188 71.4886 183.056 71.1237C182.924 70.7587 182.721 70.425 182.458 70.1428C182.196 69.8606 181.88 69.6359 181.53 69.4824C181.18 69.3288 180.802 69.2496 180.421 69.2496C180.04 69.2496 179.663 69.3288 179.312 69.4824C178.962 69.6359 178.646 69.8606 178.384 70.1428C178.121 70.425 177.918 70.7587 177.786 71.1237C177.654 71.4886 177.596 71.8772 177.616 72.2656C177.605 72.8692 177.768 73.4627 178.087 73.9714C178.406 74.48 178.865 74.881 179.406 75.1236C175.086 75.7849 175.279 80.5718 175.279 80.5718L185.494 80.619C185.494 80.619 185.733 75.7455 181.443 75.0921Z" fill="#F71735"/>
<path opacity="0.1" d="M181.443 75.0921C181.979 74.8512 182.434 74.4549 182.751 73.9523C183.068 73.4497 183.233 72.8632 183.226 72.2656C183.246 71.8772 183.188 71.4886 183.056 71.1237C182.924 70.7587 182.721 70.425 182.458 70.1428C182.196 69.8606 181.88 69.6359 181.53 69.4824C181.18 69.3288 180.802 69.2496 180.421 69.2496C180.04 69.2496 179.663 69.3288 179.312 69.4824C178.962 69.6359 178.646 69.8606 178.384 70.1428C178.121 70.425 177.918 70.7587 177.786 71.1237C177.654 71.4886 177.596 71.8772 177.616 72.2656C177.605 72.8692 177.768 73.4627 178.087 73.9714C178.406 74.48 178.865 74.881 179.406 75.1236C175.086 75.7849 175.279 80.5718 175.279 80.5718L185.494 80.619C185.494 80.619 185.733 75.7455 181.443 75.0921Z" fill="black"/>
<path d="M198.043 83.7064L161.634 83.5378L161.614 87.9782L198.023 88.1468L198.043 83.7064Z" fill="#F71735"/>
<path opacity="0.2" d="M198.043 83.7064L161.634 83.5378L161.614 87.9782L198.023 88.1468L198.043 83.7064Z" fill="#FFD6D6"/>
<path d="M64.1902 106.718H63.8275L62.7782 106.797C62.2104 106.832 61.6457 106.908 61.0885 107.026C60.7276 107.077 60.3696 107.148 60.016 107.238L58.8201 107.577C56.7846 108.214 54.8641 109.184 53.1338 110.45C50.8475 112.144 48.9385 114.312 47.5323 116.812C46.7057 118.253 46.048 119.788 45.5725 121.386C45.0729 123.123 44.7853 124.916 44.7161 126.724C44.6701 127.674 44.6856 128.626 44.7624 129.574C44.7624 130.054 44.8935 130.535 44.9553 131.023C45.0072 131.515 45.0975 132.002 45.2253 132.479C45.9191 135.639 47.3269 138.589 49.3362 141.094C51.3456 143.6 53.9011 145.592 56.7987 146.911C58.8958 147.834 61.1436 148.35 63.4263 148.43C65.784 148.563 68.144 148.217 70.3703 147.415L71.0493 147.155H71.1419L71.219 147.202L80.9484 152.241L80.6629 152.493C79.6213 149.202 78.6183 146.013 77.6461 142.951V142.833L77.731 142.746C80.0912 140.32 81.8433 137.349 82.8387 134.085C83.7403 131.102 84.0034 127.955 83.6102 124.858C83.2605 122.106 82.3934 119.449 81.0564 117.032C79.9039 114.956 78.4172 113.093 76.6585 111.521C75.2076 110.277 73.6017 109.234 71.8826 108.419C70.5818 107.847 69.2271 107.411 67.8396 107.12L66.2965 106.86L65.1778 106.774L64.4988 106.726H64.2673C64.3442 106.718 64.4219 106.718 64.4988 106.726H65.1855L66.3042 106.774L67.8473 107.002C69.2521 107.272 70.6253 107.691 71.9443 108.254C73.6929 109.059 75.3278 110.099 76.8051 111.348C78.5961 112.913 80.1144 114.776 81.2956 116.859C82.6705 119.302 83.5643 121.995 83.9266 124.787C84.3523 127.932 84.1076 131.133 83.209 134.172C82.2071 137.504 80.4279 140.538 78.0242 143.014L78.0705 142.809C79.0426 145.872 80.0534 149.06 81.1027 152.343L81.2493 152.824L80.8095 152.595L71.0802 147.564H71.2499L70.5555 147.824C68.2863 148.639 65.8826 148.992 63.4803 148.863C61.1484 148.773 58.8536 148.239 56.7138 147.289C52.632 145.505 49.236 142.405 47.0462 138.463C46.0385 136.643 45.3025 134.679 44.8627 132.637C44.7422 132.147 44.652 131.65 44.5926 131.149C44.5309 130.653 44.4306 130.165 44.4075 129.677C44.1987 126.875 44.4888 124.058 45.2639 121.362C45.7512 119.743 46.4273 118.188 47.2777 116.733C48.7175 114.21 50.6663 112.028 52.9949 110.332C54.7538 109.063 56.7065 108.1 58.7738 107.482L59.9852 107.167C60.3417 107.083 60.7022 107.017 61.0654 106.97C61.6283 106.864 62.1983 106.801 62.7705 106.781L63.8275 106.742C63.9477 106.726 64.0689 106.718 64.1902 106.718Z" fill="#F71735"/>
<path d="M68.5879 125.079H67.1606L64.0743 120.654V117.749C64.0743 117.749 61.8677 117.607 62.13 121.41C62.3923 125.212 62.13 124.244 62.13 124.244C62.13 124.244 57.4467 124.244 57.0609 124.677C56.6751 125.11 56.652 129.724 56.5979 132.298C56.5684 132.919 56.7429 133.532 57.0938 134.04C57.4447 134.547 57.9518 134.921 58.5346 135.101C58.6979 135.147 58.8666 135.171 59.0361 135.172C60.2088 135.172 66.173 134.204 66.173 134.204H68.6342L68.5879 125.079Z" fill="#F71735"/>
<path d="M72.6702 124.299L71.7907 134.251H69.3525V124.504L72.6702 124.299Z" fill="#F71735"/>
<path d="M101.749 326.899V320.167L89.9206 320.081L89.8203 330.261L90.5533 330.316C93.817 330.528 107.157 330.843 109.348 330.15C111.787 329.379 101.749 326.899 101.749 326.899Z" fill="#F71735"/>
<path d="M109.627 329.521C109.627 329.631 105.198 329.725 99.743 329.725C94.2881 329.725 89.8594 329.631 89.8594 329.521C89.8594 329.41 94.2881 329.316 99.743 329.316C105.198 329.316 109.627 329.41 109.627 329.521Z" fill="#011627"/>
<path d="M101.957 328.277C101.856 328.221 101.957 327.867 102.196 327.489C102.435 327.111 102.759 326.954 102.836 327.033C102.913 327.111 102.751 327.411 102.52 327.733C102.288 328.056 102.057 328.332 101.957 328.277Z" fill="#011627"/>
<path d="M102.713 328.717C102.605 328.717 102.659 328.277 102.89 327.859C103.122 327.442 103.43 327.19 103.515 327.253C103.6 327.316 103.461 327.67 103.245 328.04C103.029 328.41 102.813 328.757 102.713 328.717Z" fill="#011627"/>
<path d="M93.4236 329.489C93.3774 329.489 93.1999 329.347 92.9453 329.048C92.6345 328.664 92.2883 328.31 91.9114 327.993C91.5408 327.691 91.0993 327.493 90.6306 327.418C90.268 327.371 90.0365 327.418 90.0134 327.371C89.9902 327.324 90.214 327.159 90.6383 327.127C91.1984 327.115 91.7447 327.304 92.1814 327.662C92.5907 328.003 92.9358 328.416 93.1999 328.883C93.3774 329.229 93.4699 329.457 93.4236 329.489Z" fill="#011627"/>
<path d="M101.995 327.009C102.049 327.103 101.849 327.34 101.509 327.466C101.17 327.592 100.869 327.544 100.853 327.466C100.838 327.387 101.077 327.222 101.37 327.111C101.663 327.001 101.933 326.915 101.995 327.009Z" fill="#011627"/>
<path d="M101.81 326.355C101.81 326.474 101.502 326.568 101.101 326.576C100.699 326.584 100.383 326.489 100.391 326.379C100.398 326.269 100.715 326.167 101.101 326.159C101.486 326.151 101.795 326.245 101.81 326.355Z" fill="#011627"/>
<path d="M130.875 326.899V320.167L119.047 320.081L118.946 330.158L119.679 330.213C122.943 330.426 136.291 330.843 138.474 330.15C140.912 329.379 130.875 326.899 130.875 326.899Z" fill="#F71735"/>
<path d="M138.753 329.536C138.753 329.646 134.332 329.741 128.869 329.741C123.406 329.741 118.993 329.646 118.993 329.536C118.993 329.426 123.414 329.332 128.869 329.332C134.324 329.332 138.753 329.426 138.753 329.536Z" fill="#011627"/>
<path d="M131.083 328.277C130.991 328.221 131.083 327.867 131.322 327.489C131.562 327.111 131.886 326.954 131.963 327.033C132.04 327.111 131.878 327.411 131.646 327.733C131.415 328.056 131.183 328.332 131.083 328.277Z" fill="#011627"/>
<path d="M131.84 328.717C131.739 328.717 131.786 328.277 132.025 327.859C132.264 327.442 132.565 327.19 132.65 327.253C132.735 327.316 132.588 327.67 132.372 328.04C132.156 328.41 131.948 328.757 131.84 328.717Z" fill="#011627"/>
<path d="M122.55 329.489C122.503 329.489 122.334 329.347 122.071 329.048C121.76 328.664 121.414 328.31 121.037 327.993C120.667 327.691 120.225 327.493 119.757 327.418C119.402 327.371 119.162 327.418 119.139 327.371C119.116 327.324 119.34 327.159 119.764 327.127C120.324 327.115 120.871 327.304 121.307 327.662C121.719 328.001 122.064 328.414 122.326 328.883C122.503 329.229 122.596 329.457 122.55 329.489Z" fill="#011627"/>
<path d="M131.122 327.009C131.176 327.103 130.976 327.34 130.636 327.466C130.297 327.592 129.996 327.544 129.98 327.466C129.965 327.387 130.204 327.222 130.497 327.111C130.79 327.001 131.06 326.915 131.122 327.009Z" fill="#011627"/>
<path d="M130.952 326.355C130.952 326.474 130.644 326.568 130.242 326.576C129.841 326.584 129.532 326.489 129.54 326.379C129.548 326.269 129.857 326.167 130.242 326.159C130.628 326.151 130.952 326.245 130.952 326.355Z" fill="#011627"/>
<path d="M174.452 127C174.144 126.677 173.38 126.834 173.38 126.834C173.457 126.381 173.457 125.918 173.38 125.464C173.241 125.024 172.269 125.11 172.269 125.11C172.224 124.739 172.224 124.363 172.269 123.992C172.277 123.91 172.259 123.827 172.219 123.755C172.179 123.683 172.118 123.626 172.045 123.591C171.585 123.399 171.091 123.308 170.595 123.323C170.001 122.89 172.408 119.449 173.303 118.347C174.198 117.245 174.036 116.387 173.241 116.387C172.693 116.387 169.885 119.693 169.021 120.804C168.157 121.914 165.865 125 165.788 122.536C165.711 120.071 164.739 118.213 164.129 117.898C163.52 117.583 162.871 118.324 163.203 119.008C163.495 119.787 163.677 120.603 163.743 121.433C163.827 122.095 163.798 122.766 163.658 123.417C163.403 124.63 163.054 125.819 162.617 126.976H162.555C162.555 126.976 145.72 143.455 144.501 144.628C143.413 145.683 121.531 143.376 117.141 142.903C115.649 142.681 114.143 142.575 112.635 142.589C110.73 142.675 110.39 142.951 108.492 142.974C103.699 143.029 98.9166 143.458 94.1875 144.258C92.0461 144.629 90.0459 145.594 88.405 147.046C86.7641 148.498 85.5456 150.382 84.8825 152.493C80.4615 166.586 70.4467 199.944 68.6798 218.682C67.3447 221.153 66.1393 223.694 65.0689 226.296C63.8267 229.744 64.1276 229.862 64.5443 229.941C65.6707 230.154 66.9515 223.965 67.4299 225.461C67.9082 226.957 64.9995 232.838 66.18 233.012C67.7231 233.232 68.9499 226.713 69.0964 226.193C69.243 225.674 70.0069 225.839 69.868 226.327C69.6443 227.02 67.4762 234.366 68.9884 234.602C69.8217 234.728 69.9143 233.177 69.9143 233.177C69.9143 233.177 71.4574 226.146 72.1595 226.288C72.8616 226.43 72.1132 230.579 71.7583 231.964C71.4034 233.35 71.8972 234.051 72.6225 233.712C73.1163 233.476 74.2967 229.264 74.6208 227.894C74.9449 226.524 75.755 222.729 76.8429 224.926C77.9308 227.122 79.5819 228.398 80.2609 228.429C80.4139 228.411 80.5581 228.347 80.675 228.245C80.7918 228.142 80.876 228.007 80.9167 227.855C80.9573 227.704 80.9526 227.543 80.9031 227.394C80.8536 227.245 80.7616 227.115 80.6389 227.02C80.0549 226.438 79.5537 225.776 79.1498 225.052C78.7899 224.488 78.5288 223.865 78.3783 223.21C78.0674 221.904 77.8864 220.569 77.8382 219.226L77.7147 218.438C79.443 209.707 84.4196 184.08 91.6027 167.712L94.5501 173.9L95.8309 178.482L87.9764 198.267L121.477 197.819L116.478 178.183L122.55 157.713C129.116 157.862 145.974 158.114 148.783 156.815C152.317 155.241 170.595 131.684 170.595 131.684C171.786 130.74 172.927 129.73 174.013 128.661C174.013 128.661 175.124 127.708 174.452 127Z" fill="#FFBE9D"/>
<path d="M86.5027 183.647C87.4749 180.262 92.4669 163.523 92.4669 163.523C92.4669 163.523 94.9204 177.167 94.2723 178.813C93.6761 180.222 92.9718 181.58 92.166 182.875C86.5027 191.67 87.2434 196.071 87.2434 196.071L121.462 195.008C121.539 190.127 118.708 178.774 118.121 176.963C117.535 175.152 119.487 169.223 119.487 169.223C119.487 169.223 123.345 165.216 123.206 163.153C123.132 161.3 122.908 159.457 122.534 157.642L143.366 158.429L142.711 144.021L112.79 140.967C111.748 143.966 102.327 142.494 102.327 142.494C92.1582 142.84 91.5256 144.746 87.2974 148.1C83.0693 151.454 76.0713 180.238 76.0713 180.238L86.5027 183.647Z" fill="#F71735"/>
<path d="M106.733 180.238C106.14 180.346 105.536 180.378 104.936 180.332C103.817 180.332 102.282 180.254 100.592 180.08C98.9022 179.907 97.3745 179.663 96.2866 179.443C95.6867 179.364 95.0986 179.211 94.5352 178.986C95.1384 178.986 95.7403 179.044 96.3329 179.159C97.4285 179.301 98.9485 179.498 100.63 179.671C102.312 179.844 103.84 179.962 104.943 180.041C105.545 180.049 106.144 180.115 106.733 180.238Z" fill="#011627"/>
<path d="M109.078 177.27C108.485 177.566 107.858 177.786 107.211 177.923C104.133 178.749 100.957 179.133 97.7752 179.065C97.1167 179.087 96.4582 179.023 95.8154 178.876C96.4653 178.792 97.1203 178.758 97.7752 178.774C98.9865 178.734 100.653 178.648 102.489 178.427C104.326 178.207 105.961 177.892 107.119 177.64C107.762 177.465 108.417 177.341 109.078 177.27Z" fill="#011627"/>
<path d="M120.59 164.027C120.575 164.627 120.494 165.224 120.351 165.806C120.15 166.901 119.842 168.397 119.448 170.034C119.055 171.672 118.677 173.184 118.337 174.207C118.201 174.793 117.999 175.361 117.735 175.9C117.778 175.301 117.887 174.71 118.059 174.136C118.353 172.908 118.684 171.491 119.055 169.94C119.425 168.389 119.78 166.972 120.073 165.743C120.178 165.152 120.351 164.576 120.59 164.027Z" fill="#011627"/>
<path d="M86.8659 181.639C85.0809 181.358 83.3194 180.94 81.5962 180.387C79.8354 179.967 78.1075 179.415 76.4268 178.734C78.2108 179.02 79.9721 179.438 81.6965 179.986C83.4577 180.405 85.1856 180.957 86.8659 181.639Z" fill="#011627"/>
<path d="M122.904 157.469C122.613 157.52 122.315 157.52 122.024 157.469C121.218 157.384 120.427 157.191 119.671 156.894C118.409 156.41 117.26 155.662 116.298 154.698C115.336 153.734 114.582 152.575 114.085 151.296C113.536 149.889 113.301 148.375 113.398 146.864C113.433 145.617 113.798 144.403 114.455 143.352C114.918 142.644 115.608 142.123 116.407 141.88C116.621 141.82 116.842 141.791 117.063 141.793C117.218 141.793 117.295 141.793 117.295 141.793C117.295 141.793 116.971 141.793 116.454 142.006C115.721 142.282 115.099 142.8 114.687 143.478C113.638 145.163 113.344 148.241 114.463 151.115C114.984 152.47 115.799 153.687 116.847 154.674C117.706 155.481 118.695 156.131 119.771 156.595C120.781 157.002 121.832 157.295 122.904 157.469Z" fill="#011627"/>
<path d="M140.89 158.146C140.697 155.732 140.635 153.308 140.704 150.887C140.644 148.468 140.716 146.047 140.92 143.636C141.114 146.047 141.175 148.468 141.106 150.887C141.171 153.309 141.098 155.732 140.89 158.146Z" fill="#011627"/>
<path d="M112.589 141.848C112.674 140.093 112.851 138.109 112.851 138.109C112.851 138.109 117.11 137.628 117.365 133.141C117.619 128.653 117.365 118.3 117.365 118.3L109.649 114.269L101.085 121.142L102.404 143.581L110.259 144.092C110.859 144.109 111.442 143.883 111.878 143.462C112.315 143.041 112.571 142.461 112.589 141.848Z" fill="#FFBE9D"/>
<path d="M113.353 129.59C113.353 129.59 113.353 129.677 113.283 129.779C113.226 129.853 113.152 129.912 113.067 129.95C112.982 129.989 112.89 130.006 112.797 129.999C112.303 129.999 111.825 129.417 111.655 128.74C111.575 128.411 111.575 128.068 111.655 127.74C111.671 127.597 111.722 127.46 111.803 127.341C111.883 127.223 111.992 127.127 112.118 127.063C112.222 127.019 112.338 127.019 112.442 127.063C112.519 127.102 112.581 127.165 112.62 127.244C112.674 127.378 112.62 127.464 112.62 127.456C112.62 127.448 112.62 127.378 112.543 127.299C112.502 127.243 112.443 127.203 112.376 127.189C112.309 127.174 112.239 127.185 112.18 127.22C112.085 127.279 112.007 127.36 111.951 127.458C111.896 127.556 111.866 127.666 111.864 127.779C111.799 128.072 111.799 128.376 111.864 128.669C112.018 129.283 112.434 129.779 112.805 129.826C112.877 129.836 112.951 129.831 113.021 129.811C113.092 129.79 113.157 129.755 113.214 129.708C113.306 129.645 113.337 129.582 113.353 129.59Z" fill="#FC634E"/>
<path d="M120.011 115.875C119.417 113.812 117.265 112.789 115.305 112.222C112.319 111.356 109.094 110.978 106.177 112.072C103.261 113.167 99.758 115.088 99.758 118.371C98.0375 118.229 97.0499 119.764 96.3709 121.67C95.9368 122.83 95.6767 124.051 95.5993 125.291C95.3833 129.59 94.2028 135.526 91.4715 138.676C89.9284 140.431 87.7912 141.644 86.9116 143.832C86.1401 145.73 86.5413 147.982 85.8237 149.903C85.1833 151.595 83.7714 152.8 82.7375 154.272C81.6842 155.942 81.0643 157.858 80.9361 159.84C80.8079 161.822 81.1755 163.805 82.0045 165.602C82.8395 167.353 84.015 168.912 85.4595 170.184C86.9041 171.456 88.5873 172.415 90.4068 173.002C94.0107 174.121 97.8539 174.16 101.479 173.113C104.199 172.449 106.737 171.165 108.901 169.357C111.116 167.512 112.637 164.942 113.206 162.082C113.754 158.87 112.874 155.603 112.219 152.406C110.166 142.305 110.753 141.778 113.345 132.401C113.407 132.235 113.438 132.062 113.484 131.897C113.53 131.731 113.553 131.653 113.584 131.527C113.658 131.156 113.697 130.779 113.7 130.401C113.321 130.545 112.91 130.575 112.515 130.488C112.12 130.402 111.758 130.202 111.47 129.913C111.182 129.604 110.981 129.221 110.889 128.806C110.796 128.39 110.816 127.956 110.946 127.551C111.128 127.107 111.399 126.708 111.742 126.378C112.085 126.049 112.492 125.797 112.936 125.638C113.793 125.275 114.711 125.086 115.552 124.685C117.334 123.819 118.569 122.024 119.41 120.142C120.101 118.838 120.314 117.325 120.011 115.875Z" fill="#011627"/>
<path d="M113.661 129.802C113.824 130.048 113.959 130.312 114.062 130.59C114.294 131.086 114.602 131.787 114.942 132.597L115.004 132.747H114.842L114.07 132.818C113.538 132.818 113.09 132.92 112.565 132.912C112.52 132.902 112.477 132.88 112.442 132.848C112.407 132.816 112.381 132.776 112.365 132.731C112.342 132.66 112.342 132.582 112.365 132.511C112.383 132.405 112.406 132.3 112.434 132.196L112.573 131.637C112.643 131.264 112.752 130.9 112.897 130.55C112.883 130.931 112.829 131.308 112.735 131.676L112.627 132.235C112.589 132.424 112.519 132.716 112.627 132.692C113.013 132.692 113.561 132.605 114.07 132.574L114.842 132.503L114.741 132.676C114.41 131.889 114.132 131.149 113.97 130.637C113.828 130.376 113.724 130.095 113.661 129.802Z" fill="#F71735"/>
<path d="M87.2434 196.071L121.462 195.008L136.353 254.324L133.614 322.364H115.521L117.735 255.773L104.503 214.478L106.54 325.001L88.2541 325.277L86.3329 221.391C86.248 218.501 85.3222 211.99 85.6694 209.124L87.2434 196.071Z" fill="#011627"/>
<path d="M109.055 215.321C108.495 215.357 107.933 215.322 107.381 215.218C106.347 215.092 104.935 214.872 103.384 214.557C101.833 214.242 100.445 213.88 99.4416 213.589C98.9054 213.468 98.3867 213.278 97.8984 213.022C97.8984 212.904 100.414 213.518 103.5 214.155C106.586 214.793 109.071 215.202 109.055 215.321Z" fill="#455A64"/>
<path d="M133.429 318.632C133.429 318.742 129.332 318.837 124.278 318.837C119.225 318.837 115.12 318.742 115.12 318.632C115.12 318.522 119.217 318.427 124.278 318.427C129.34 318.427 133.429 318.514 133.429 318.632Z" fill="#455A64"/>
<path d="M106.378 322.128C106.378 322.246 102.397 322.332 97.49 322.332C92.5829 322.332 88.6094 322.246 88.6094 322.128C88.6094 322.01 92.5906 321.923 97.49 321.923C102.389 321.923 106.378 322.017 106.378 322.128Z" fill="#455A64"/>
<path d="M104.018 321.844C103.91 321.844 103.431 297.697 102.945 267.913C102.459 238.129 102.174 213.966 102.274 213.966C102.374 213.966 102.868 238.105 103.346 267.905C103.825 297.705 104.133 321.844 104.018 321.844Z" fill="#455A64"/>
<path d="M130.998 318.632C130.99 318.525 130.99 318.417 130.998 318.309V317.364C130.998 316.514 131.06 315.294 131.106 313.743C131.214 310.593 131.369 306.019 131.562 300.414C131.978 289.139 132.565 273.598 133.205 256.442C133.205 256.277 133.205 256.119 133.205 255.978V256.033C129.154 239.499 125.489 224.493 122.828 213.636L119.741 200.795C119.386 199.291 119.116 198.118 118.923 197.299C118.831 196.913 118.769 196.614 118.715 196.386C118.685 196.283 118.667 196.178 118.661 196.071C118.701 196.17 118.732 196.273 118.754 196.378C118.815 196.598 118.893 196.897 119.001 197.275C119.209 198.063 119.51 199.259 119.896 200.755C120.667 203.794 121.755 208.172 123.113 213.565C125.798 224.414 129.501 239.381 133.606 255.938V255.993C133.606 256.135 133.606 256.3 133.606 256.458C132.919 273.613 132.295 289.147 131.839 300.421C131.6 306.035 131.4 310.578 131.261 313.743C131.183 315.317 131.122 316.514 131.083 317.364C131.083 317.766 131.037 318.081 131.029 318.309C131.03 318.418 131.02 318.526 130.998 318.632Z" fill="#455A64"/>
<path d="M125.096 254.592C123.796 255.028 122.458 255.331 121.099 255.497C119.433 255.789 118.013 255.993 117.373 256.025V255.867C117.581 255.93 117.689 255.97 117.689 256.001C117.689 256.033 117.558 256.001 117.342 256.001H116.879L117.342 255.859C117.944 255.678 119.363 255.379 121.03 255.072C122.367 254.776 123.728 254.615 125.096 254.592Z" fill="#455A64"/>
<path d="M124.78 256.851C123.576 256.908 122.37 256.852 121.177 256.686C119.971 256.661 118.771 256.527 117.589 256.285C120 256.084 122.427 256.275 124.78 256.851Z" fill="#455A64"/>
<path opacity="0.2" d="M87.0967 197.323C87.5019 197.854 88.0124 198.291 88.5947 198.608C89.177 198.924 89.8181 199.111 90.4761 199.157C91.8542 199.324 93.2482 199.297 94.6194 199.078C103.454 198.078 112.813 197.157 121.462 195.008C110.267 195.646 98.4386 195.433 87.2433 196.071L87.1275 197.047" fill="black"/>
<g opacity="0.2">
<path opacity="0.2" d="M98.6318 213.423L104.943 238.413L104.503 214.478L98.6318 213.423Z" fill="black"/>
</g>
</svg>
